<svg width="60" height="60" viewBox="0 0 60 60" fill="none" xmlns="http://www.w3.org/2000/svg">
<g clip-path="url(#clip0_393_3750)">
<path d="M16.1783 0.086235C16.284 0.0857867 16.3897 0.0853384 16.4986 0.0848765C16.8521 0.083669 17.2056 0.0841332 17.5592 0.0845988C17.8129 0.0840893 18.0666 0.0834819 18.3204 0.0827839C19.0092 0.0812144 19.6981 0.0811469 20.3869 0.0814436C20.9621 0.081569 21.5372 0.0809967 22.1124 0.0804352C23.4694 0.0791348 24.8264 0.0790838 26.1834 0.0797923C27.583 0.0805001 28.9826 0.0790573 30.3823 0.0765614C31.5842 0.074497 32.7862 0.0737938 33.9881 0.0741752C34.7059 0.0743877 35.4236 0.0740786 36.1414 0.0724509C36.8164 0.0709773 37.4914 0.0712043 38.1665 0.0727334C38.414 0.0730107 38.6615 0.07269 38.9091 0.0717229C39.2474 0.0704964 39.5857 0.0714454 39.9241 0.0729312C40.0704 0.0716349 40.0704 0.0716349 40.2197 0.0703125C41.325 0.0804973 42.0646 0.476911 42.866 1.23281C43.6067 2.06398 43.7299 3.02088 43.7205 4.09901C43.7201 4.19256 43.7198 4.28611 43.7194 4.38249C43.7182 4.69563 43.7162 5.00877 43.7142 5.3219C43.7132 5.54657 43.7123 5.77123 43.7114 5.9959C43.7101 6.35485 43.7086 6.71381 43.707 7.07276C43.7029 7.96285 43.701 8.85292 43.7005 9.74302C43.7004 9.87223 43.7003 10.0014 43.7002 10.1346C43.6999 10.6675 43.6996 11.2005 43.6994 11.7334C43.6988 13.2462 43.696 14.759 43.6869 16.2717C43.6797 17.4737 43.677 18.6756 43.6797 19.8777C43.681 20.5135 43.6799 21.1492 43.6734 21.7851C43.6672 22.3835 43.6671 22.9815 43.6716 23.5799C43.6722 23.7991 43.6706 24.0182 43.6666 24.2374C43.6176 25.4403 43.6176 25.4403 44.1102 26.4897C44.4337 26.7562 44.7579 26.972 45.1168 27.1871C47.4252 29.1677 48.9761 32.5517 49.2074 35.5706C49.2128 35.7133 49.2128 35.7133 49.2184 35.859C49.2275 36.0706 49.2275 36.0706 49.2367 36.2865C49.3197 39.1956 48.5145 41.828 46.9918 44.2965C47.3012 44.6058 47.6106 44.9152 47.9293 45.234C48.084 45.1566 48.2387 45.0793 48.3981 44.9996C48.7789 44.9337 48.7789 44.9337 49.2184 44.9996C49.4366 45.1565 49.4366 45.1565 49.6616 45.3624C49.7436 45.4371 49.8257 45.5118 49.9102 45.5888C50.2794 45.9361 50.6441 46.2871 51.0042 46.6437C51.0832 46.7216 51.1622 46.7995 51.2436 46.8797C51.5018 47.1344 51.7596 47.3896 52.0172 47.645C52.1059 47.733 52.1947 47.821 52.2861 47.9117C52.7554 48.3771 53.2242 48.8431 53.6927 49.3093C54.0785 49.6929 54.4651 50.0755 54.8527 50.4573C55.3234 50.9209 55.7924 51.3863 56.2601 51.8529C56.4375 52.0293 56.6155 52.2051 56.7941 52.3802C58.9709 54.5171 58.9709 54.5171 59.1555 55.9273C59.141 57.0915 58.9422 58.0246 58.1668 58.9367C57.9676 59.1237 57.7701 59.2687 57.5387 59.4137C57.4659 59.4617 57.3931 59.5097 57.3181 59.5592C56.5277 59.995 55.4856 60.0736 54.609 59.8824C53.1446 59.411 52.1678 58.2359 51.1213 57.1706C50.9241 56.9724 50.7267 56.7742 50.5292 56.5763C50.0127 56.0578 49.4983 55.5371 48.9844 55.0161C48.563 54.5895 48.14 54.1645 47.717 53.7395C47.2131 53.2333 46.7098 52.7265 46.2068 52.2194C46.1106 52.1225 46.0144 52.0256 45.9153 51.9257C45.6449 51.6528 45.3749 51.3795 45.1051 51.1061C45.0244 51.0247 44.9438 50.9434 44.8607 50.8596C44.7876 50.7853 44.7146 50.7111 44.6393 50.6346C44.5755 50.5701 44.5118 50.5055 44.4461 50.439C44.1058 50.0614 44.1539 49.7093 44.1793 49.2183C44.2965 48.9327 44.2965 48.9327 44.4137 48.7496C44.2203 48.5562 44.027 48.3629 43.8278 48.1637C43.8261 48.2889 43.8244 48.4141 43.8226 48.5431C43.8157 49.0127 43.8067 49.4822 43.797 49.9518C43.7931 50.1541 43.7899 50.3564 43.7872 50.5587C43.7662 52.1014 43.7272 53.5081 42.6559 54.7262C41.5972 55.6417 40.5069 55.6985 39.1611 55.6942C39.0108 55.6947 38.8605 55.6951 38.7056 55.6956C38.2902 55.6968 37.8748 55.6965 37.4594 55.696C37.0107 55.6957 36.562 55.6968 36.1133 55.6977C35.235 55.6992 34.3567 55.6994 33.4783 55.6991C32.7643 55.6989 32.0503 55.6991 31.3363 55.6996C31.2346 55.6997 31.1329 55.6997 31.0282 55.6998C30.8216 55.6999 30.615 55.7001 30.4084 55.7002C28.4718 55.7015 26.5352 55.7012 24.5986 55.7005C22.8276 55.6999 21.0567 55.7012 19.2857 55.7035C17.4663 55.7057 15.6469 55.7067 13.8275 55.7063C12.8064 55.706 11.7854 55.7063 10.7643 55.708C9.89516 55.7094 9.02601 55.7096 8.15684 55.7081C7.71359 55.7074 7.27036 55.7073 6.82711 55.7087C6.34616 55.7102 5.86526 55.709 5.38431 55.7075C5.24484 55.7084 5.10538 55.7092 4.96169 55.7101C3.7734 55.7024 2.76986 55.4942 1.89616 54.6337C0.97713 53.6398 0.885408 52.8449 0.891714 51.5214C0.891224 51.3615 0.890581 51.2015 0.8898 51.0415C0.888108 50.6032 0.888605 50.1648 0.88947 49.7264C0.890024 49.2532 0.888558 48.78 0.887358 48.3067C0.885343 47.3801 0.885245 46.4534 0.885859 45.5267C0.886333 44.7734 0.886164 44.0202 0.885538 43.2669C0.88545 43.1596 0.885361 43.0524 0.885271 42.9419C0.885092 42.724 0.884912 42.5062 0.884731 42.2883C0.883122 40.2455 0.88376 38.2027 0.885105 36.1598C0.886269 34.2915 0.884751 32.4232 0.881947 30.5548C0.879089 28.6358 0.877963 26.7169 0.878743 24.7979C0.879152 23.7207 0.87889 22.6436 0.876838 21.5665C0.875113 20.6495 0.875039 19.7325 0.877081 18.8155C0.878079 18.3478 0.878329 17.8802 0.876536 17.4125C0.874913 16.9839 0.875472 16.5555 0.877736 16.1269C0.878384 15.8993 0.87674 15.6717 0.875 15.444C0.884502 14.3145 1.09772 13.4937 1.8912 12.6623C1.98383 12.5643 2.07646 12.4662 2.1719 12.3652C2.3148 12.219 2.3148 12.219 2.46058 12.0699C2.55073 11.9767 2.64088 11.8835 2.73376 11.7875C3.02109 11.4935 3.31107 11.2022 3.60187 10.9116C3.71063 10.8025 3.81938 10.6933 3.93143 10.5809C4.22603 10.2852 4.52099 9.98997 4.81607 9.69482C5.00088 9.50992 5.18561 9.32494 5.37032 9.13993C6.01593 8.49324 6.66184 7.84684 7.30804 7.20074C7.90869 6.60016 8.50868 5.99893 9.10837 5.39739C9.62539 4.87883 10.1429 4.36073 10.6607 3.84297C10.9691 3.53462 11.2773 3.22609 11.585 2.91711C11.9276 2.57316 12.2712 2.23016 12.6148 1.88724C12.7158 1.78557 12.8168 1.6839 12.9209 1.57915C13.9332 0.572116 14.7237 0.0796667 16.1783 0.086235ZM15.9371 1.99179C15.9361 2.18906 15.9361 2.18906 15.9351 2.39033C15.9283 3.63172 15.9198 4.8731 15.9095 6.11447C15.9043 6.75263 15.8997 7.39078 15.8965 8.02894C15.8935 8.64519 15.8888 9.26139 15.8829 9.87762C15.8809 10.1123 15.8796 10.3471 15.8788 10.5818C15.8777 10.9114 15.8744 11.2409 15.8706 11.5705C15.8709 11.715 15.8709 11.715 15.8711 11.8624C15.8561 12.7917 15.5973 13.5413 14.9621 14.2333C14.2072 14.925 13.4411 15.0168 12.4548 15.0237C12.3519 15.0248 12.2489 15.026 12.1429 15.0272C11.803 15.0309 11.4632 15.0338 11.1233 15.0367C10.8875 15.0391 10.6517 15.0415 10.4159 15.0441C9.79558 15.0505 9.17524 15.0563 8.55489 15.062C7.92177 15.0679 7.28865 15.0744 6.65553 15.0808C5.41347 15.0934 4.1714 15.1053 2.92933 15.1168C2.91861 19.8821 2.91035 24.6474 2.9054 29.4127C2.90481 29.9751 2.9042 30.5375 2.90358 31.0999C2.90346 31.2119 2.90334 31.3238 2.90321 31.4392C2.90117 33.2529 2.89747 35.0666 2.89317 36.8802C2.88879 38.7408 2.88618 40.6013 2.88523 42.4619C2.88459 43.6103 2.88255 44.7586 2.87875 45.907C2.87627 46.6941 2.87552 47.4812 2.87613 48.2683C2.87643 48.7227 2.87596 49.177 2.87345 49.6314C2.87076 50.1238 2.87168 50.6162 2.87296 51.1086C2.8716 51.2524 2.87023 51.3963 2.86883 51.5445C2.8712 52.5214 2.8712 52.5214 3.39808 53.3199C4.04347 53.8032 4.78889 53.7205 5.56019 53.7161C5.78287 53.7169 5.78286 53.7169 6.01004 53.7178C6.4213 53.7192 6.83254 53.7185 7.2438 53.7174C7.68763 53.7166 8.13146 53.7179 8.57529 53.7188C9.44445 53.7204 10.3136 53.7201 11.1827 53.719C11.8891 53.7182 12.5955 53.7181 13.3018 53.7185C13.4024 53.7186 13.5029 53.7186 13.6065 53.7187C13.8107 53.7188 14.0149 53.7189 14.2191 53.719C16.1341 53.72 18.0491 53.7189 19.9641 53.717C21.6074 53.7154 23.2506 53.7157 24.8939 53.7173C26.802 53.7192 28.7102 53.7199 30.6183 53.7188C30.8218 53.7187 31.0252 53.7186 31.2287 53.7185C31.3789 53.7184 31.3789 53.7184 31.5321 53.7184C32.2376 53.718 32.9431 53.7186 33.6487 53.7194C34.5084 53.7204 35.3682 53.7201 36.228 53.7182C36.6667 53.7173 37.1054 53.7169 37.5441 53.7181C38.0195 53.7194 38.4949 53.7179 38.9704 53.7161C39.1092 53.7169 39.248 53.7177 39.391 53.7185C40.0552 53.7137 40.5661 53.7097 41.1325 53.3199C41.7066 52.7147 41.7333 52.265 41.7298 51.4504C41.7297 51.373 41.7295 51.2957 41.7293 51.2159C41.7287 50.97 41.7272 50.7241 41.7257 50.4781C41.7251 50.3109 41.7246 50.1436 41.7241 49.9764C41.7228 49.5675 41.7208 49.1585 41.7184 48.7496C41.6555 48.7726 41.5926 48.7956 41.5278 48.8193C37.9248 50.1211 34.2957 50.4042 30.7028 48.8668C30.4676 48.7388 30.2398 48.602 30.0109 48.4633C28.8564 47.7768 27.9019 47.663 26.5808 47.6853C26.3761 47.6848 26.1714 47.6839 25.9668 47.6825C25.4176 47.6801 24.8687 47.6841 24.3196 47.6892C23.7425 47.6934 23.1655 47.6914 22.5883 47.69C21.4977 47.6883 20.4071 47.6917 19.3165 47.6972C17.7139 47.705 16.1114 47.7057 14.5089 47.7057C14.3323 47.7057 14.3323 47.7057 14.1522 47.7057C13.9175 47.7057 13.6829 47.7056 13.4482 47.7056C12.7625 47.7057 12.0768 47.7075 11.391 47.7108C10.9653 47.7127 10.5395 47.7137 10.1138 47.7146C9.91658 47.7152 9.71939 47.7162 9.52221 47.7177C9.25289 47.7197 8.98359 47.7202 8.71426 47.7204C8.56367 47.7212 8.41308 47.7219 8.25793 47.7226C7.84588 47.6945 7.52726 47.6225 7.14808 47.4605C6.96553 47.0954 6.96471 46.6866 7.0309 46.2887C7.16167 46.1013 7.16167 46.1013 7.38246 45.9371C7.72037 45.892 7.72037 45.892 8.14101 45.8904C8.21835 45.8896 8.2957 45.8888 8.37539 45.888C8.63505 45.8858 8.89465 45.8861 9.15432 45.8864C9.34025 45.8854 9.52619 45.8842 9.71212 45.8828C10.2174 45.8796 10.7227 45.8785 11.2279 45.8778C11.7558 45.8767 12.2836 45.8736 12.8115 45.8708C13.8113 45.8656 14.8111 45.8623 15.8109 45.8596C16.949 45.8564 18.0872 45.8513 19.2253 45.846C21.5667 45.8351 23.9082 45.8267 26.2496 45.8199C25.8474 45.2141 25.4308 44.6201 25.0091 44.0278C24.767 43.6716 24.5618 43.3004 24.357 42.9217C24.2943 42.8059 24.2316 42.6902 24.1669 42.571C24.1195 42.483 24.072 42.395 24.0231 42.3043C23.8949 42.3039 23.8949 42.3039 23.7642 42.3034C21.6869 42.2965 19.6096 42.2877 17.5323 42.2767C16.5277 42.2714 15.5232 42.2668 14.5186 42.2637C13.6432 42.261 12.7678 42.2571 11.8924 42.2517C11.4287 42.2489 10.9651 42.2467 10.5014 42.246C10.0652 42.2453 9.62901 42.2429 9.19281 42.2393C8.95596 42.2378 8.71909 42.238 8.48223 42.2383C8.34173 42.2368 8.20123 42.2353 8.05648 42.2338C7.93409 42.2333 7.8117 42.2327 7.6856 42.2322C7.38246 42.1871 7.38246 42.1871 7.16747 42.0226C6.99721 41.7894 6.98369 41.6535 6.98695 41.3668C6.98604 41.287 6.98514 41.2073 6.9842 41.1251C7.04624 40.8234 7.13912 40.7341 7.38246 40.5465C7.67462 40.5014 7.67462 40.5014 8.02978 40.4997C8.16437 40.4983 8.29895 40.4968 8.43761 40.4953C8.58538 40.4955 8.73314 40.4956 8.88538 40.4958C9.04245 40.4947 9.19952 40.4935 9.35659 40.4922C9.78318 40.4889 10.2097 40.4879 10.6363 40.4872C11.0821 40.4861 11.5278 40.483 11.9736 40.4801C12.8177 40.475 13.6619 40.4717 14.5061 40.469C15.4671 40.4658 16.4281 40.4606 17.3891 40.4553C19.366 40.4444 21.343 40.436 23.32 40.4293C23.295 40.2957 23.2701 40.1622 23.2444 40.0246C23.2118 39.8458 23.1792 39.6671 23.1466 39.4884C23.1219 39.357 23.1219 39.357 23.0967 39.2229C22.9451 38.3843 22.924 37.5758 22.9391 36.7232C22.9397 36.5826 22.9403 36.442 22.9409 36.2971C22.9501 35.2609 22.9501 35.2609 23.0271 34.8185C23.1241 34.1525 23.1025 33.4798 23.1022 32.8083C23.1028 32.5742 23.1035 32.3401 23.1041 32.106C23.1047 31.8556 23.1051 31.6053 23.1053 31.355C23.106 30.8325 23.108 30.31 23.1102 29.7875C23.1109 29.6083 23.1117 29.4292 23.1124 29.25C23.1128 29.1603 23.1132 29.0706 23.1135 28.9782C23.1185 27.7627 23.1223 26.5473 23.1238 25.3318C23.1248 24.5105 23.1274 23.6891 23.1319 22.8678C23.1342 22.4335 23.1357 21.9993 23.1351 21.5651C23.1344 21.0814 23.1374 20.5978 23.1407 20.1141C23.1399 19.9702 23.1391 19.8264 23.1383 19.6782C23.1405 19.4808 23.1405 19.4808 23.1427 19.2794C23.1432 19.108 23.1432 19.108 23.1436 18.933C23.2196 18.5467 23.368 18.4065 23.6715 18.1637C23.9338 18.1049 23.9338 18.1049 24.2229 18.1049C24.3316 18.1038 24.4403 18.1027 24.5524 18.1015C24.7272 18.1035 24.7272 18.1035 24.9057 18.1055C25.0261 18.1054 25.1466 18.1052 25.2707 18.105C25.5253 18.1052 25.7798 18.1066 26.0343 18.109C26.424 18.1124 26.8135 18.1114 27.2032 18.1099C27.4505 18.1106 27.6979 18.1116 27.9452 18.1128C28.0618 18.1125 28.1784 18.1122 28.2985 18.1118C28.4072 18.1133 28.5159 18.1148 28.628 18.1163C28.7233 18.1169 28.8187 18.1176 28.917 18.1182C29.2457 18.1752 29.4064 18.2881 29.6481 18.5152C29.7651 18.8662 29.7832 19.1098 29.7893 19.4768C29.7917 19.6012 29.794 19.7255 29.7964 19.8536C29.7984 19.9876 29.8003 20.1217 29.8023 20.2598C29.8048 20.3971 29.8072 20.5345 29.8097 20.676C29.8174 21.1154 29.8243 21.5548 29.8312 21.9942C29.8362 22.2918 29.8414 22.5895 29.8465 22.8871C29.8591 23.6173 29.871 24.3475 29.8825 25.0777C30.2704 24.9547 30.6478 24.8208 31.0209 24.6589C31.148 24.6037 31.275 24.5486 31.4059 24.4918C31.4063 24.3651 31.4067 24.2384 31.4072 24.1079C31.4115 22.9146 31.4183 21.7214 31.4274 20.5282C31.4321 19.9147 31.4358 19.3012 31.4377 18.6877C31.4394 18.0958 31.4435 17.5039 31.4491 16.912C31.4508 16.6861 31.4517 16.4601 31.4518 16.2342C31.4521 15.9179 31.4553 15.6018 31.4591 15.2856C31.4582 15.1451 31.4582 15.1451 31.4573 15.0018C31.465 14.5947 31.4913 14.3422 31.7262 14.0038C32.0332 13.8003 32.1903 13.7695 32.5558 13.7708C32.6673 13.7701 32.7787 13.7693 32.8935 13.7686C33.0131 13.7703 33.1326 13.772 33.2557 13.7737C33.3791 13.7738 33.5024 13.7739 33.6295 13.774C33.8901 13.7747 34.1506 13.7766 34.4111 13.7795C34.8106 13.7838 35.2099 13.7843 35.6093 13.7842C35.8624 13.7854 36.1154 13.7868 36.3685 13.7884C36.4883 13.7886 36.608 13.7889 36.7314 13.7891C36.8425 13.7906 36.9536 13.7921 37.068 13.7937C37.2146 13.795 37.2146 13.795 37.3642 13.7964C37.6168 13.8277 37.6168 13.8277 37.9684 14.0621C38.1093 14.4848 38.1062 14.8739 38.1096 15.3142C38.1108 15.4057 38.112 15.4971 38.1132 15.5914C38.1169 15.8939 38.1198 16.1963 38.1227 16.4988C38.1251 16.7085 38.1275 16.9181 38.13 17.1278C38.1365 17.6798 38.1423 18.2317 38.148 18.7837C38.1538 19.3469 38.1604 19.9101 38.1668 20.4733C38.1794 21.5784 38.1913 22.6835 38.2028 23.7887C38.6349 23.9206 39.067 24.0524 39.4992 24.1842C39.6208 24.2213 39.7425 24.2585 39.8679 24.2968C39.9868 24.333 40.1058 24.3693 40.2284 24.4066C40.337 24.4398 40.4456 24.4729 40.5575 24.5071C40.9435 24.6226 41.3309 24.7329 41.7184 24.8433C41.7266 22.0614 41.7328 19.2794 41.7366 16.4975C41.7384 15.2058 41.7409 13.9141 41.7449 12.6223C41.7484 11.4965 41.7507 10.3706 41.7515 9.24471C41.7519 8.64859 41.753 8.05247 41.7556 7.45635C41.758 6.89511 41.7587 6.33388 41.7582 5.77263C41.7583 5.56681 41.759 5.36098 41.7603 5.15516C41.7621 4.87369 41.7616 4.5923 41.7607 4.31083C41.7617 4.22978 41.7627 4.14872 41.7638 4.06521C41.7584 3.47968 41.6345 3.08838 41.3668 2.57772C40.6481 1.98398 39.9907 1.97436 39.0908 1.97769C38.9918 1.97759 38.8927 1.97749 38.7906 1.97739C38.4588 1.9772 38.127 1.97784 37.7952 1.97848C37.5573 1.97851 37.3194 1.9785 37.0815 1.97843C36.4355 1.9784 35.7896 1.97909 35.1437 1.9799C34.4686 1.98064 33.7936 1.9807 33.1186 1.98084C31.8403 1.98121 30.562 1.98217 29.2838 1.98335C27.8285 1.98465 26.3732 1.9853 24.918 1.98589C21.9244 1.98711 18.9307 1.98917 15.9371 1.99179ZM13.4578 3.98753C13.3392 4.1056 13.3392 4.1056 13.2182 4.22606C13.131 4.31354 13.0438 4.40102 12.9539 4.49115C12.8167 4.62802 12.8167 4.62802 12.6767 4.76767C12.3727 5.07117 12.0691 5.37511 11.7655 5.67907C11.5555 5.889 11.3455 6.09891 11.1355 6.3088C10.6946 6.74948 10.254 7.19036 9.8135 7.63141C9.30348 8.14206 8.79304 8.65229 8.28238 9.1623C7.79213 9.65197 7.3022 10.142 6.81241 10.6321C6.6035 10.8411 6.39449 11.05 6.1854 11.2588C5.89382 11.5501 5.60261 11.8418 5.31151 12.1335C5.22403 12.2208 5.13655 12.308 5.04642 12.3979C4.9677 12.4769 4.88899 12.556 4.80789 12.6374C4.73891 12.7064 4.66993 12.7755 4.59886 12.8466C4.43964 12.9857 4.43964 12.9857 4.45277 13.1246C5.57129 13.1382 6.68977 13.1486 7.80836 13.155C8.32779 13.158 8.84717 13.1622 9.36658 13.1688C9.86807 13.1752 10.3695 13.1787 10.871 13.1802C11.0621 13.1813 11.2532 13.1834 11.4443 13.1865C11.7125 13.1908 11.9805 13.1914 12.2488 13.1911C12.4013 13.1924 12.5538 13.1937 12.7109 13.1951C13.2544 13.1025 13.4411 12.9245 13.8278 12.5387C14.0027 12.1888 13.9589 11.8719 13.9583 11.4816C13.9583 11.397 13.9583 11.3124 13.9583 11.2252C13.9582 10.9449 13.9573 10.6647 13.9564 10.3844C13.9562 10.1903 13.956 9.99624 13.9559 9.80215C13.9555 9.29085 13.9543 8.77954 13.953 8.26824C13.9518 7.74668 13.9513 7.22511 13.9507 6.70355C13.9494 5.67983 13.9474 4.65612 13.945 3.63241C13.7306 3.63241 13.6016 3.84377 13.4578 3.98753ZM33.3981 15.7027C33.3981 18.4098 33.3981 21.1168 33.3981 23.9058C34.7903 23.7898 34.7903 23.7898 36.2106 23.6715C36.2106 21.0418 36.2106 18.4121 36.2106 15.7027C35.2825 15.7027 34.3543 15.7027 33.3981 15.7027ZM25.0778 20.0387C25.0778 23.0937 25.0778 26.1488 25.0778 29.2965C25.4179 28.9564 25.7312 28.6411 26.0372 28.2784C27.364 26.7471 27.364 26.7471 27.8903 26.484C27.8903 24.357 27.8903 22.2301 27.8903 20.0387C26.9621 20.0387 26.034 20.0387 25.0778 20.0387ZM27.4874 29.4823C25.2928 32.0198 24.6344 35.0308 24.8434 38.3199C25.196 41.2468 26.8735 43.9189 29.1479 45.7488C31.5077 47.5358 34.4659 48.347 37.4067 47.9911C39.521 47.6915 41.4917 46.8518 43.1246 45.4683C43.2697 45.3469 43.2697 45.3469 43.4176 45.223C45.3243 43.5721 46.7273 41.1899 47.109 38.6715C47.1219 38.5923 47.1347 38.5132 47.1479 38.4316C47.5422 35.5511 46.7966 32.5864 45.1022 30.2266C43.1671 27.7709 40.6425 26.1291 37.4996 25.6637C33.4864 25.4098 30.27 26.5303 27.4874 29.4823ZM45.5856 45.8199C45.3874 46.0519 45.192 46.2863 44.9996 46.523C45.2703 46.7937 45.541 47.0644 45.82 47.3433C46.3163 47.0968 46.3163 47.0968 46.5231 46.6402C46.3892 46.5032 46.2548 46.3665 46.1203 46.2301C46.0081 46.1159 46.0081 46.1159 45.8937 45.9994C45.7322 45.8065 45.7322 45.8065 45.5856 45.8199ZM48.7496 47.4605C48.0536 48.1566 47.3575 48.8527 46.6403 49.5699C46.8723 49.8406 47.1043 50.1113 47.3434 50.3902C47.6977 50.4274 47.6977 50.4274 47.9177 50.2073C48.0402 50.0822 48.0402 50.0821 48.1651 49.9544C48.2538 49.8645 48.3426 49.7747 48.434 49.6821C48.5261 49.587 48.6182 49.492 48.713 49.3941C48.8065 49.2991 48.8999 49.2041 48.9962 49.1062C49.2273 48.8709 49.4576 48.6348 49.6871 48.398C49.5753 48.2634 49.4629 48.1292 49.3502 47.9952C49.2877 47.9204 49.2252 47.8456 49.1607 47.7686C48.9931 47.5651 48.9931 47.5651 48.7496 47.4605ZM50.8865 49.9979C50.7987 50.0863 50.7109 50.1747 50.6205 50.2657C50.5257 50.3609 50.4309 50.456 50.3333 50.5541C50.2337 50.6547 50.134 50.7553 50.0314 50.859C49.9313 50.9596 49.8312 51.0602 49.7281 51.1638C49.4798 51.4135 49.2318 51.6635 48.984 51.9137C49.5686 52.6191 50.2016 53.2654 50.8499 53.9123C50.9613 54.0238 51.0727 54.1353 51.1841 54.2468C51.416 54.4789 51.648 54.7107 51.8802 54.9423C52.178 55.2394 52.4753 55.5371 52.7724 55.8349C53.0015 56.0645 53.231 56.2938 53.4606 56.5231C53.6237 56.6861 53.7865 56.8493 53.9494 57.0125C54.048 57.1107 54.1466 57.209 54.2482 57.3102C54.3351 57.397 54.4219 57.4837 54.5115 57.5732C54.918 57.9515 55.2886 57.9425 55.8258 57.9401C56.329 57.8582 56.6305 57.5675 56.9528 57.1871C57.0899 56.9129 57.1096 56.7166 57.1286 56.4107C57.1412 56.2671 57.1412 56.2671 57.1542 56.1205C56.9164 55.1618 55.7491 54.3257 55.0714 53.6495C54.9598 53.5379 54.8483 53.4262 54.7368 53.3146C54.5051 53.0828 54.2733 52.8512 54.0413 52.6197C53.7434 52.3225 53.446 52.0247 53.1487 51.7267C52.9195 51.4971 52.6901 51.2678 52.4605 51.0385C52.2972 50.8754 52.1342 50.7119 51.9711 50.5485C51.8729 50.4507 51.7746 50.3528 51.6734 50.252C51.5867 50.1653 51.4999 50.0786 51.4105 49.9893C51.1486 49.7399 51.1486 49.7399 50.8865 49.9979Z" fill="#BD8318"/>
<path d="M42.2174 28.8133C42.4049 28.9721 42.5905 29.1332 42.774 29.2967C42.9054 29.4116 42.9054 29.4116 43.0395 29.5288C44.8562 31.2216 45.9825 33.648 46.0882 36.1261C46.1631 39.1546 45.2441 41.7751 43.17 44.0124C41.4013 45.8418 38.8698 46.8413 36.358 46.914C33.398 46.956 30.886 45.9514 28.7335 43.9159C26.8139 41.9143 25.8499 39.257 25.8816 36.5019C26.0042 33.6251 27.1869 31.2045 29.2535 29.2235C32.8895 26.0828 38.3894 25.8465 42.2174 28.8133ZM29.9429 31.4194C28.5826 32.9852 27.7865 35.0772 27.8578 37.1634C28.0332 38.9296 28.5499 40.4394 29.649 41.8358C29.7517 41.9695 29.7517 41.9695 29.8564 42.1059C31.1062 43.6267 32.9822 44.6171 34.9225 44.8827C37.1558 45.0708 39.2822 44.5995 41.0547 43.1743C42.715 41.7555 43.8937 39.8105 44.0842 37.6072C44.2269 35.2934 43.5585 33.1314 42.021 31.3589C40.4103 29.7336 38.3992 28.7594 36.0943 28.6815C33.7036 28.711 31.581 29.709 29.9429 31.4194Z" fill="#BD8318"/>
<path d="M31.4868 7.14158C31.633 7.17111 31.7791 7.20064 31.9297 7.23107C32.0692 7.2606 32.2087 7.29013 32.3524 7.32056C32.5402 7.35975 32.5402 7.35975 32.7318 7.39973C33.0701 7.50789 33.2063 7.55522 33.3984 7.85203C33.5768 8.52945 33.4632 8.99307 33.2359 9.62906C33.2057 9.71755 33.1754 9.80604 33.1442 9.89721C33.0801 10.0832 33.0152 10.269 32.9494 10.4544C32.8494 10.737 32.7526 11.0206 32.6562 11.3045C32.5933 11.4858 32.5302 11.6671 32.4669 11.8483C32.4382 11.9324 32.4095 12.0165 32.3799 12.1032C32.2027 12.5972 32.0059 12.9806 31.6406 13.3598C31.2149 13.5048 31.0263 13.5174 30.6152 13.3305C30.3516 13.1255 30.3516 13.1255 30.1172 12.7739C30.1076 12.5418 30.1076 12.5418 30.1392 12.2832C30.1525 12.1574 30.1525 12.1574 30.1662 12.0291C30.262 11.5939 30.4234 11.1966 30.5859 10.7817C28.899 11.7186 27.2222 12.6698 25.5574 13.6455C24.8185 14.0784 24.077 14.5069 23.335 14.9345C23.2084 15.0075 23.0818 15.0805 22.9514 15.1556C22.6948 15.3035 22.4381 15.4513 22.1815 15.5992C21.5453 15.9657 20.9094 16.3327 20.2734 16.6997C20.0195 16.8462 19.7656 16.9927 19.5117 17.1391C19.386 17.2116 19.2604 17.2842 19.1309 17.3589C18.75 17.5786 18.3691 17.7983 17.9883 18.018C17.8625 18.0906 17.7368 18.1631 17.6073 18.2379C17.3539 18.3841 17.1004 18.5303 16.847 18.6764C16.0746 19.122 15.3023 19.5678 14.5302 20.0139C14.2745 20.1614 14.0187 20.3088 13.7628 20.4559C13.1538 20.806 12.5465 21.1584 11.9426 21.5172C11.7744 21.6161 11.7744 21.6161 11.6028 21.7169C11.3935 21.84 11.1849 21.9643 10.977 22.0899C10.4688 22.387 10.0996 22.5982 9.49219 22.5005C9.09183 22.2691 8.93875 22.1272 8.78906 21.6875C8.78906 21.2317 8.84416 21.0914 9.14062 20.7427C9.82353 20.1818 10.6405 19.7865 11.4123 19.3627C12.1659 18.948 12.9102 18.5187 13.6523 18.084C14.6417 17.5046 15.6326 16.9279 16.626 16.3554C16.7525 16.2825 16.879 16.2096 17.0094 16.1345C17.266 15.9866 17.5227 15.8387 17.7794 15.6908C18.4156 15.3243 19.0515 14.9573 19.6875 14.5903C19.9414 14.4438 20.1953 14.2973 20.4492 14.1509C20.5749 14.0783 20.7006 14.0058 20.8301 13.9311C21.9727 13.2719 21.9727 13.2719 22.3538 13.0521C22.6068 12.9061 22.8599 12.7601 23.1129 12.6141C23.7607 12.2403 24.4085 11.8667 25.0566 11.4935C26.2008 10.8345 27.3449 10.1753 28.4839 9.5073C28.5662 9.45914 28.6486 9.41098 28.7334 9.36136C29.0944 9.16219 29.0944 9.16219 29.4141 8.90671C29.2912 8.87967 29.1684 8.85263 29.0419 8.82477C28.8803 8.78629 28.7187 8.74768 28.5571 8.70896C28.4762 8.69151 28.3953 8.67406 28.312 8.65609C27.9089 8.55678 27.69 8.47902 27.4232 8.15461C27.2592 7.7359 27.3102 7.46255 27.4219 7.03171C28.1687 6.0133 30.4581 6.92306 31.4868 7.14158Z" fill="#BD8318"/>
<path d="M16.0771 22.3638C16.1757 22.3627 16.2742 22.3615 16.3758 22.3604C16.5351 22.3596 16.5351 22.3596 16.6977 22.3589C16.8073 22.3582 16.917 22.3575 17.03 22.3569C17.2622 22.3557 17.4944 22.355 17.7266 22.3545C18.0807 22.3534 18.4348 22.3498 18.7889 22.3461C19.0147 22.3453 19.2405 22.3447 19.4662 22.3442C19.6244 22.3421 19.6244 22.3421 19.7859 22.3398C20.3869 22.342 20.8095 22.394 21.3279 22.7342C21.4685 23.0154 21.4608 23.1913 21.4624 23.5053C21.4632 23.6183 21.464 23.7313 21.4649 23.8478C21.4652 23.9722 21.4655 24.0967 21.4659 24.2249C21.467 24.421 21.467 24.421 21.4682 24.621C21.4705 25.055 21.4719 25.489 21.473 25.923C21.4735 26.0709 21.474 26.2188 21.4745 26.3711C21.4767 27.0728 21.4784 27.7745 21.4794 28.4761C21.4805 29.2863 21.4836 30.0965 21.4883 30.9067C21.4923 31.6082 21.4937 32.3097 21.4942 33.0113C21.4947 33.3099 21.4961 33.6084 21.4983 33.907C21.5011 34.3242 21.501 34.7413 21.5002 35.1586C21.5017 35.2825 21.5032 35.4065 21.5047 35.5342C21.4988 36.3625 21.4988 36.3625 21.2431 36.7562C20.9357 36.938 20.7593 36.9733 20.4035 36.9746C20.2901 36.9761 20.1767 36.9775 20.0598 36.9791C19.9381 36.9781 19.8164 36.9772 19.691 36.9762C19.5025 36.9769 19.5025 36.9769 19.3101 36.9775C19.0446 36.9779 18.779 36.977 18.5134 36.975C18.1068 36.9725 17.7003 36.975 17.2937 36.978C17.0356 36.9777 16.7776 36.9771 16.5196 36.9762C16.337 36.9776 16.337 36.9776 16.1508 36.9791C16.0373 36.9776 15.9239 36.9761 15.8071 36.9746C15.6577 36.974 15.6577 36.974 15.5054 36.9735C15.1054 36.8857 14.9912 36.7919 14.7654 36.4452C14.695 36.0179 14.7015 35.5945 14.7048 35.1623C14.704 35.0315 14.7031 34.9008 14.7023 34.7661C14.7002 34.3333 14.7016 33.9006 14.7032 33.4679C14.7029 33.1675 14.7024 32.8672 14.7018 32.5668C14.7011 31.9371 14.7021 31.3075 14.7043 30.6778C14.7069 29.95 14.706 29.2224 14.7035 28.4946C14.7011 27.7942 14.7013 27.0938 14.7027 26.3934C14.703 26.0955 14.7026 25.7976 14.7015 25.4997C14.7004 25.0836 14.7022 24.6676 14.7048 24.2515C14.7038 24.1279 14.7029 24.0043 14.7019 23.877C14.7116 23.0451 14.7116 23.0451 14.9816 22.6614C15.3505 22.4255 15.6489 22.3678 16.0771 22.3638ZM16.7576 24.3749C16.7576 27.8553 16.7576 31.3358 16.7576 34.9217C17.6471 34.9217 18.5365 34.9217 19.4529 34.9217C19.4529 31.4413 19.4529 27.9608 19.4529 24.3749C18.5635 24.3749 17.674 24.3749 16.7576 24.3749Z" fill="#BD8318"/>
<path d="M7.46085 26.8002C7.57155 26.7983 7.68225 26.7964 7.7963 26.7945C7.97538 26.7935 7.97538 26.7935 8.15808 26.7926C8.28105 26.7915 8.40401 26.7905 8.5307 26.7894C8.79096 26.7877 9.05122 26.7866 9.31147 26.7862C9.70941 26.7848 10.1071 26.779 10.505 26.7731C10.7579 26.772 11.0107 26.7712 11.2635 26.7706C11.3825 26.7683 11.5014 26.766 11.6239 26.7637C11.7353 26.7644 11.8468 26.7651 11.9616 26.7658C12.0591 26.7652 12.1567 26.7646 12.2572 26.764C12.6873 26.874 12.8588 27.0721 13.1248 27.422C13.1824 27.7425 13.2041 27.9899 13.1988 28.3094C13.1996 28.3968 13.2005 28.4841 13.2013 28.5741C13.2033 28.8617 13.201 29.149 13.1985 29.4366C13.1986 29.637 13.1989 29.8373 13.1994 30.0377C13.1997 30.457 13.198 30.8763 13.1948 31.2957C13.1908 31.8331 13.1915 32.3704 13.1937 32.9078C13.1949 33.3213 13.1939 33.7347 13.1921 34.1482C13.1915 34.3464 13.1916 34.5445 13.1923 34.7427C13.1929 35.0196 13.1905 35.2963 13.1873 35.5732C13.1881 35.655 13.1889 35.7367 13.1896 35.821C13.1821 36.2023 13.1452 36.4167 12.9223 36.7305C12.6128 36.9441 12.4562 36.9734 12.0832 36.9748C11.9698 36.9763 11.8563 36.9778 11.7395 36.9793C11.6178 36.9784 11.4961 36.9774 11.3707 36.9764C11.1821 36.9771 11.1821 36.9771 10.9898 36.9778C10.7243 36.9781 10.4587 36.9773 10.1931 36.9753C9.78645 36.9728 9.38002 36.9753 8.97336 36.9783C8.71533 36.978 8.4573 36.9774 8.19928 36.9764C8.01671 36.9779 8.01671 36.9779 7.83045 36.9793C6.9909 36.9684 6.9909 36.9684 6.60649 36.6979C6.30565 36.2272 6.31258 35.8355 6.31092 35.2887C6.31053 35.2073 6.31013 35.1259 6.30973 35.042C6.30861 34.7728 6.30838 34.5036 6.30826 34.2344C6.30788 34.0472 6.30749 33.8599 6.30708 33.6727C6.30637 33.28 6.30616 32.8873 6.30623 32.4947C6.30624 31.992 6.30464 31.4893 6.30262 30.9866C6.30132 30.5998 6.30108 30.2129 6.30114 29.8261C6.301 29.6408 6.30049 29.4555 6.29958 29.2702C6.29843 29.0107 6.29877 28.7513 6.29947 28.4919C6.29931 28.3443 6.29914 28.1968 6.29897 28.0448C6.32751 27.6622 6.38127 27.407 6.56232 27.0704C6.93465 26.8222 7.03336 26.8056 7.46085 26.8002ZM8.32013 28.8283C8.32013 30.8392 8.32013 32.8501 8.32013 34.922C9.24825 34.922 10.1764 34.922 11.1326 34.922C11.1326 32.9111 11.1326 30.9001 11.1326 28.8283C10.2045 28.8283 9.27638 28.8283 8.32013 28.8283Z" fill="#BD8318"/>
</g>
<defs>
<clipPath id="clip0_393_3750">
<rect width="60" height="60" fill="white"/>
</clipPath>
</defs>
</svg>
