<svg width="66" height="66" viewBox="0 0 66 66" fill="none" xmlns="http://www.w3.org/2000/svg">
<circle cx="33" cy="33" r="32" fill="white" stroke="#BD8318" stroke-width="2"/>
<path d="M32.9997 33C33.733 33 34.3608 32.7389 34.883 32.2167C35.4052 31.6944 35.6663 31.0667 35.6663 30.3333C35.6663 29.6 35.4052 28.9722 34.883 28.45C34.3608 27.9278 33.733 27.6667 32.9997 27.6667C32.2663 27.6667 31.6386 27.9278 31.1163 28.45C30.5941 28.9722 30.333 29.6 30.333 30.3333C30.333 31.0667 30.5941 31.6944 31.1163 32.2167C31.6386 32.7389 32.2663 33 32.9997 33ZM32.9997 42.8C35.7108 40.3111 37.7219 38.05 39.033 36.0167C40.3441 33.9833 40.9997 32.1778 40.9997 30.6C40.9997 28.1778 40.2275 26.1944 38.683 24.65C37.1386 23.1056 35.2441 22.3333 32.9997 22.3333C30.7552 22.3333 28.8608 23.1056 27.3163 24.65C25.7719 26.1944 24.9997 28.1778 24.9997 30.6C24.9997 32.1778 25.6552 33.9833 26.9663 36.0167C28.2775 38.05 30.2886 40.3111 32.9997 42.8ZM32.9997 46.3333C29.4219 43.2889 26.7497 40.4611 24.983 37.85C23.2163 35.2389 22.333 32.8222 22.333 30.6C22.333 27.2667 23.4052 24.6111 25.5497 22.6333C27.6941 20.6556 30.1775 19.6667 32.9997 19.6667C35.8219 19.6667 38.3052 20.6556 40.4497 22.6333C42.5941 24.6111 43.6663 27.2667 43.6663 30.6C43.6663 32.8222 42.783 35.2389 41.0163 37.85C39.2497 40.4611 36.5775 43.2889 32.9997 46.3333Z" fill="#BD8318"/>
</svg>
