<svg width="66" height="66" viewBox="0 0 66 66" fill="none" xmlns="http://www.w3.org/2000/svg">
<circle cx="33" cy="33" r="32" fill="white" stroke="#BD8318" stroke-width="2"/>
<path d="M42.9217 44.3333C40.4089 44.3333 37.8846 43.7491 35.3487 42.5807C32.8128 41.4123 30.4829 39.7641 28.359 37.6359C26.2351 35.5077 24.5889 33.1778 23.4205 30.6462C22.2522 28.1145 21.668 25.5923 21.668 23.0795C21.668 22.6759 21.8013 22.3395 22.068 22.0704C22.3346 21.8012 22.668 21.6667 23.068 21.6667H27.4166C27.7534 21.6667 28.0504 21.7765 28.3077 21.9962C28.5649 22.2159 28.7286 22.4872 28.7987 22.8103L29.5628 26.7333C29.6158 27.0974 29.6047 27.4103 29.5294 27.6718C29.4542 27.9333 29.3192 28.153 29.1243 28.3308L26.0448 31.3282C26.5406 32.2359 27.1068 33.0944 27.7436 33.9038C28.3803 34.7132 29.0696 35.4863 29.8115 36.2231C30.5431 36.9547 31.3209 37.6342 32.1449 38.2616C32.9688 38.8889 33.8585 39.4727 34.8141 40.0128L37.8064 36.9949C38.015 36.7778 38.2675 36.6257 38.5641 36.5385C38.8607 36.4513 39.1688 36.4299 39.4885 36.4744L43.191 37.2282C43.5277 37.3171 43.8025 37.4889 44.0153 37.7436C44.2282 37.9983 44.3346 38.2872 44.3346 38.6103V42.9333C44.3346 43.3333 44.2 43.6666 43.9309 43.9333C43.6618 44.2 43.3254 44.3333 42.9217 44.3333ZM25.0987 29.4359L27.4782 27.159C27.5209 27.1248 27.5487 27.0778 27.5615 27.018C27.5744 26.9581 27.5722 26.9026 27.5551 26.8513L26.9756 23.8718C26.9585 23.8034 26.9286 23.7521 26.8859 23.718C26.8432 23.6838 26.7876 23.6667 26.7192 23.6667H23.8679C23.8167 23.6667 23.7739 23.6838 23.7397 23.718C23.7055 23.7521 23.6884 23.7949 23.6884 23.8462C23.7568 24.7573 23.906 25.6829 24.1359 26.6231C24.3658 27.5633 24.6867 28.5009 25.0987 29.4359ZM36.6987 40.959C37.5824 41.3709 38.5042 41.6859 39.4641 41.9039C40.4239 42.1218 41.3209 42.2513 42.1551 42.2923C42.2064 42.2923 42.2491 42.2752 42.2833 42.241C42.3175 42.2068 42.3346 42.1641 42.3346 42.1128V39.3077C42.3346 39.2393 42.3175 39.1837 42.2833 39.141C42.2491 39.0983 42.1978 39.0683 42.1295 39.0513L39.3295 38.482C39.2782 38.4649 39.2333 38.4628 39.1949 38.4756C39.1564 38.4884 39.1158 38.5162 39.0731 38.559L36.6987 40.959Z" fill="#BD8318"/>
</svg>
