<svg width="66" height="66" viewBox="0 0 66 66" fill="none" xmlns="http://www.w3.org/2000/svg">
<circle cx="33" cy="33" r="32" fill="white" stroke="#BD8318" stroke-width="2"/>
<path d="M32.9996 45.6666C31.2629 45.6666 29.624 45.3337 28.083 44.6679C26.542 44.0021 25.198 43.0957 24.0509 41.9487C22.9039 40.8017 21.9975 39.4577 21.3317 37.9166C20.6659 36.3756 20.333 34.7368 20.333 33C20.333 31.2496 20.6659 29.6073 21.3317 28.0731C21.9975 26.5389 22.9039 25.1983 24.0509 24.0513C25.198 22.9043 26.542 21.9979 28.083 21.3321C29.624 20.6663 31.2629 20.3334 32.9996 20.3334C34.7501 20.3334 36.3924 20.6663 37.9265 21.3321C39.4607 21.9979 40.8013 22.9043 41.9483 24.0513C43.0953 25.1983 44.0017 26.5389 44.6675 28.0731C45.3334 29.6073 45.6663 31.2496 45.6663 33C45.6663 34.7368 45.3334 36.3756 44.6675 37.9166C44.0017 39.4577 43.0953 40.8017 41.9483 41.9487C40.8013 43.0957 39.4607 44.0021 37.9265 44.6679C36.3924 45.3337 34.7501 45.6666 32.9996 45.6666ZM32.9996 43.6385C33.68 42.7359 34.2527 41.8256 34.7176 40.9077C35.1826 39.9897 35.5612 38.9863 35.8535 37.8974H30.1458C30.4552 39.0205 30.8381 40.041 31.2945 40.959C31.7509 41.8769 32.3193 42.7701 32.9996 43.6385ZM30.4176 43.2718C29.9065 42.5385 29.4476 41.7047 29.0407 40.7705C28.6339 39.8363 28.3176 38.8786 28.092 37.8974H23.5688C24.2731 39.2821 25.2176 40.4453 26.4022 41.3872C27.5869 42.3291 28.9253 42.9573 30.4176 43.2718ZM35.5816 43.2718C37.074 42.9573 38.4124 42.3291 39.5971 41.3872C40.7817 40.4453 41.7262 39.2821 42.4304 37.8974H37.9073C37.6389 38.8872 37.3013 39.8491 36.8945 40.7833C36.4876 41.7175 36.05 42.547 35.5816 43.2718ZM22.7304 35.8975H27.6868C27.6031 35.4017 27.5424 34.9158 27.5048 34.4398C27.4672 33.9637 27.4484 33.4838 27.4484 33C27.4484 32.5163 27.4672 32.0363 27.5048 31.5602C27.5424 31.0842 27.6031 30.5983 27.6868 30.1025H22.7304C22.6022 30.5555 22.5039 31.0265 22.4355 31.5154C22.3672 32.0043 22.333 32.4991 22.333 33C22.333 33.5009 22.3672 33.9958 22.4355 34.4846C22.5039 34.9735 22.6022 35.4445 22.7304 35.8975ZM29.6868 35.8975H36.3125C36.3962 35.4017 36.4569 34.9201 36.4945 34.4526C36.5321 33.9851 36.5509 33.5009 36.5509 33C36.5509 32.4991 36.5321 32.015 36.4945 31.5474C36.4569 31.0799 36.3962 30.5983 36.3125 30.1025H29.6868C29.6031 30.5983 29.5424 31.0799 29.5047 31.5474C29.4671 32.015 29.4483 32.4991 29.4483 33C29.4483 33.5009 29.4671 33.9851 29.5047 34.4526C29.5424 34.9201 29.6031 35.4017 29.6868 35.8975ZM38.3124 35.8975H43.2689C43.3971 35.4445 43.4954 34.9735 43.5637 34.4846C43.6321 33.9958 43.6663 33.5009 43.6663 33C43.6663 32.4991 43.6321 32.0043 43.5637 31.5154C43.4954 31.0265 43.3971 30.5555 43.2689 30.1025H38.3124C38.3962 30.5983 38.4569 31.0842 38.4945 31.5602C38.5321 32.0363 38.5509 32.5163 38.5509 33C38.5509 33.4838 38.5321 33.9637 38.4945 34.4398C38.4569 34.9158 38.3962 35.4017 38.3124 35.8975ZM37.9073 28.1026H42.4304C41.7176 26.7009 40.7796 25.5376 39.6163 24.6128C38.453 23.688 37.1082 23.0556 35.5816 22.7154C36.0928 23.4914 36.5475 24.3402 36.9457 25.2615C37.3441 26.1829 37.6646 27.1299 37.9073 28.1026ZM30.1458 28.1026H35.8535C35.5441 26.9881 35.1548 25.9611 34.6855 25.0218C34.2163 24.0825 33.6544 23.1957 32.9996 22.3615C32.3449 23.1957 31.783 24.0825 31.3137 25.0218C30.8445 25.9611 30.4552 26.9881 30.1458 28.1026ZM23.5688 28.1026H28.092C28.3347 27.1299 28.6552 26.1829 29.0535 25.2615C29.4518 24.3402 29.9065 23.4914 30.4176 22.7154C28.8826 23.0556 27.5356 23.6902 26.3766 24.6192C25.2176 25.5483 24.2817 26.7094 23.5688 28.1026Z" fill="#BD8318"/>
</svg>
