<svg width="66" height="66" viewBox="0 0 66 66" fill="none" xmlns="http://www.w3.org/2000/svg">
<circle cx="33" cy="33" r="32" fill="white" stroke="#BD8318" stroke-width="2"/>
<path d="M22.7443 42.9999C22.0707 42.9999 21.5007 42.7666 21.034 42.2999C20.5673 41.8333 20.334 41.2632 20.334 40.5897V25.4103C20.334 24.7368 20.5673 24.1667 21.034 23.7C21.5007 23.2333 22.0707 23 22.7443 23H43.257C43.9305 23 44.5006 23.2333 44.9673 23.7C45.4339 24.1667 45.6673 24.7368 45.6673 25.4103V40.5897C45.6673 41.2632 45.4339 41.8333 44.9673 42.2999C44.5006 42.7666 43.9305 42.9999 43.257 42.9999H22.7443ZM33.0006 33.7435L22.334 26.923V40.5897C22.334 40.7093 22.3724 40.8076 22.4494 40.8846C22.5263 40.9615 22.6246 41 22.7443 41H43.257C43.3767 41 43.475 40.9615 43.5519 40.8846C43.6288 40.8076 43.6673 40.7093 43.6673 40.5897V26.923L33.0006 33.7435ZM33.0006 31.6666L43.4622 25H22.5391L33.0006 31.6666ZM22.334 26.923V25V40.5897C22.334 40.7093 22.3724 40.8076 22.4494 40.8846C22.5263 40.9615 22.6246 41 22.7443 41H22.334V26.923Z" fill="#BD8318"/>
</svg>
