<svg width="32" height="32" viewBox="0 0 32 32" fill="none" xmlns="http://www.w3.org/2000/svg">
<path d="M25.9198 27.3331C23.407 27.3331 20.8826 26.7489 18.3467 25.5805C15.8109 24.4122 13.481 22.7639 11.357 20.6357C9.23312 18.5075 7.58696 16.1776 6.41858 13.646C5.2502 11.1143 4.66602 8.59214 4.66602 6.07934C4.66602 5.67567 4.79935 5.33928 5.06602 5.07017C5.33268 4.80106 5.66602 4.6665 6.06602 4.6665H10.4147C10.7514 4.6665 11.0484 4.77634 11.3057 4.996C11.563 5.21567 11.7266 5.48704 11.7967 5.81011L12.5608 9.73314C12.6138 10.0972 12.6027 10.4101 12.5275 10.6716C12.4523 10.9331 12.3172 11.1528 12.1223 11.3306L9.04288 14.328C9.53862 15.2357 10.1049 16.0942 10.7416 16.9036C11.3784 17.7131 12.0677 18.4861 12.8095 19.2229C13.5412 19.9545 14.319 20.634 15.1429 21.2614C15.9668 21.8887 16.8566 22.4725 17.8122 23.0126L20.8044 19.9947C21.013 19.7776 21.2656 19.6255 21.5621 19.5383C21.8587 19.4511 22.1668 19.4298 22.4865 19.4742L26.189 20.228C26.5258 20.3169 26.8006 20.4887 27.0134 20.7434C27.2262 20.9981 27.3326 21.287 27.3326 21.6101V25.9331C27.3326 26.3331 27.1981 26.6664 26.9289 26.9331C26.6598 27.1998 26.3235 27.3331 25.9198 27.3331ZM8.09675 12.4357L10.4762 10.1588C10.519 10.1246 10.5468 10.0776 10.5596 10.0178C10.5724 9.95793 10.5703 9.90237 10.5532 9.85111L9.97368 6.8716C9.95659 6.80323 9.92668 6.75195 9.88395 6.71777C9.84122 6.68357 9.78566 6.66647 9.71728 6.66647H6.86598C6.81472 6.66647 6.77198 6.68357 6.73778 6.71777C6.70358 6.75195 6.68648 6.79468 6.68648 6.84597C6.75486 7.75708 6.904 8.68273 7.13392 9.6229C7.36385 10.5631 7.68479 11.5007 8.09675 12.4357ZM19.6967 23.9588C20.5805 24.3708 21.5023 24.6857 22.4621 24.9037C23.422 25.1216 24.319 25.2511 25.1532 25.2921C25.2044 25.2921 25.2472 25.275 25.2813 25.2408C25.3155 25.2066 25.3327 25.1639 25.3327 25.1126V22.3075C25.3327 22.2391 25.3155 22.1836 25.2813 22.1408C25.2472 22.0981 25.1959 22.0682 25.1275 22.0511L22.3275 21.4818C22.2762 21.4648 22.2314 21.4626 22.1929 21.4754C22.1544 21.4883 22.1138 21.516 22.0711 21.5588L19.6967 23.9588Z" fill="#BD8318"/>
</svg>
