<svg width="32" height="32" viewBox="0 0 32 32" fill="none" xmlns="http://www.w3.org/2000/svg">
<path d="M5.74425 25.9999C5.07074 25.9999 4.50065 25.7666 4.03398 25.2999C3.56732 24.8333 3.33398 24.2632 3.33398 23.5897V8.41027C3.33398 7.73676 3.56732 7.16667 4.03398 6.7C4.50065 6.23333 5.07074 6 5.74425 6H26.257C26.9305 6 27.5006 6.23333 27.9673 6.7C28.4339 7.16667 28.6673 7.73676 28.6673 8.41027V23.5897C28.6673 24.2632 28.4339 24.8333 27.9673 25.2999C27.5006 25.7666 26.9305 25.9999 26.257 25.9999H5.74425ZM16.0006 16.7435L5.33395 9.923V23.5897C5.33395 23.7093 5.37242 23.8076 5.44935 23.8846C5.52628 23.9615 5.62458 24 5.74425 24H26.257C26.3767 24 26.475 23.9615 26.5519 23.8846C26.6288 23.8076 26.6673 23.7093 26.6673 23.5897V9.923L16.0006 16.7435ZM16.0006 14.6666L26.4622 7.99997H5.53908L16.0006 14.6666ZM5.33395 9.923V7.99997V23.5897C5.33395 23.7093 5.37242 23.8076 5.44935 23.8846C5.52628 23.9615 5.62458 24 5.74425 24H5.33395V9.923Z" fill="#BD8318"/>
</svg>
