<svg width="32" height="32" viewBox="0 0 32 32" fill="none" xmlns="http://www.w3.org/2000/svg">
<path d="M16.0019 15.8206C16.6653 15.8206 17.2325 15.5844 17.7034 15.112C18.1744 14.6395 18.4098 14.0716 18.4098 13.4081C18.4098 12.7447 18.1736 12.1775 17.7012 11.7066C17.2287 11.2356 16.6608 11.0002 15.9973 11.0002C15.3339 11.0002 14.7667 11.2364 14.2958 11.7088C13.8248 12.1813 13.5894 12.7492 13.5894 13.4127C13.5894 14.0761 13.8256 14.6433 14.298 15.1142C14.7705 15.5852 15.3384 15.8206 16.0019 15.8206ZM15.9996 26.0181C18.6081 23.6831 20.6043 21.4433 21.9881 19.2989C23.3718 17.1544 24.0637 15.2762 24.0637 13.6642C24.0637 11.2335 23.2915 9.23519 21.747 7.66936C20.2026 6.10354 18.2868 5.32063 15.9996 5.32063C13.7124 5.32063 11.7966 6.10354 10.2522 7.66936C8.70774 9.23519 7.93551 11.2335 7.93551 13.6642C7.93551 15.2762 8.62739 17.1544 10.0111 19.2989C11.3949 21.4433 13.3911 23.6831 15.9996 26.0181ZM15.9996 28.6796C12.6441 25.7719 10.1278 23.0659 8.45091 20.5617C6.774 18.0574 5.93555 15.7583 5.93555 13.6642C5.93555 10.5873 6.93085 8.09633 8.92145 6.1912C10.912 4.28606 13.2714 3.3335 15.9996 3.3335C18.7278 3.3335 21.0872 4.28606 23.0778 6.1912C25.0684 8.09633 26.0637 10.5873 26.0637 13.6642C26.0637 15.7583 25.2252 18.0574 23.5483 20.5617C21.8714 23.0659 19.3551 25.7719 15.9996 28.6796Z" fill="#BD8318"/>
</svg>
