<svg width="24" height="24" viewBox="0 0 24 24" fill="none" xmlns="http://www.w3.org/2000/svg">
<circle cx="12" cy="12" r="12" fill="url(#paint0_linear_218_287)"/>
<g clip-path="url(#clip0_218_287)">
<path d="M8.83509 4.98549C8.91174 4.98535 8.98838 4.98506 9.06502 4.98477C9.2504 4.98419 9.43578 4.98418 9.62116 4.98441C9.77209 4.98458 9.92301 4.98455 10.0739 4.98437C10.0955 4.98435 10.1171 4.98432 10.1394 4.9843C10.1833 4.98425 10.2272 4.9842 10.2711 4.98415C10.6815 4.98369 11.092 4.98393 11.5024 4.98439C11.8764 4.98479 12.2505 4.98439 12.6245 4.9836C13.0102 4.9828 13.3958 4.9825 13.7815 4.98276C13.8253 4.98279 13.8691 4.98282 13.9128 4.98284C13.9343 4.98286 13.9559 4.98287 13.9781 4.98288C14.1284 4.98294 14.2788 4.98268 14.4292 4.98228C14.613 4.98179 14.7967 4.9818 14.9805 4.98242C15.074 4.98272 15.1674 4.98274 15.2609 4.9823C16.3298 4.97767 17.205 5.2746 17.989 6.01179C18.0051 6.02617 18.0213 6.04055 18.0379 6.05537C18.5516 6.53259 18.8391 7.22442 18.9734 7.89851C18.9805 7.93184 18.9805 7.93184 18.9877 7.96585C19.0061 8.10304 19.0048 8.23877 19.0049 8.37704C19.0051 8.42482 19.0051 8.42482 19.0053 8.47356C19.0056 8.56177 19.0057 8.64997 19.0059 8.73817C19.006 8.83341 19.0064 8.92865 19.0066 9.02389C19.0073 9.25389 19.0077 9.48389 19.0081 9.71389C19.0082 9.77896 19.0083 9.84404 19.0084 9.90911C19.0091 10.314 19.0097 10.7189 19.01 11.1238C19.0101 11.2175 19.0102 11.3112 19.0103 11.405C19.0103 11.4283 19.0103 11.4516 19.0103 11.4756C19.0107 11.8519 19.0116 12.2283 19.0127 12.6047C19.0139 12.9919 19.0145 13.3792 19.0147 13.7664C19.0148 13.9835 19.0151 14.2006 19.016 14.4177C19.0168 14.6028 19.017 14.7879 19.0167 14.973C19.0166 15.0672 19.0167 15.1613 19.0174 15.2555C19.0239 16.3265 18.7277 17.2027 17.989 17.9884C17.9746 18.0045 17.9602 18.0206 17.9454 18.0373C17.559 18.4532 16.9994 18.7424 16.4577 18.8907C16.4403 18.8955 16.4229 18.9004 16.4049 18.9054C15.9939 19.0156 15.5894 19.0158 15.1663 19.0147C15.0897 19.0148 15.013 19.0151 14.9364 19.0154C14.751 19.016 14.5656 19.016 14.3802 19.0157C14.2293 19.0156 14.0784 19.0156 13.9275 19.0158C13.9059 19.0158 13.8843 19.0158 13.862 19.0158C13.8181 19.0159 13.7742 19.016 13.7303 19.016C13.3198 19.0165 12.9094 19.0162 12.499 19.0158C12.125 19.0154 11.7509 19.0158 11.3769 19.0165C10.9912 19.0173 10.6055 19.0176 10.2199 19.0174C10.1761 19.0174 10.1323 19.0173 10.0886 19.0173C10.067 19.0173 10.0455 19.0173 10.0233 19.0173C9.87297 19.0172 9.7226 19.0175 9.57223 19.0179C9.38843 19.0184 9.20465 19.0183 9.02085 19.0177C8.92739 19.0174 8.83396 19.0174 8.7405 19.0178C7.67164 19.0225 6.79637 18.7255 6.01241 17.9884C5.9882 17.9668 5.9882 17.9668 5.96349 17.9448C5.5475 17.5584 5.25849 16.9988 5.11007 16.4571C5.1028 16.431 5.1028 16.431 5.09538 16.4044C4.98942 16.0102 4.98497 15.6236 4.9868 15.2175C4.98711 15.1221 4.98677 15.0266 4.98653 14.9312C4.98615 14.745 4.98635 14.5588 4.98677 14.3727C4.98723 14.1553 4.98714 13.9379 4.98704 13.7206C4.98688 13.3325 4.98726 12.9444 4.98794 12.5563C4.98859 12.1807 4.98878 11.8051 4.9885 11.4295C4.98819 11.0192 4.98813 10.609 4.98853 10.1987C4.98857 10.1548 4.98861 10.111 4.98865 10.0672C4.98867 10.0456 4.98869 10.0241 4.98872 10.0019C4.98884 9.85074 4.9888 9.69961 4.98868 9.54848C4.98854 9.36412 4.98871 9.17976 4.98925 8.9954C4.98952 8.90153 4.98966 8.80767 4.98944 8.71381C4.98829 7.99604 4.98829 7.99604 5.08273 7.65242C5.08797 7.63129 5.09322 7.61016 5.09863 7.58839C5.32396 6.71707 5.90617 5.94505 6.67646 5.48205C6.95484 5.32182 7.23345 5.19441 7.54366 5.10945C7.56109 5.10461 7.57851 5.09976 7.59647 5.09477C8.00749 4.98454 8.41197 4.98436 8.83509 4.98549ZM6.9421 6.77742C6.92127 6.79564 6.90044 6.81386 6.87898 6.83264C6.45468 7.22899 6.19585 7.82569 6.17391 8.40358C6.1728 8.48153 6.17257 8.55944 6.17264 8.63739C6.17255 8.66718 6.17247 8.69696 6.17239 8.72765C6.17215 8.82715 6.17211 8.92666 6.17207 9.02617C6.17194 9.09764 6.17181 9.16912 6.17166 9.24059C6.17129 9.43461 6.17112 9.62863 6.171 9.82264C6.17093 9.94399 6.17081 10.0653 6.17069 10.1867C6.17035 10.5232 6.17007 10.8598 6.16998 11.1963C6.16997 11.2178 6.16997 11.2393 6.16996 11.2615C6.16996 11.2831 6.16995 11.3046 6.16994 11.3268C6.16993 11.3705 6.16992 11.4142 6.16991 11.4579C6.1699 11.4796 6.16989 11.5012 6.16989 11.5236C6.16978 11.8742 6.1693 12.2249 6.16867 12.5755C6.16802 12.9363 6.16768 13.297 6.16765 13.6578C6.16762 13.86 6.16747 14.0623 6.16697 14.2645C6.16654 14.4369 6.16641 14.6092 6.16663 14.7815C6.16674 14.8692 6.16667 14.9569 6.16633 15.0447C6.16355 15.8014 6.25965 16.4694 6.77804 17.0587C6.80537 17.0899 6.80537 17.0899 6.83326 17.1218C7.21874 17.5345 7.8107 17.8047 8.37471 17.8269C8.45303 17.828 8.53131 17.8282 8.60964 17.8281C8.63965 17.8282 8.66965 17.8283 8.70056 17.8284C8.80097 17.8286 8.90138 17.8287 9.00179 17.8287C9.07385 17.8288 9.1459 17.829 9.21796 17.8291C9.41367 17.8295 9.60938 17.8296 9.80509 17.8298C9.92747 17.8298 10.0498 17.83 10.1722 17.8301C10.5115 17.8304 10.8508 17.8307 11.1901 17.8308C11.2227 17.8308 11.2227 17.8308 11.2559 17.8308C11.2885 17.8308 11.2885 17.8308 11.3218 17.8308C11.3658 17.8308 11.4099 17.8308 11.454 17.8309C11.4758 17.8309 11.4977 17.8309 11.5202 17.8309C11.8739 17.831 12.2276 17.8315 12.5813 17.8321C12.945 17.8328 13.3088 17.8331 13.6725 17.8331C13.8765 17.8331 14.0805 17.8333 14.2844 17.8338C14.4582 17.8342 14.632 17.8344 14.8058 17.8341C14.8943 17.834 14.9828 17.8341 15.0713 17.8344C15.8205 17.8372 16.4761 17.7358 17.0593 17.2227C17.0801 17.2045 17.101 17.1863 17.1224 17.1675C17.5467 16.7712 17.8055 16.1745 17.8275 15.5966C17.8286 15.5186 17.8288 15.4407 17.8288 15.3628C17.8288 15.333 17.8289 15.3032 17.829 15.2725C17.8292 15.173 17.8293 15.0735 17.8293 14.974C17.8294 14.9025 17.8296 14.831 17.8297 14.7596C17.8301 14.5655 17.8303 14.3715 17.8304 14.1775C17.8305 14.0562 17.8306 13.9348 17.8307 13.8135C17.831 13.4769 17.8313 13.1404 17.8314 12.8038C17.8314 12.7823 17.8314 12.7608 17.8314 12.7387C17.8314 12.7171 17.8314 12.6955 17.8314 12.6733C17.8315 12.6296 17.8315 12.5859 17.8315 12.5423C17.8315 12.5206 17.8315 12.4989 17.8315 12.4766C17.8316 12.1259 17.8321 11.7753 17.8327 11.4246C17.8334 11.0639 17.8337 10.7031 17.8337 10.3424C17.8338 10.1401 17.8339 9.93786 17.8344 9.73561C17.8348 9.56329 17.835 9.39098 17.8348 9.21866C17.8347 9.13094 17.8347 9.04322 17.8351 8.9555C17.8378 8.1987 17.7417 7.53078 17.2234 6.94148C17.2051 6.92065 17.1869 6.89982 17.1681 6.87835C16.7826 6.46569 16.1907 6.19541 15.6267 6.17329C15.5484 6.17217 15.4701 6.17195 15.3917 6.17201C15.3617 6.17193 15.3317 6.17185 15.3008 6.17177C15.2004 6.17153 15.1 6.17149 14.9996 6.17145C14.9275 6.17132 14.8555 6.17119 14.7834 6.17104C14.5877 6.17067 14.392 6.1705 14.1963 6.17038C14.0739 6.17031 13.9515 6.17019 13.8292 6.17007C13.4899 6.16973 13.1506 6.16945 12.8113 6.16936C12.7896 6.16935 12.7679 6.16935 12.7455 6.16934C12.7129 6.16933 12.7129 6.16933 12.6796 6.16932C12.6355 6.16931 12.5915 6.1693 12.5474 6.16929C12.5256 6.16928 12.5037 6.16927 12.4812 6.16927C12.1275 6.16916 11.7738 6.16868 11.4201 6.16805C11.0564 6.1674 10.6926 6.16706 10.3289 6.16702C10.1249 6.167 9.92094 6.16684 9.71696 6.16635C9.54317 6.16592 9.36939 6.16579 9.1956 6.16601C9.1071 6.16612 9.01861 6.16605 8.93011 6.16571C8.18089 6.16298 7.5253 6.2644 6.9421 6.77742Z" fill="white"/>
<path d="M12.8744 8.58189C12.9021 8.58938 12.9021 8.58938 12.9303 8.59703C13.7581 8.82478 14.5427 9.36383 14.9798 10.1131C14.991 10.1323 15.0022 10.1514 15.0138 10.1711C15.1896 10.4768 15.3241 10.7848 15.4173 11.1249C15.4312 11.173 15.4312 11.173 15.4454 11.2222C15.5647 11.724 15.56 12.38 15.4173 12.8749C15.4123 12.8933 15.4073 12.9118 15.4022 12.9308C15.1551 13.8289 14.5686 14.5865 13.7639 15.052C13.4785 15.2116 13.1895 15.3314 12.8744 15.4178C12.8423 15.4271 12.8101 15.4364 12.7771 15.4459C12.2752 15.5652 11.6192 15.5605 11.1244 15.4178C11.1059 15.4128 11.0875 15.4078 11.0684 15.4027C10.2407 15.1749 9.45603 14.6359 9.0189 13.8866C9.00771 13.8674 8.99651 13.8483 8.98498 13.8286C8.80918 13.5229 8.67468 13.215 8.5814 12.8749C8.57213 12.8427 8.56286 12.8106 8.55331 12.7776C8.43402 12.2757 8.43877 11.6197 8.5814 11.1249C8.5889 11.0972 8.5889 11.0972 8.59654 11.0689C8.82429 10.2412 9.36334 9.45652 10.1127 9.01939C10.1413 9.0026 10.1413 9.0026 10.1706 8.98546C10.4764 8.80966 10.7843 8.67517 11.1244 8.58189C11.1565 8.57262 11.1886 8.56335 11.2217 8.5538C11.7236 8.43451 12.3795 8.43926 12.8744 8.58189ZM10.4408 10.2772C10.4199 10.2954 10.3991 10.3136 10.3777 10.3324C9.94678 10.7349 9.70662 11.3229 9.67088 11.9054C9.65101 12.5182 9.87344 13.1 10.2767 13.5585C10.304 13.5897 10.304 13.5897 10.3319 13.6216C10.7303 14.048 11.3175 14.2928 11.895 14.3296C12.5166 14.3386 13.089 14.1351 13.558 13.7225C13.5788 13.7043 13.5996 13.6861 13.6211 13.6673C14.052 13.2648 14.2921 12.6768 14.3279 12.0943C14.3477 11.4815 14.1253 10.8997 13.722 10.4413C13.7038 10.4204 13.6856 10.3996 13.6668 10.3781C13.2684 9.95169 12.6813 9.70694 12.1037 9.67009C11.4822 9.66113 10.9098 9.86465 10.4408 10.2772Z" fill="white"/>
<path d="M16.1831 7.39917C16.2013 7.41049 16.2195 7.4218 16.2383 7.43346C16.2574 7.44506 16.2764 7.45665 16.2961 7.4686C16.4911 7.60045 16.6134 7.78134 16.6758 8.00768C16.7094 8.29981 16.6599 8.55028 16.4873 8.79082C16.4311 8.85378 16.379 8.89685 16.3084 8.94249C16.278 8.96253 16.278 8.96253 16.247 8.98298C16.0288 9.10845 15.7764 9.13022 15.5325 9.07238C15.2863 8.99354 15.1375 8.83147 14.989 8.62804C14.8833 8.41163 14.8815 8.18736 14.9258 7.95299C14.9616 7.85463 15.007 7.76806 15.0625 7.67955C15.0777 7.65474 15.093 7.62993 15.1087 7.60436C15.3873 7.33321 15.826 7.20906 16.1831 7.39917Z" fill="white"/>
</g>
<defs>
<linearGradient id="paint0_linear_218_287" x1="4.5" y1="3.5" x2="20.5" y2="19.5" gradientUnits="userSpaceOnUse">
<stop stop-color="#FADD1E"/>
<stop offset="0.45" stop-color="#CD1C94"/>
<stop offset="1" stop-color="#781CC9"/>
</linearGradient>
<clipPath id="clip0_218_287">
<rect width="14" height="14" fill="white" transform="translate(5 5)"/>
</clipPath>
</defs>
</svg>
