<svg width="24" height="24" viewBox="0 0 24 24" fill="none" xmlns="http://www.w3.org/2000/svg">
<circle cx="12" cy="12" r="12" fill="#4875B4"/>
<path d="M17.3623 10.2507C18.1081 10.8871 18.3237 11.8576 18.3997 12.7941C18.4126 13.0137 18.4103 13.2336 18.4098 13.4535C18.4098 13.5078 18.4098 13.562 18.4098 13.6163C18.4098 13.7624 18.4096 13.9086 18.4094 14.0547C18.4092 14.2079 18.4092 14.361 18.4092 14.5141C18.4091 14.8037 18.4088 15.0932 18.4085 15.3827C18.4081 15.7743 18.4079 16.1658 18.4077 16.5574C18.4074 17.1736 18.4068 17.7898 18.4062 18.4061C17.5194 18.4061 16.6325 18.4061 15.7188 18.4061C15.7176 18.0536 15.7164 17.701 15.7152 17.3378C15.7143 17.1138 15.7133 16.8898 15.7122 16.6658C15.7105 16.3106 15.7089 15.9554 15.7079 15.6003C15.7072 15.3415 15.7062 15.0828 15.7047 14.8241C15.704 14.6873 15.7034 14.5505 15.7032 14.4137C15.703 14.2845 15.7024 14.1553 15.7014 14.0261C15.7012 13.9791 15.701 13.9321 15.7011 13.8851C15.7016 13.3162 15.6485 12.7114 15.2324 12.2851C14.958 12.0454 14.6205 11.9856 14.2631 12.0058C14.0132 12.026 13.7806 12.0555 13.5625 12.1873C13.5309 12.2047 13.4993 12.2221 13.4668 12.2401C13.0684 12.5537 12.9102 12.9885 12.8505 13.481C12.8352 13.6653 12.8381 13.8505 12.8373 14.0353C12.837 14.0831 12.8367 14.1309 12.8364 14.1786C12.8356 14.3077 12.8349 14.4367 12.8343 14.5658C12.8336 14.7009 12.8327 14.8359 12.8319 14.971C12.8303 15.2266 12.8289 15.4821 12.8276 15.7376C12.8257 16.0832 12.8237 16.4287 12.8216 16.7742C12.8184 17.3181 12.8155 17.8621 12.8125 18.4061C11.9256 18.4061 11.0387 18.4061 10.125 18.4061C10.125 15.5804 10.125 12.7548 10.125 9.84357C10.9706 9.84357 11.8163 9.84357 12.6875 9.84357C12.6978 10.2045 12.7081 10.5654 12.7188 10.9373C12.827 10.7826 12.827 10.7826 12.9375 10.6248C13.4022 10.03 14.1173 9.72653 14.8536 9.63459C15.7273 9.56047 16.6575 9.69974 17.3623 10.2507Z" fill="white"/>
<path d="M5.78125 9.84375C6.66812 9.84375 7.555 9.84375 8.46875 9.84375C8.46875 12.6694 8.46875 15.495 8.46875 18.4062C7.58188 18.4062 6.695 18.4062 5.78125 18.4062C5.78125 15.5806 5.78125 12.755 5.78125 9.84375Z" fill="white"/>
<path d="M7.99133 5.81657C8.3487 6.0609 8.56783 6.39572 8.6709 6.81328C8.74706 7.26378 8.65633 7.68342 8.40539 8.06267C8.17028 8.38491 7.83158 8.61464 7.43664 8.68767C7.10233 8.72002 6.77073 8.72278 6.46789 8.56267C6.42771 8.54224 6.42771 8.54224 6.38672 8.52141C6.01414 8.31573 5.75935 7.99538 5.6261 7.59001C5.5219 7.13999 5.58065 6.70732 5.80383 6.30485C6.02483 5.9601 6.34417 5.73524 6.73462 5.61565C7.17432 5.52741 7.60307 5.58941 7.99133 5.81657Z" fill="white"/>
</svg>
