<svg width="24" height="24" viewBox="0 0 24 24" fill="none" xmlns="http://www.w3.org/2000/svg">
<circle cx="12" cy="12" r="12" fill="#4875B4"/>
<g clip-path="url(#clip0_218_279)">
<path d="M13.7965 3.99479C13.8305 3.99467 13.8646 3.99454 13.8997 3.9944C14.0093 3.99411 14.1189 3.99411 14.2285 3.99418C14.2843 3.99416 14.2843 3.99416 14.3411 3.99415C15.5613 3.99463 15.5613 3.99463 16.1562 4.09379C16.1562 4.93942 16.1562 5.78504 16.1562 6.65629C15.4336 6.66996 15.4336 6.66996 15.2084 6.67405C14.2988 6.65228 14.2988 6.65228 13.5273 7.06254C13.3177 7.31784 13.2791 7.67668 13.2748 7.99546C13.2745 8.01593 13.2742 8.0364 13.2739 8.05749C13.2729 8.12293 13.2721 8.18838 13.2714 8.25383C13.2705 8.31431 13.2705 8.31431 13.2696 8.37602C13.2675 8.52608 13.2656 8.67615 13.2637 8.82621C13.2592 9.16201 13.2546 9.49782 13.25 9.84379C14.1781 9.84379 15.1062 9.84379 16.0625 9.84379C16.0266 10.3464 16.0266 10.3464 15.999 10.5547C15.9959 10.5789 15.9928 10.6031 15.9896 10.6281C15.9798 10.7045 15.9698 10.7809 15.9598 10.8572C15.9537 10.9052 15.9475 10.9531 15.9413 11.0011C15.9187 11.1765 15.8959 11.352 15.873 11.5274C15.8221 11.9205 15.7712 12.3137 15.7188 12.7188C14.9041 12.7188 14.0894 12.7188 13.25 12.7188C13.25 15.1216 13.25 17.5244 13.25 20C12.2703 20 11.2906 20 10.2812 20C10.2812 17.5972 10.2812 15.1944 10.2812 12.7188C9.47688 12.7188 8.6725 12.7188 7.84375 12.7188C7.84375 11.77 7.84375 10.8213 7.84375 9.84379C8.64812 9.84379 9.4525 9.84379 10.2812 9.84379C10.2788 9.10061 10.2788 9.10061 10.2756 8.35743C10.2723 7.18906 10.337 6.00887 11.1562 5.09379C11.1812 5.06588 11.2062 5.03796 11.2319 5.0092C11.8989 4.30378 12.8417 3.99591 13.7965 3.99479Z" fill="white"/>
</g>
<defs>
<clipPath id="clip0_218_279">
<rect width="16" height="16" fill="white" transform="translate(4 4)"/>
</clipPath>
</defs>
</svg>
