<svg width="24" height="24" viewBox="0 0 24 24" fill="none" xmlns="http://www.w3.org/2000/svg">
<circle cx="12" cy="12" r="12" fill="#03A9F4"/>
<path d="M15.9688 5.59367C16.0225 5.60962 16.0225 5.60962 16.0774 5.6259C16.496 5.76326 17.011 5.99404 17.2992 6.34031C17.3959 6.45929 17.3959 6.45929 17.5347 6.50631C17.6116 6.49368 17.6818 6.47363 17.7559 6.44914C17.783 6.44117 17.8102 6.43321 17.8382 6.425C17.9239 6.39933 18.0088 6.3717 18.0938 6.34367C18.1203 6.33532 18.1468 6.32697 18.1742 6.31837C18.57 6.1936 18.9418 6.0293 19.3125 5.84367C19.3364 5.83172 19.3604 5.81977 19.3851 5.80746C19.4442 5.77792 19.5034 5.7483 19.5625 5.71867C19.4895 6.35884 18.9583 6.95541 18.4811 7.34819C18.426 7.38983 18.3694 7.42959 18.3125 7.46867C18.5378 7.45287 18.7488 7.41354 18.9668 7.35539C18.9977 7.34729 19.0285 7.33919 19.0603 7.33084C19.322 7.26008 19.5743 7.17072 19.8268 7.07243C19.9375 7.03117 19.9375 7.03117 20 7.03117C19.873 7.40273 19.5181 7.72104 19.25 7.99992C19.2338 8.01701 19.2175 8.0341 19.2008 8.05171C19.1511 8.1038 19.101 8.15542 19.0508 8.20695C19.0343 8.22433 19.0177 8.2417 19.0007 8.2596C18.9134 8.34838 18.8335 8.41568 18.7219 8.47185C18.5866 8.54402 18.4784 8.61031 18.4062 8.74992C18.3518 9.02261 18.3679 9.3059 18.3735 9.58265C18.4105 11.7334 17.3233 14.0528 15.8655 15.5973C15.7998 15.6676 15.7373 15.7386 15.6758 15.8124C15.3867 16.145 15.0381 16.4231 14.6875 16.6874C14.6686 16.7018 14.6497 16.7163 14.6302 16.7311C13.0264 17.9534 11.0713 18.5066 9.07227 18.5077C9.03796 18.5078 9.00365 18.5078 8.9683 18.5078C8.47238 18.5073 7.9889 18.497 7.5 18.4062C7.46971 18.4008 7.43941 18.3954 7.4082 18.3899C6.18921 18.1702 5.04519 17.7251 4 17.0624C4.01031 17.0418 4.02062 17.0212 4.03125 16.9999C4.05107 17.0022 4.07089 17.0044 4.09131 17.0068C5.69034 17.1658 7.4582 16.7471 8.71875 15.7187C8.67827 15.7122 8.63778 15.7057 8.59607 15.699C7.66062 15.5406 6.8071 15.1406 6.24059 14.3494C5.78125 13.678 5.78125 13.678 5.78125 13.3749C5.80659 13.3772 5.83193 13.3794 5.85803 13.3818C6.2708 13.4164 6.65311 13.3974 7.0625 13.3437C7.0461 13.3375 7.02971 13.3314 7.01282 13.3251C6.92458 13.2911 6.83729 13.2551 6.75 13.2187C6.73057 13.2106 6.71114 13.2026 6.69112 13.1943C6.06847 12.9319 5.51653 12.5172 5.15625 11.9374C5.13571 11.905 5.11516 11.8726 5.09399 11.8393C4.76906 11.3022 4.59221 10.6928 4.625 10.0624C4.7645 10.1069 4.89825 10.16 5.0332 10.2167C5.34645 10.3446 5.6621 10.4153 6 10.4374C5.94602 10.3879 5.89197 10.3384 5.83789 10.289C5.79275 10.2477 5.79275 10.2477 5.7467 10.2055C5.6598 10.126 5.6598 10.126 5.57642 10.064C5.48641 9.98853 5.41619 9.90364 5.3457 9.81047C5.3321 9.79259 5.3185 9.77471 5.30448 9.75628C5.1851 9.59614 5.08757 9.42953 5 9.24992C4.98626 9.22273 4.97253 9.19554 4.95837 9.16752C4.59185 8.40902 4.54483 7.51162 4.80356 6.71225C4.8801 6.49437 4.97681 6.29252 5.09375 6.09367C5.21329 6.14097 5.26925 6.21045 5.34692 6.3112C5.49503 6.49698 5.6556 6.66482 5.82422 6.83195C5.85137 6.85935 5.87852 6.88674 5.90649 6.91496C6.09454 7.10245 6.29172 7.27285 6.5 7.43742C6.51901 7.45267 6.53802 7.46792 6.5576 7.48363C7.08985 7.90889 7.66964 8.26982 8.28346 8.56454C8.33991 8.59182 8.39599 8.61988 8.45203 8.64799C9.51907 9.17011 10.6709 9.38882 11.8438 9.49992C11.8394 9.47393 11.835 9.44793 11.8304 9.42115C11.7969 9.21527 11.7699 9.01524 11.7715 8.80656C11.7717 8.78157 11.7718 8.75658 11.772 8.73083C11.7911 7.76728 12.2003 6.96411 12.8827 6.29692C13.6891 5.56371 14.9237 5.2799 15.9688 5.59367Z" fill="white"/>
</svg>
