<svg width="48" height="49" viewBox="0 0 48 49" fill="none" xmlns="http://www.w3.org/2000/svg">
<path d="M38.8807 41.4999C35.1115 41.4999 31.3249 40.6236 27.5211 38.8711C23.7173 37.1185 20.2224 34.6461 17.0366 31.4538C13.8507 28.2615 11.3814 24.7666 9.62885 20.9692C7.87628 17.1718 7 13.3885 7 9.61925C7 9.01375 7.2 8.50917 7.6 8.1055C8 7.70184 8.5 7.5 9.1 7.5H15.623C16.1281 7.5 16.5736 7.66475 16.9595 7.99425C17.3454 8.32375 17.591 8.7308 17.6961 9.2154L18.8422 15.1C18.9217 15.6461 18.905 16.1154 18.7922 16.5077C18.6794 16.9 18.4768 17.2294 18.1845 17.4961L13.5653 21.9923C14.3089 23.3538 15.1583 24.6416 16.1134 25.8557C17.0685 27.0698 18.1025 28.2295 19.2153 29.3346C20.3128 30.432 21.4795 31.4513 22.7154 32.3923C23.9513 33.3333 25.2859 34.209 26.7192 35.0192L31.2077 30.4923C31.5205 30.1667 31.8993 29.9385 32.3442 29.8077C32.7891 29.6769 33.2513 29.6449 33.7308 29.7116L39.2845 30.8423C39.7896 30.9756 40.2018 31.2333 40.5211 31.6154C40.8403 31.9974 40.9999 32.4308 40.9999 32.9154V39.3999C40.9999 39.9999 40.7981 40.4999 40.3944 40.8999C39.9907 41.2999 39.4862 41.4999 38.8807 41.4999ZM12.1461 19.1539L15.7154 15.7385C15.7795 15.6872 15.8211 15.6166 15.8404 15.5269C15.8596 15.4371 15.8564 15.3538 15.8308 15.2769L14.9615 10.8077C14.9359 10.7051 14.891 10.6282 14.8269 10.5769C14.7628 10.5256 14.6795 10.5 14.5769 10.5H10.2999C10.223 10.5 10.159 10.5256 10.1077 10.5769C10.0564 10.6282 10.0307 10.6923 10.0307 10.7692C10.1333 12.1359 10.357 13.5243 10.7018 14.9346C11.0467 16.3449 11.5282 17.7513 12.1461 19.1539ZM29.5461 36.4384C30.8717 37.0564 32.2544 37.5288 33.6941 37.8558C35.1339 38.1827 36.4794 38.3769 37.7307 38.4384C37.8076 38.4384 37.8717 38.4128 37.923 38.3615C37.9743 38.3102 38 38.2461 38 38.1692V33.9615C38 33.8589 37.9743 33.7756 37.923 33.7115C37.8717 33.6474 37.7948 33.6025 37.6923 33.5769L33.4923 32.723C33.4154 32.6974 33.3481 32.6942 33.2904 32.7134C33.2327 32.7326 33.1718 32.7743 33.1077 32.8384L29.5461 36.4384Z" fill="#BD8318"/>
</svg>
