<svg width="48" height="49" viewBox="0 0 48 49" fill="none" xmlns="http://www.w3.org/2000/svg">
<path d="M8.6154 39.4999C7.60513 39.4999 6.75 39.1499 6.05 38.4499C5.35 37.7499 5 36.8948 5 35.8845V13.1154C5 12.1051 5.35 11.25 6.05 10.55C6.75 9.85 7.60513 9.5 8.6154 9.5H39.3845C40.3948 9.5 41.2499 9.85 41.9499 10.55C42.6499 11.25 42.9999 12.1051 42.9999 13.1154V35.8845C42.9999 36.8948 42.6499 37.7499 41.9499 38.4499C41.2499 39.1499 40.3948 39.4999 39.3845 39.4999H8.6154ZM24 25.6153L7.99995 15.3845V35.8845C7.99995 36.064 8.05765 36.2114 8.17305 36.3268C8.28845 36.4422 8.4359 36.5 8.6154 36.5H39.3845C39.564 36.5 39.7115 36.4422 39.8269 36.3268C39.9423 36.2114 40 36.064 40 35.8845V15.3845L24 25.6153ZM24 22.5L39.6923 12.5H8.30765L24 22.5ZM7.99995 15.3845V12.5V35.8845C7.99995 36.064 8.05765 36.2114 8.17305 36.3268C8.28845 36.4422 8.4359 36.5 8.6154 36.5H7.99995V15.3845Z" fill="#BD8318"/>
</svg>
