<svg width="48" height="49" viewBox="0 0 48 49" fill="none" xmlns="http://www.w3.org/2000/svg">
<path d="M24.0038 24.2307C24.999 24.2307 25.8497 23.8764 26.5561 23.1677C27.2625 22.459 27.6157 21.6071 27.6157 20.612C27.6157 19.6168 27.2614 18.766 26.5527 18.0596C25.8441 17.3532 24.9922 17 23.997 17C23.0018 17 22.151 17.3543 21.4446 18.063C20.7382 18.7717 20.385 19.6236 20.385 20.6188C20.385 21.6139 20.7394 22.4647 21.448 23.1711C22.1567 23.8775 23.0086 24.2307 24.0038 24.2307ZM24.0004 39.5269C27.9132 36.0244 30.9074 32.6648 32.9831 29.4481C35.0587 26.2314 36.0965 23.4141 36.0965 20.9961C36.0965 17.35 34.9382 14.3525 32.6215 12.0038C30.3049 9.65507 27.4312 8.4807 24.0004 8.4807C20.5696 8.4807 17.6959 9.65507 15.3792 12.0038C13.0626 14.3525 11.9042 17.35 11.9042 20.9961C11.9042 23.4141 12.9421 26.2314 15.0177 29.4481C17.0934 32.6648 20.0876 36.0244 24.0004 39.5269ZM24.0004 43.5191C18.9671 39.1576 15.1927 35.0986 12.6773 31.3423C10.162 27.5859 8.9043 24.1371 8.9043 20.9961C8.9043 16.3808 10.3972 12.6443 13.3831 9.78655C16.369 6.92885 19.9081 5.5 24.0004 5.5C28.0927 5.5 31.6318 6.92885 34.6176 9.78655C37.6035 12.6443 39.0965 16.3808 39.0965 20.9961C39.0965 24.1371 37.8388 27.5859 35.3234 31.3423C32.808 35.0986 29.0337 39.1576 24.0004 43.5191Z" fill="#BD8318"/>
</svg>
