<svg width="12" height="12" viewBox="0 0 12 12" fill="none" xmlns="http://www.w3.org/2000/svg">
<path d="M10.9609 11.6666C9.70447 11.6666 8.4423 11.3745 7.17435 10.7904C5.90641 10.2062 4.74146 9.38203 3.6795 8.31793C2.61753 7.25383 1.79446 6.08888 1.21027 4.82308C0.626079 3.55727 0.333984 2.29616 0.333984 1.03976C0.333984 0.837927 0.400651 0.669733 0.533984 0.535178C0.667318 0.400622 0.833984 0.333344 1.03398 0.333344H3.20832C3.3767 0.333344 3.5252 0.38826 3.65383 0.498094C3.78247 0.607927 3.8643 0.743611 3.89933 0.905144L4.28138 2.86666C4.30788 3.04872 4.30233 3.20513 4.26472 3.33589C4.22712 3.46666 4.1596 3.57649 4.06215 3.66538L2.52242 5.16409C2.77028 5.61794 3.05341 6.04721 3.37178 6.45191C3.69016 6.85662 4.03482 7.24317 4.40575 7.61154C4.77157 7.97736 5.16047 8.3171 5.57243 8.63078C5.9844 8.94446 6.42927 9.23633 6.90705 9.50641L8.4032 7.99744C8.50748 7.8889 8.63376 7.81283 8.78205 7.76924C8.93034 7.72566 9.0844 7.71497 9.24424 7.73719L11.0955 8.11411C11.2639 8.15856 11.4013 8.24445 11.5077 8.37179C11.6141 8.49915 11.6673 8.6436 11.6673 8.80514V10.9666C11.6673 11.1666 11.6 11.3333 11.4655 11.4666C11.3309 11.6 11.1627 11.6666 10.9609 11.6666ZM2.04935 4.21796L3.2391 3.07949C3.26047 3.06239 3.27436 3.03889 3.28077 3.00898C3.28718 2.97906 3.28611 2.95128 3.27757 2.92564L2.98782 1.43589C2.97927 1.4017 2.96432 1.37607 2.94295 1.35898C2.92158 1.34188 2.89381 1.33333 2.85962 1.33333H1.43397C1.40833 1.33333 1.38697 1.34188 1.36987 1.35898C1.35277 1.37607 1.34422 1.39743 1.34422 1.42308C1.37841 1.87863 1.45298 2.34145 1.56793 2.81154C1.6829 3.28163 1.84337 3.75044 2.04935 4.21796ZM7.84933 9.97948C8.29122 10.1855 8.75212 10.3429 9.23203 10.4519C9.71196 10.5609 10.1605 10.6256 10.5776 10.6461C10.6032 10.6461 10.6246 10.6376 10.6417 10.6205C10.6588 10.6034 10.6673 10.582 10.6673 10.5564V9.15384C10.6673 9.11965 10.6588 9.09187 10.6417 9.07049C10.6246 9.04913 10.5989 9.03417 10.5647 9.02563L9.16473 8.74101C9.1391 8.73247 9.11667 8.7314 9.09743 8.73781C9.0782 8.74422 9.0579 8.75811 9.03653 8.77948L7.84933 9.97948Z" fill="#BD8318"/>
</svg>
