<svg width="32" height="32" viewBox="0 0 32 32" fill="none" xmlns="http://www.w3.org/2000/svg">
<circle cx="16" cy="16" r="15.5" fill="white" stroke="#BD8318"/>
<path d="M16.8237 20.3345C16.8237 20.7297 17.1441 21.05 17.5393 21.05H22.4198C22.815 21.05 23.1353 20.7297 23.1353 20.3345C23.1353 19.9393 22.815 19.619 22.4198 19.619H17.5393C17.1441 19.619 16.8237 19.9393 16.8237 20.3345ZM10.6121 16C10.6121 16.3952 10.9325 16.7155 11.3276 16.7155H22.4198C22.815 16.7155 23.1353 16.3952 23.1353 16C23.1353 15.6048 22.815 15.2845 22.4198 15.2845H11.3276C10.9325 15.2845 10.6121 15.6048 10.6121 16ZM7.95 11.6655C7.95 12.0607 8.27035 12.381 8.66552 12.381H22.4198C22.815 12.381 23.1353 12.0607 23.1353 11.6655C23.1353 11.2703 22.815 10.95 22.4198 10.95H8.66552C8.27035 10.95 7.95 11.2703 7.95 11.6655Z" fill="#BD8318" stroke="#BD8318" stroke-width="0.1"/>
</svg>
