<svg width="60" height="60" viewBox="0 0 60 60" fill="none" xmlns="http://www.w3.org/2000/svg">
<g clip-path="url(#clip0_362_311)">
<path d="M27.7372 4.30664C27.8725 4.30652 27.8725 4.30652 28.0105 4.3064C29.5933 4.30859 31.1353 4.4049 32.6956 4.6875C32.8003 4.70636 32.905 4.72522 33.0129 4.74466C35.4644 5.20632 37.8386 6.00532 40.0931 7.06787C40.2196 7.12687 40.3461 7.18586 40.4764 7.24665C40.5919 7.30322 40.7074 7.35978 40.8264 7.41806C40.9284 7.4678 41.0304 7.51755 41.1355 7.5688C41.3675 7.73437 41.3675 7.73437 41.4452 7.93744C41.4941 8.26649 41.4593 8.54002 41.412 8.86951C41.3932 9.00321 41.3744 9.1369 41.355 9.27465C41.3234 9.49019 41.3234 9.49019 41.2911 9.71008C41.2701 9.85768 41.2491 10.0053 41.2275 10.1573C41.1717 10.5489 41.1151 10.9404 41.0582 11.3318C41.0002 11.7315 40.9432 12.1314 40.8862 12.5313C40.7741 13.3153 40.6611 14.0991 40.5472 14.8828C40.118 14.7196 39.7526 14.5238 39.3684 14.2707C34.6436 11.163 28.8643 10.1894 23.3453 11.3168C20.7866 11.8699 18.3599 12.8567 16.1722 14.2969C16.0995 14.3446 16.0268 14.3923 15.9519 14.4415C14.8031 15.2058 13.7967 16.0854 12.8218 17.0618C12.6529 17.2304 12.4814 17.3967 12.305 17.5575C8.81795 20.8062 6.71379 26.1501 6.52606 30.8504C6.46052 32.9471 6.55566 34.9805 7.03159 37.0312C7.0529 37.1257 7.07422 37.2202 7.09619 37.3176C8.32249 42.5998 11.7799 47.2148 16.2894 50.1562C19.7855 52.3233 23.6445 53.4927 27.7664 53.4814C27.8554 53.4814 27.9444 53.4813 28.036 53.4812C33.6241 53.463 38.8973 51.2202 42.8438 47.2737C43.0093 47.1082 43.1763 46.9441 43.3464 46.7834C46.9615 43.3331 48.9798 37.9348 49.1271 33.0153C49.2178 28.3338 48.0203 23.7739 45.2773 19.9315C45.1175 19.6875 45.1175 19.6875 45.1175 19.4531C45.9975 19.3279 46.8776 19.2036 47.7579 19.0803C48.1667 19.0231 48.5753 18.9656 48.9839 18.9073C49.4536 18.8404 49.9234 18.7748 50.3932 18.7093C50.5401 18.6881 50.687 18.667 50.8383 18.6453C51.0424 18.6171 51.0424 18.6171 51.2506 18.5884C51.3705 18.5715 51.4905 18.5545 51.6141 18.5371C51.9144 18.5156 51.9144 18.5156 52.266 18.6328C54.0475 21.3152 54.9322 24.8762 55.43 28.0078C55.4451 28.095 55.4601 28.1822 55.4756 28.2721C56.6436 35.182 54.6319 42.6743 50.6171 48.3247C49.0737 50.447 47.312 52.4124 45.2347 54.0234C45.1211 54.1156 45.0075 54.2077 44.8905 54.3027C40.0835 58.1362 33.9827 60.0609 27.8763 60.0366C27.7093 60.0363 27.7093 60.0363 27.539 60.036C25.9131 60.0307 24.3315 59.9792 22.7347 59.6484C22.6313 59.6283 22.5279 59.6082 22.4214 59.5875C20.039 59.1191 17.7702 58.3641 15.5863 57.3047C15.4966 57.2614 15.4069 57.218 15.3145 57.1734C12.7406 55.9139 10.5089 54.2353 8.43784 52.2656C8.37144 52.2026 8.30505 52.1396 8.23665 52.0746C7.22925 51.1112 6.33633 50.1049 5.50815 48.9844C5.45866 48.9186 5.40917 48.8528 5.35817 48.785C2.11372 44.4636 0.0236677 39.0185 -0.0275868 33.582C-0.0287292 33.4803 -0.0298716 33.3787 -0.0310487 33.2739C-0.0516153 30.9689 -0.0109746 28.749 0.469087 26.4844C0.490405 26.3806 0.511724 26.2769 0.533689 26.1701C1.65041 20.8818 4.34199 16.2704 8.08627 12.4219C8.23084 12.2703 8.23084 12.2703 8.37833 12.1156C9.01753 11.4571 9.70821 10.8783 10.43 10.3125C10.5344 10.2296 10.6388 10.1466 10.7463 10.0612C15.6294 6.28144 21.5756 4.31152 27.7372 4.30664Z" fill="#BD8318"/>
<path d="M39.2569 18.1641C39.0928 18.5337 38.899 18.7874 38.6161 19.0752C38.5331 19.16 38.4502 19.2448 38.3648 19.3322C38.2752 19.4224 38.1856 19.5126 38.0933 19.6056C38.0011 19.6988 37.9089 19.7921 37.8139 19.8882C37.6189 20.0848 37.4237 20.2811 37.2281 20.4771C36.9283 20.7783 36.6307 21.0817 36.3332 21.3851C36.1436 21.5758 35.954 21.7663 35.7642 21.9566C35.675 22.0481 35.5859 22.1395 35.4941 22.2337C35.4104 22.3166 35.3267 22.3996 35.2405 22.485C35.1673 22.5588 35.0941 22.6326 35.0187 22.7087C34.8038 22.8516 34.8038 22.8516 34.5633 22.8279C34.2209 22.6877 33.9182 22.4949 33.6026 22.3023C30.83 20.675 27.744 20.3466 24.6443 21.1363C21.7077 21.9479 19.3472 23.9599 17.7983 26.5434C16.374 29.1827 15.9264 32.3417 16.7194 35.2533C17.6487 38.317 19.6187 40.799 22.4414 42.3262C25.136 43.7277 28.2401 44.0593 31.1632 43.1735C34.2315 42.2046 36.5978 40.1655 38.0783 37.3266C39.4058 34.6531 39.6785 31.5297 38.7501 28.6835C38.3991 27.6774 37.9906 26.5944 37.2954 25.7758C37.1475 25.5469 37.1475 25.5469 37.1714 25.3264C37.2871 25.0186 37.4398 24.8592 37.6723 24.6269C37.7584 24.5401 37.8444 24.4533 37.933 24.3639C38.0266 24.2715 38.1201 24.1791 38.2164 24.0839C38.3597 23.9405 38.3597 23.9405 38.5058 23.7942C38.7079 23.5925 38.9103 23.3912 39.1132 23.1903C39.4247 22.8815 39.7347 22.5712 40.0445 22.2606C40.2407 22.065 40.437 21.8696 40.6334 21.6742C40.7267 21.5808 40.8199 21.4875 40.916 21.3913C41.0024 21.306 41.0888 21.2207 41.1779 21.1328C41.254 21.0572 41.3302 20.9816 41.4086 20.9037C41.6006 20.7422 41.6006 20.7422 41.835 20.7422C44.9194 24.0997 45.9613 28.9635 45.8372 33.3655C45.6148 38.1552 43.248 42.4773 39.8062 45.7178C35.8438 49.2256 31.0744 50.3324 25.8975 50.1563C25.1767 50.1072 24.4869 49.9853 23.7881 49.8047C23.6501 49.7698 23.6501 49.7698 23.5092 49.7341C18.8681 48.5271 14.8242 45.6797 12.3321 41.5444C11.7066 40.4691 11.2009 39.3734 10.7803 38.2031C10.7361 38.0844 10.6918 37.9657 10.6462 37.8433C9.60216 34.9106 9.40868 31.1537 10.1944 28.125C10.2183 28.0317 10.2422 27.9384 10.2668 27.8423C11.5146 23.1102 14.4409 19.1222 18.6614 16.6001C25.273 12.7795 33.2604 13.5888 39.2569 18.1641Z" fill="#BD8318"/>
<path d="M31.7587 24.9609C31.9134 25.1156 32.0681 25.2703 32.2274 25.4297C30.4485 27.2086 28.6696 28.9875 26.8368 30.8203C27.0437 31.2341 27.1854 31.4313 27.5042 31.745C27.5881 31.8281 27.6719 31.9112 27.7583 31.9968C27.8457 32.0823 27.9332 32.1678 28.0233 32.2559C28.1117 32.3432 28.2001 32.4305 28.2911 32.5204C28.509 32.7355 28.7273 32.95 28.9462 33.1641C29.3601 32.9875 29.6254 32.7476 29.9415 32.4297C30.0447 32.3265 30.1479 32.2233 30.2542 32.117C30.3657 32.0043 30.4772 31.8916 30.5886 31.7789C30.7035 31.6635 30.8185 31.5483 30.9334 31.4331C31.2353 31.1303 31.5364 30.8269 31.8374 30.5233C32.1449 30.2134 32.4531 29.9042 32.7612 29.5949C33.3652 28.9884 33.9684 28.3811 34.5712 27.7734C35.7115 28.8711 35.984 30.6891 36.0287 32.2119C36.007 34.3738 35.1557 36.4887 33.6172 38.0131C31.7658 39.7103 29.6929 40.4417 27.1989 40.3569C25.0395 40.2286 23.2806 39.2504 21.7977 37.7344C21.7196 37.66 21.6415 37.5857 21.5611 37.5091C20.0908 36.009 19.6277 33.8875 19.6389 31.861C19.6946 29.8387 20.4603 28.1068 21.7977 26.6016C21.8627 26.5269 21.9277 26.4523 21.9946 26.3754C24.4225 23.7616 28.6796 23.2784 31.7587 24.9609Z" fill="#BD8318"/>
<path d="M52.6172 0C52.9688 0.117188 52.9688 0.117188 53.0778 0.311319C53.1234 0.43737 53.1234 0.43737 53.17 0.565968C53.2052 0.661017 53.2404 0.756067 53.2766 0.853997C53.3132 0.957386 53.3499 1.06078 53.3876 1.1673C53.4261 1.27294 53.4646 1.37859 53.5043 1.48744C53.5856 1.71123 53.6663 1.93526 53.7463 2.1595C53.869 2.50315 53.9938 2.846 54.1189 3.18878C54.1975 3.40602 54.276 3.62331 54.3544 3.84064C54.3917 3.94355 54.4291 4.04647 54.4676 4.1525C54.5016 4.24829 54.5357 4.34408 54.5708 4.44277C54.616 4.5691 54.616 4.5691 54.6622 4.69798C54.7266 4.92188 54.7266 4.92188 54.7266 5.27344C54.7911 5.28622 54.8556 5.29901 54.9221 5.31219C55.5657 5.44646 56.1677 5.63008 56.7815 5.86395C56.871 5.89744 56.9606 5.93092 57.0528 5.96542C57.3348 6.07101 57.6164 6.17758 57.8979 6.28418C58.0907 6.35657 58.2835 6.4289 58.4763 6.50116C58.9454 6.67712 59.4142 6.85395 59.8828 7.03125C59.8828 7.6214 59.6513 7.82633 59.2747 8.23943C59.2095 8.31248 59.1443 8.38552 59.0772 8.46078C58.8593 8.70321 58.6393 8.94348 58.4184 9.1832C58.3044 9.30709 58.3044 9.30709 58.1881 9.43349C57.6104 10.0583 57.0241 10.6744 56.4331 11.2866C56.3471 11.3758 56.2612 11.465 56.1726 11.5568C51.9286 15.9361 51.9286 15.9361 48.4264 16.0017C48.0064 15.9998 47.5902 15.9802 47.1711 15.9543C46.0133 15.898 44.8528 16.1159 43.7109 16.2891C43.7831 15.7111 43.8559 15.1331 43.9291 14.5553C43.9537 14.3609 43.9781 14.1664 44.0023 13.972C44.0138 13.8801 44.0253 13.7882 44.0371 13.6935C44.0488 13.5987 44.0605 13.5038 44.0726 13.4061C44.0992 13.2016 44.1283 12.9974 44.1593 12.7935C44.258 12.1292 44.3038 11.4879 44.311 10.816C44.3995 7.99152 45.6805 6.52583 47.6836 4.63486C47.9578 4.38085 48.2329 4.12799 48.5084 3.87543C48.9774 3.44177 49.4364 2.99783 49.8965 2.55478C50.7942 1.6931 51.7019 0.842991 52.6172 0Z" fill="#BD8318"/>
</g>
<defs>
<clipPath id="clip0_362_311">
<rect width="60" height="60" fill="white"/>
</clipPath>
</defs>
</svg>
