<svg width="40" height="40" viewBox="0 0 40 40" fill="none" xmlns="http://www.w3.org/2000/svg">
<g clip-path="url(#clip0_349_742)">
<path d="M16.3885 26.2759C17.1532 26.8024 17.8564 27.0394 18.7909 27.0424C18.8887 27.0429 18.9866 27.0435 19.0874 27.0441C19.139 27.0442 19.1906 27.0443 19.2437 27.0445C19.4075 27.0451 19.5713 27.0463 19.7351 27.0477C20.2005 27.0518 20.6659 27.0556 21.1314 27.0568C21.4172 27.0576 21.703 27.0599 21.9889 27.0631C22.0965 27.0641 22.2041 27.0645 22.3117 27.0643C23.8673 27.0624 25.2413 27.5431 26.4062 28.5938C26.4597 28.64 26.5132 28.6863 26.5683 28.7339C27.0844 29.2094 27.6621 29.9276 27.8125 30.6251C23.9494 32.1078 20.2714 32.22 16.3116 30.9482C16.0297 30.8482 16.0297 30.8482 15.7812 30.8594C15.5492 31.5297 15.3172 32.2001 15.0781 32.8907C15.3617 32.968 15.6453 33.0454 15.9375 33.1251C16.0955 33.1689 16.2535 33.2127 16.4114 33.2566C21.3082 34.5907 26.0358 34.164 30.5469 31.7969C30.6078 31.7652 30.6688 31.7335 30.7316 31.7008C31.6907 31.1969 32.5937 30.6003 33.4398 29.9237C34.5761 29.017 35.6621 28.6567 37.1094 28.7501C38.0125 28.9038 38.8372 29.4209 39.3848 30.152C39.4604 30.2603 39.5353 30.3692 39.6094 30.4786C39.6486 30.5335 39.6877 30.5883 39.7281 30.6449C39.7646 30.6982 39.8012 30.7514 39.8389 30.8063C39.8718 30.8541 39.9047 30.9018 39.9387 30.951C40 31.0938 40 31.0938 39.9944 31.2509C39.8912 31.472 39.7522 31.5484 39.548 31.6801C39.4701 31.731 39.3922 31.782 39.312 31.8345C39.1861 31.915 39.1861 31.915 39.0576 31.9971C38.8842 32.1103 38.7109 32.2235 38.5376 32.3368C38.4529 32.3918 38.3682 32.4468 38.2809 32.5035C37.99 32.6935 37.7027 32.8882 37.417 33.086C37.3682 33.1196 37.3194 33.1532 37.2692 33.1879C36.9852 33.3841 36.7024 33.5819 36.42 33.7803C35.5336 34.4019 34.64 35.0117 33.7401 35.6134C33.6184 35.6947 33.4968 35.7762 33.3753 35.8577C29.5118 38.4474 25.648 40.0626 20.9375 40.0342C20.8506 40.034 20.7636 40.0337 20.6741 40.0334C18.2166 40.0218 15.9062 39.592 13.5156 39.0626C10.0634 38.3001 6.64138 37.8438 3.10059 37.7735C2.82907 37.7681 2.55757 37.7623 2.28607 37.7564C2.22759 37.7553 2.16911 37.7543 2.10885 37.7532C1.40445 37.7379 0.704772 37.6934 0 37.6563C0 33.7891 0 29.9219 0 25.9376C2.78437 25.8989 2.78437 25.8989 5.625 25.8594C6.16641 25.5243 6.70781 25.1891 7.26562 24.8438C7.55644 24.6881 7.83659 24.5406 8.13477 24.4044C8.19841 24.3736 8.26206 24.3429 8.32764 24.3113C11.303 22.9174 13.9619 24.5752 16.3885 26.2759Z" fill="#BD8318"/>
<path d="M6.71941 -3.25106e-05C7.28592 -0.00552869 7.85242 -0.00966013 8.41896 -0.012176C8.68219 -0.0133851 8.94539 -0.0151507 9.20862 -0.0177136C10.3812 -0.0288334 11.5102 -0.0279366 12.6569 0.234342C12.7735 0.260032 12.7735 0.260032 12.8924 0.286241C13.086 0.332169 13.2765 0.383453 13.4675 0.439421C13.5351 0.459134 13.6026 0.478848 13.6723 0.499159C15.2686 0.985711 16.7169 1.78956 17.9694 2.89059C18.0368 2.9485 18.1042 3.00641 18.1736 3.06607C19.5456 4.26733 20.3638 5.68151 20.4868 7.52652C20.5209 8.84565 20.1158 9.93737 19.5319 11.0937C19.5896 11.1629 19.6473 11.2321 19.7068 11.3034C22.3444 14.5064 22.3444 14.5064 22.3444 15.8593C22.396 15.8593 22.4475 15.8593 22.5007 15.8593C22.5072 15.8091 22.5138 15.7588 22.5205 15.7071C22.8739 14.2622 23.9008 12.9178 24.7925 11.7596C24.9776 11.5183 25.1476 11.2706 25.3132 11.0156C25.2708 10.9353 25.2284 10.8551 25.1847 10.7724C24.8682 10.1633 24.5877 9.58512 24.4538 8.90622C24.4361 8.82082 24.4183 8.73542 24.4001 8.64743C24.2554 6.94035 24.6381 5.32777 25.7352 3.98984C27.6705 1.76114 30.6431 0.235974 33.5944 -3.25106e-05C33.9452 -0.010217 34.2957 -0.00913754 34.6467 -0.0076619C34.7962 -0.00749609 34.7962 -0.00749609 34.9488 -0.00732693C35.2118 -0.00696533 35.4748 -0.0062653 35.7378 -0.00539693C36.007 -0.00459292 36.2763 -0.00423989 36.5455 -0.00384721C37.0722 -0.00298823 37.5989 -0.00168257 38.1257 -3.25106e-05C38.1317 0.535927 38.1358 1.07188 38.1385 1.60786C38.1397 1.78937 38.1413 1.97087 38.1433 2.15237C38.1859 6.00832 37.0915 9.27878 34.4098 12.0996C33.1765 13.2832 31.654 13.7233 29.9852 13.7088C29.021 13.6806 28.2179 13.4459 27.3673 12.9821C27.1985 12.8787 27.1985 12.8787 27.0319 12.8906C26.9327 12.9959 26.9327 12.9959 26.8363 13.1372C26.7981 13.1906 26.7599 13.2441 26.7206 13.2992C26.6799 13.3577 26.6392 13.4162 26.5973 13.4765C26.5554 13.5367 26.5134 13.5969 26.4702 13.6589C24.8878 15.9612 24.0478 18.5604 23.7507 21.3281C23.7935 21.3301 23.8363 21.3321 23.8804 21.3342C26.4494 21.518 28.8277 23.0209 30.5019 24.9072C31.1109 25.616 31.5689 26.404 31.9977 27.2314C32.0258 27.2845 32.0539 27.3375 32.0828 27.3922C32.1828 27.5912 32.2655 27.7597 32.2687 27.9849C31.9552 28.5301 31.1027 28.9334 30.5817 29.2675C30.5278 29.3027 30.4738 29.3379 30.4183 29.3741C30.2829 29.459 30.1421 29.535 30.0007 29.6093C29.6838 29.5037 29.6208 29.3029 29.4733 29.0234C29.2169 28.5576 28.9406 28.1398 28.5944 27.7343C28.5434 27.672 28.4923 27.6097 28.4397 27.5454C27.1114 25.9849 25.1109 25.0552 23.0817 24.8785C22.5229 24.8392 21.968 24.845 21.4081 24.852C21.1214 24.8536 20.8348 24.8549 20.5481 24.8559C20.3529 24.8576 20.1578 24.8607 19.9627 24.8654C18.672 24.8945 17.7829 24.8048 16.7827 23.9461C16.6374 23.8248 16.4867 23.7186 16.3304 23.6121C16.2525 23.5545 16.1746 23.4968 16.0944 23.4375C16.0944 23.3859 16.0944 23.3343 16.0944 23.2812C16.2074 23.192 16.2074 23.192 16.3663 23.0944C16.4246 23.0586 16.4828 23.0227 16.5428 22.9857C16.6059 22.9479 16.669 22.91 16.7341 22.8711C16.7983 22.8323 16.8626 22.7936 16.9289 22.7537C18.1435 22.0318 19.6478 21.3281 21.0944 21.3281C20.6927 18.342 19.8754 15.6867 18.0608 13.2499C17.9749 13.1325 17.8939 13.0116 17.8132 12.8906C17.5084 12.9812 17.2297 13.1 16.944 13.2373C15.5482 13.8655 13.8615 13.8863 12.4225 13.3593C11.6743 13.0544 11.0645 12.6531 10.4694 12.1093C10.3893 12.0374 10.3893 12.0374 10.3077 11.9641C8.12933 9.90039 6.80296 6.74396 6.71266 3.76135C6.71045 3.51968 6.71061 3.27814 6.71178 3.03647C6.71189 2.94913 6.712 2.8618 6.71212 2.77182C6.71255 2.49566 6.71353 2.21949 6.71453 1.94333C6.71492 1.75493 6.71528 1.56654 6.7156 1.37814C6.71645 0.918748 6.71776 0.459358 6.71941 -3.25106e-05ZM13.5274 5.52685C13.4656 5.58904 13.4038 5.65123 13.3402 5.7153C13.2735 5.78227 13.2068 5.84924 13.138 5.91824C13.0679 5.98904 12.9977 6.05984 12.9255 6.13278C12.8198 6.23898 12.8198 6.23898 12.712 6.34732C12.5372 6.52303 12.3626 6.69892 12.1882 6.87497C12.317 7.20774 12.566 7.42926 12.8149 7.67449C12.8631 7.72255 12.9113 7.77061 12.9609 7.82013C13.1201 7.97887 13.2799 8.13705 13.4397 8.29526C13.5507 8.40575 13.6616 8.51628 13.7725 8.62685C14.0647 8.91804 14.3574 9.20879 14.6502 9.49941C15.1181 9.96393 15.5854 10.429 16.0525 10.8943C16.2154 11.0564 16.3786 11.2182 16.5418 11.38C16.6424 11.4801 16.743 11.5802 16.8436 11.6802C16.8887 11.7248 16.9338 11.7694 16.9802 11.8153C17.2492 12.0835 17.4961 12.3609 17.735 12.6562C18.3202 12.3021 19.0088 11.807 19.2975 11.1718C19.2049 10.7672 18.9152 10.5232 18.6299 10.242C18.5775 10.1894 18.525 10.1368 18.4709 10.0825C18.2977 9.90907 18.1237 9.73647 17.9496 9.56387C17.8291 9.44362 17.7086 9.32331 17.5882 9.20297C17.3361 8.95116 17.0835 8.69974 16.8307 8.44863C16.5057 8.12592 16.1815 7.80254 15.8575 7.4789C15.609 7.23069 15.3602 6.98271 15.1114 6.7348C14.9917 6.61556 14.8721 6.49629 14.7525 6.37698C14.5858 6.21086 14.4189 6.045 14.2519 5.87924C14.202 5.82944 14.1521 5.77965 14.1007 5.72835C13.8349 5.38498 13.8349 5.38498 13.5274 5.52685ZM30.5848 5.88765C30.5049 5.9669 30.5049 5.9669 30.4235 6.04776C30.2465 6.22358 30.0699 6.39971 29.8932 6.5759C29.7709 6.69776 29.6486 6.81962 29.5263 6.94148C29.2695 7.19748 29.0128 7.45366 28.7563 7.70993C28.4271 8.03868 28.0972 8.36671 27.7671 8.69457C27.5141 8.94617 27.2615 9.1983 27.0092 9.45057C26.8877 9.57175 26.7661 9.69273 26.6443 9.81351C26.4741 9.98241 26.3046 10.152 26.1353 10.3219C26.0846 10.3719 26.0338 10.4219 25.9816 10.4734C25.9126 10.5431 25.9126 10.5431 25.8421 10.6141C25.802 10.6542 25.7618 10.6942 25.7205 10.7355C25.6089 10.8813 25.5716 10.9904 25.5475 11.1718C25.8744 11.7798 26.4906 12.3584 27.11 12.6562C27.1765 12.5843 27.2429 12.5123 27.3113 12.4381C27.9552 11.7428 28.6131 11.0643 29.2847 10.3958C29.383 10.2976 29.4813 10.1995 29.5795 10.1013C29.8339 9.84721 30.0885 9.59336 30.3432 9.33958C30.6047 9.07885 30.866 8.81788 31.1274 8.55694C31.637 8.04815 32.1469 7.5396 32.6569 7.03122C32.5342 6.77263 32.4015 6.6003 32.1976 6.39767C32.1386 6.33876 32.0795 6.27984 32.0186 6.21914C31.957 6.15842 31.8953 6.09769 31.8317 6.03512C31.7697 5.97319 31.7077 5.91125 31.6439 5.84744C31.1112 5.31885 31.112 5.36137 30.5848 5.88765Z" fill="#BD8318"/>
</g>
<defs>
<clipPath id="clip0_349_742">
<rect width="40" height="40" fill="white"/>
</clipPath>
</defs>
</svg>
