<svg width="60" height="60" viewBox="0 0 60 60" fill="none" xmlns="http://www.w3.org/2000/svg">
<path d="M35.1562 11.1328C35.2518 11.1542 35.3474 11.1755 35.4458 11.1974C41.3981 12.5395 46.7936 15.9889 51.2343 20.0913C51.4077 20.2495 51.5818 20.4072 51.7603 20.5597C52.4486 21.1481 53.0887 21.7818 53.7273 22.423C53.9132 22.6095 54.0998 22.7955 54.2864 22.9814C54.9266 23.6211 55.5463 24.2712 56.1328 24.961C56.2525 25.0965 56.3724 25.2319 56.4926 25.367C57.3172 26.3016 58.0916 27.2641 58.8391 28.2614C59.1714 28.7044 59.5217 29.1304 59.8856 29.5477C60 29.7656 60 29.7656 60 30.0311C59.8307 30.4942 59.5538 30.8434 59.2529 31.2305C59.1585 31.3541 59.1585 31.3541 59.0621 31.4803C58.5566 32.1365 58.0289 32.7719 57.4878 33.3989C57.2167 33.7159 56.9561 34.0386 56.6968 34.3653C55.5486 35.7706 54.2483 37.0507 52.9688 38.335C52.8666 38.4377 52.7644 38.5404 52.6592 38.6462C52.0781 39.2259 51.484 39.7801 50.8594 40.3125C50.7464 40.4116 50.6334 40.5107 50.517 40.6128C48.8557 42.0446 47.0877 43.3584 45.2344 44.5313C45.1677 44.5737 45.101 44.6162 45.0323 44.6599C40.9937 47.2114 36.1816 49.3153 31.3257 49.3639C31.2306 49.365 31.1354 49.3662 31.0374 49.3674C28.9316 49.3875 26.9026 49.3637 24.8438 48.8672C24.6824 48.8295 24.6824 48.8295 24.5178 48.7911C19.9559 47.7042 15.7872 45.4819 12.0703 42.6563C11.9601 42.5727 11.9601 42.5727 11.8477 42.4875C10.7948 41.6848 9.78139 40.8371 8.78906 39.961C8.73017 39.909 8.67127 39.8571 8.61059 39.8035C7.68554 38.9815 6.80878 38.1097 5.93262 37.2363C5.87701 37.1811 5.8214 37.1258 5.7641 37.0688C5.10527 36.4128 4.47087 35.746 3.86719 35.0391C3.7475 34.9035 3.62757 34.7682 3.50739 34.633C2.68279 33.6984 1.90843 32.7359 1.16089 31.7386C0.828638 31.2957 0.478344 30.8697 0.114441 30.4523C0 30.2344 0 30.2344 0 29.9689C0.169328 29.5059 0.446206 29.1566 0.74707 28.7696C0.841517 28.6459 0.841517 28.6459 0.937872 28.5198C1.44336 27.8635 1.97114 27.2282 2.51221 26.6011C2.78331 26.2841 3.0439 25.9614 3.30322 25.6348C4.45144 24.2294 5.75171 22.9493 7.03125 21.6651C7.18448 21.511 7.18448 21.511 7.34081 21.3538C7.92195 20.7742 8.51604 20.2199 9.14062 19.6875C9.31012 19.5389 9.31012 19.5389 9.48303 19.3872C14.0324 15.4663 19.3853 12.2557 25.3125 11.0156C25.4376 10.9871 25.4376 10.9871 25.5651 10.958C28.593 10.2828 32.1554 10.4236 35.1562 11.1328ZM20.9766 21.6797C18.5849 24.2449 17.6806 27.4118 17.7681 30.8515C17.8452 32.5809 18.3243 34.0876 19.1016 35.625C19.1643 35.749 19.2269 35.8731 19.2915 36.0008C20.8503 38.853 23.636 40.9538 26.7334 41.8726C30.0776 42.6789 33.3291 42.2305 36.3281 40.5469C36.8299 40.2359 37.2852 39.8746 37.7344 39.4922C37.8348 39.4093 37.9353 39.3263 38.0388 39.2409C40.2604 37.3352 41.852 34.5693 42.1875 31.6406C42.4507 28.1837 41.7773 24.9495 39.4922 22.2656C39.4093 22.1652 39.3263 22.0647 39.2409 21.9612C37.079 19.441 34.0547 18.018 30.769 17.71C26.9789 17.5438 23.6204 19.0007 20.9766 21.6797Z" fill="#BD8318"/>
<path d="M35.2444 22.7691C35.6745 23.1208 36.0612 23.5069 36.4467 23.9063C36.5331 23.9891 36.6195 24.0719 36.7085 24.1571C38.2106 25.6825 38.8293 27.8496 38.849 29.9341C38.8267 32.2969 38.1084 34.455 36.4119 36.1396C36.3074 36.2405 36.2028 36.3414 36.0951 36.4454C36.0124 36.5318 35.9296 36.6182 35.8443 36.7072C34.304 38.2239 32.1062 38.8269 30.0014 38.8477C27.6672 38.8246 25.523 38.0834 23.8619 36.4106C23.7609 36.306 23.66 36.2015 23.5561 36.0938C23.4697 36.011 23.3833 35.9282 23.2942 35.8429C22.5392 35.0762 22.1002 34.1424 21.6811 33.1641C21.6273 33.0392 21.5735 32.9143 21.5181 32.7855C20.8847 30.9902 20.9319 28.5848 21.6811 26.836C21.7119 26.7615 21.7427 26.687 21.7745 26.6103C22.2907 25.3879 22.9569 24.4725 23.9076 23.5547C23.9904 23.4683 24.0732 23.3819 24.1585 23.2929C26.9939 20.5007 32.1233 20.4455 35.2444 22.7691ZM25.7845 26.8676C24.8443 28.1412 24.7193 29.522 24.8451 31.0547C25.1384 32.4756 26.0395 33.6047 27.1889 34.4532C28.5138 35.1902 29.9552 35.3835 31.4443 35.0762C32.7911 34.6151 33.9497 33.72 34.6468 32.4669C35.2486 31.1717 35.4386 29.612 34.9672 28.2349C34.3201 26.7633 33.3031 25.6898 31.8114 25.0635C29.5462 24.253 27.3015 25.1145 25.7845 26.8676Z" fill="#BD8318"/>
<path d="M0 45.8203C1.16016 45.8203 2.32031 45.8203 3.51562 45.8203C3.51562 48.1406 3.51562 50.4609 3.51562 52.8516C5.87461 52.8516 8.23359 52.8516 10.6641 52.8516C10.6641 54.0117 10.6641 55.1719 10.6641 56.3672C7.14492 56.3672 3.62578 56.3672 0 56.3672C0 52.8867 0 49.4062 0 45.8203Z" fill="#BD8318"/>
<path d="M0 3.63281C3.51914 3.63281 7.03828 3.63281 10.6641 3.63281C10.6641 4.79297 10.6641 5.95312 10.6641 7.14844C8.30508 7.14844 5.94609 7.14844 3.51562 7.14844C3.51562 9.46875 3.51562 11.7891 3.51562 14.1797C2.35547 14.1797 1.19531 14.1797 0 14.1797C0 10.6992 0 7.21875 0 3.63281Z" fill="#BD8318"/>
<path d="M56.4844 45.8203C57.6445 45.8203 58.8047 45.8203 60 45.8203C60 49.3008 60 52.7812 60 56.3672C56.5195 56.3672 53.0391 56.3672 49.4531 56.3672C49.4531 55.207 49.4531 54.0469 49.4531 52.8516C51.7734 52.8516 54.0938 52.8516 56.4844 52.8516C56.4844 50.5312 56.4844 48.2109 56.4844 45.8203Z" fill="#BD8318"/>
<path d="M49.4531 3.63281C52.9336 3.63281 56.4141 3.63281 60 3.63281C60 7.11328 60 10.5938 60 14.1797C58.8398 14.1797 57.6797 14.1797 56.4844 14.1797C56.4844 11.8594 56.4844 9.53906 56.4844 7.14844C54.1641 7.14844 51.8438 7.14844 49.4531 7.14844C49.4531 5.98828 49.4531 4.82812 49.4531 3.63281Z" fill="#BD8318"/>
<path d="M30.7037 28.2422C31.2446 28.4984 31.4922 28.7691 31.7584 29.2969C31.8555 29.947 31.8433 30.524 31.5607 31.1206C31.1972 31.5038 30.8932 31.7295 30.3636 31.8086C29.6431 31.8096 29.1436 31.8101 28.5943 31.2891C28.1386 30.6514 28.1502 30.0564 28.2428 29.2969C28.7538 28.2181 29.6081 28.1086 30.7037 28.2422Z" fill="#BD8318"/>
</svg>
