<svg width="32" height="32" viewBox="0 0 32 32" fill="none" xmlns="http://www.w3.org/2000/svg">
<path d="M27.8561 22.2048V7.37505C27.8561 6.94863 27.69 6.5475 27.3883 6.24543L21.7865 0.643692C21.4848 0.341968 21.0837 0.175827 20.6569 0.175827H5.70491C4.82397 0.175827 4.10742 0.892377 4.10742 1.77331V15.3358V22.2048C12.1581 23.1391 20.0791 23.1722 27.8561 22.2048Z" fill="#DCDFE1"/>
<path d="M4.10742 22.2048V26.1494V30.1908C4.10742 31.0718 4.82397 31.7883 5.70491 31.7883H26.259C27.1399 31.7883 27.8565 31.0718 27.8565 30.1908V22.2048H4.10742Z" fill="#EA5440"/>
<path d="M21.3457 6.64233L27.8579 13.1299L27.8298 7.10598L21.3457 6.64233Z" fill="#C4CBD2"/>
<path d="M27.3891 6.24542L21.7874 0.643685C21.5503 0.40624 21.2503 0.256608 20.9258 0.201813V5.60474C20.9258 6.43299 21.5998 7.10704 22.4281 7.10704H27.831C27.7762 6.78283 27.6266 6.48287 27.3891 6.24542Z" fill="#ABB2B8"/>
<path d="M11.7996 24.1736H10.2633C10.0209 24.1736 9.82422 24.3703 9.82422 24.6126V27.4546V29.4009C9.82422 29.6432 10.0209 29.84 10.2633 29.84C10.5056 29.84 10.7023 29.6432 10.7023 29.4009V27.8937H11.7996C12.5914 27.8937 13.2356 27.2495 13.2356 26.4578V25.6095C13.2356 24.8178 12.5914 24.1736 11.7996 24.1736ZM12.3574 26.4578C12.3574 26.7655 12.1073 27.0155 11.7996 27.0155H10.7023V25.0517H11.7996C12.1073 25.0517 12.3574 25.3018 12.3574 25.6095V26.4578Z" fill="white"/>
<path d="M16.1049 29.84H14.6715C14.4291 29.84 14.2324 29.6432 14.2324 29.4009V24.6126C14.2324 24.3703 14.4291 24.1736 14.6715 24.1736H16.1053C16.9539 24.1736 17.6438 24.8638 17.6438 25.7121V28.3011C17.6434 29.1497 16.9536 29.84 16.1049 29.84ZM15.1105 28.9618H16.1053C16.4695 28.9618 16.7656 28.6654 16.7656 28.3011V25.7121C16.7656 25.3482 16.4692 25.0517 16.1053 25.0517H15.1105V28.9618Z" fill="white"/>
<path d="M21.7008 24.1736H19.1676C18.9252 24.1736 18.7285 24.3703 18.7285 24.6126V29.4009C18.7285 29.6432 18.9252 29.84 19.1676 29.84C19.4099 29.84 19.6066 29.6432 19.6066 29.4009V27.4458H20.8265C21.0689 27.4458 21.2656 27.2491 21.2656 27.0068C21.2656 26.7644 21.0689 26.5677 20.8265 26.5677H19.6066V25.0521H21.7008C21.9432 25.0521 22.1399 24.8554 22.1399 24.613C22.1399 24.3706 21.9435 24.1736 21.7008 24.1736Z" fill="white"/>
<path d="M21.2985 14.23C21.2444 14.0987 21.1158 14.0133 20.9739 14.0133H19.2862V9.87594C19.2862 9.68205 19.1292 9.52469 18.9349 9.52469H14.4333C14.2394 9.52469 14.082 9.68205 14.082 9.87594V14.013H12.3943C12.2524 14.013 12.1242 14.0987 12.0697 14.2297C12.0153 14.3611 12.0455 14.5121 12.146 14.6125L16.4358 18.9024C16.5043 18.9709 16.5942 19.0053 16.6841 19.0053C16.774 19.0053 16.8639 18.9709 16.9324 18.9024L21.2223 14.6129C21.3227 14.5121 21.3529 14.3614 21.2985 14.23Z" fill="#C4CBD2"/>
<path d="M20.5953 13.5276C20.5413 13.3962 20.4127 13.3108 20.2708 13.3108H18.583V9.17345C18.583 8.97956 18.426 8.8222 18.2318 8.8222H13.7302C13.5363 8.8222 13.3789 8.97956 13.3789 9.17345V13.3105H11.6912C11.5493 13.3105 11.421 13.3962 11.3666 13.5272C11.3122 13.6586 11.3424 13.8096 11.4428 13.9101L15.7326 18.1999C15.8011 18.2684 15.8911 18.3028 15.981 18.3028C16.0709 18.3028 16.1608 18.2684 16.2293 18.1999L20.5191 13.9104C20.6196 13.8096 20.6498 13.6589 20.5953 13.5276Z" fill="#EA5440"/>
</svg>
