<svg width="60" height="60" viewBox="0 0 60 60" fill="none" xmlns="http://www.w3.org/2000/svg">
<g clip-path="url(#clip0_393_3739)">
<path d="M3.66041 0.0864801C3.87818 0.0852381 3.87818 0.0852381 4.10036 0.083971C4.26053 0.0842348 4.42069 0.0845215 4.58086 0.0848287C4.75175 0.0843067 4.92263 0.0836839 5.09352 0.082969C5.56266 0.0813085 6.03179 0.0811124 6.50093 0.081164C7.00708 0.0809707 7.51323 0.0794393 8.01938 0.0780945C9.12588 0.0754178 10.2324 0.0744887 11.3389 0.0738961C12.0299 0.0735143 12.7209 0.0727499 13.412 0.0719038C15.3256 0.0696111 17.2393 0.0676886 19.153 0.0673479C19.2754 0.0673259 19.3979 0.067304 19.524 0.0672813C19.7722 0.0672384 20.0204 0.0671958 20.2686 0.0671534C20.3918 0.067132 20.5151 0.0671106 20.642 0.0670885C20.7654 0.0670674 20.8887 0.0670462 21.0158 0.0670244C23.0148 0.0666093 25.0138 0.0634425 27.0128 0.0590614C29.0656 0.0545984 31.1185 0.0523295 33.1713 0.0522941C34.3237 0.0522256 35.4761 0.0512309 36.6285 0.0478412C37.6097 0.0449683 38.591 0.0441152 39.5722 0.045878C40.0727 0.046718 40.5731 0.0466183 41.0736 0.0439549C41.5322 0.0415377 41.9907 0.0418508 42.4493 0.0442918C42.6148 0.0447005 42.7802 0.0441295 42.9457 0.0424514C44.1982 0.0305714 45.0857 0.245853 46.0396 1.07643C46.9118 2.03498 46.9413 3.14913 46.9278 4.38795C46.9277 4.55553 46.9278 4.72311 46.928 4.89069C46.9282 5.34219 46.9254 5.79363 46.9221 6.24512C46.9192 6.71823 46.9189 7.19133 46.9184 7.66445C46.9169 8.55881 46.9131 9.45315 46.9084 10.3475C46.9031 11.3663 46.9005 12.3852 46.8982 13.404C46.8933 15.4985 46.8851 17.5929 46.8746 19.6873C47.0031 19.6494 47.1315 19.6115 47.2639 19.5725C48.5487 19.2159 49.8041 19.5071 50.9743 20.0983C52.2112 20.833 53.0618 21.8469 53.5543 23.2029C53.6473 23.6086 53.7172 24.0176 53.7652 24.4311C53.8461 25.0241 54.0262 25.2941 54.4918 25.6638C54.8181 25.8428 54.8181 25.8428 55.1656 25.9861C56.6325 26.6988 57.2907 27.8586 57.8756 29.3182C58.2679 30.585 58.0274 31.9651 57.5387 33.1638C57.4548 33.3151 57.3675 33.4645 57.275 33.6106C57.0235 34.0686 56.9502 34.418 57.0699 34.9216C57.2314 35.2585 57.4135 35.5777 57.6009 35.9008C58.1901 36.9616 58.1564 38.3086 57.8683 39.4627C57.348 41.1159 56.5083 42.1392 54.9839 42.9472C54.7042 43.088 54.4234 43.2255 54.1402 43.3591C54.3002 43.7848 54.4916 44.1689 54.7202 44.5617C54.7897 44.6816 54.8592 44.8015 54.9308 44.925C55.0059 45.0536 55.0809 45.1822 55.1583 45.3147C55.2373 45.4507 55.3162 45.5867 55.3952 45.7228C55.5592 46.0054 55.7233 46.2879 55.8876 46.5704C56.12 46.9702 56.3511 47.3708 56.5819 47.7715C56.6543 47.8972 56.7267 48.0229 56.8013 48.1524C56.9461 48.404 57.0908 48.6557 57.2353 48.9075C57.6047 49.5496 57.9786 50.1882 58.3613 50.8225C58.475 51.0126 58.475 51.0126 58.591 51.2065C58.7349 51.4465 58.88 51.6857 59.0266 51.924C59.4065 52.5601 59.6398 53.0416 59.648 53.7888C59.4868 54.2161 59.306 54.5577 58.9449 54.8435C58.1569 55.1062 57.3591 54.9056 56.565 54.7556C56.4517 54.7348 56.3384 54.714 56.2217 54.6926C55.8622 54.6264 55.5029 54.5592 55.1436 54.492C54.899 54.4467 54.6543 54.4016 54.4096 54.3565C53.8119 54.2461 53.2143 54.1349 52.6168 54.0232C52.6038 54.088 52.5908 54.1527 52.5775 54.2195C52.4445 54.8532 52.2682 55.451 52.0428 56.0575C51.9942 56.1897 51.9942 56.1897 51.9447 56.3246C51.8767 56.5091 51.8083 56.6934 51.7396 56.8777C51.6352 57.1585 51.5327 57.4399 51.4303 57.7215C51.3635 57.9017 51.2967 58.0819 51.2298 58.2621C51.1996 58.3455 51.1694 58.4289 51.1383 58.5148C50.9307 59.0645 50.7036 59.6087 50.1558 59.8826C49.9013 59.9146 49.9013 59.9146 49.5992 59.9265C49.5007 59.9323 49.4022 59.938 49.3007 59.9439C48.8381 59.8543 48.5796 59.6456 48.2808 59.2966C47.9628 58.8164 47.6862 58.3145 47.4093 57.8098C47.3276 57.6635 47.2457 57.5172 47.1637 57.371C46.9945 57.0693 46.8259 56.7673 46.6577 56.4651C46.269 55.7688 45.8683 55.0794 45.4683 54.3894C45.3241 54.1398 45.1799 53.8902 45.0358 53.6405C44.9694 53.5256 44.9031 53.4108 44.8347 53.2924C44.4579 52.6387 44.0837 51.9836 43.7105 51.3279C43.1822 51.3937 43.1822 51.3937 42.6636 51.5092C41.5241 51.7591 40.2223 51.6033 39.1402 51.2107C39.0419 51.3902 39.0419 51.3902 38.9416 51.5733C38.3066 52.7267 37.6535 53.8684 36.986 55.0034C36.5926 55.6736 36.2058 56.347 35.8265 57.0252C35.742 57.1756 35.6575 57.326 35.5729 57.4764C35.4494 57.6962 35.3263 57.9162 35.2045 58.1369C35.0915 58.3416 34.977 58.5454 34.8624 58.7492C34.7974 58.8663 34.7323 58.9834 34.6653 59.104C34.378 59.5227 34.0824 59.8398 33.5738 59.9407C33.4771 59.9385 33.3805 59.9362 33.2808 59.9339C33.1358 59.9336 33.1358 59.9336 32.9879 59.9334C32.6211 59.8698 32.4114 59.7483 32.109 59.531C31.9496 59.2596 31.9496 59.2596 31.8256 58.9314C31.7533 58.7433 31.7533 58.7433 31.6794 58.5515C31.6278 58.4107 31.5762 58.2699 31.523 58.1248C31.4638 57.9669 31.4045 57.8091 31.3451 57.6513C31.1869 57.2282 31.0318 56.8041 30.878 56.3793C30.7819 56.1141 30.685 55.8491 30.5881 55.5842C30.5266 55.4151 30.4652 55.2461 30.4038 55.077C30.3749 54.998 30.346 54.919 30.3162 54.8377C30.1168 54.2845 30.1168 54.2845 30.1168 54.0232C29.9661 54.0522 29.8154 54.0812 29.6602 54.1111C29.0977 54.219 28.5348 54.3249 27.9717 54.4302C27.7287 54.4759 27.4859 54.5222 27.2431 54.569C26.8928 54.6365 26.5422 54.7019 26.1915 54.7671C26.0841 54.7882 25.9768 54.8093 25.8662 54.831C25.2059 54.9513 24.5629 55.0223 23.9058 54.8435C23.4161 54.4456 23.2262 54.1994 23.1432 53.5769C23.1547 52.7564 23.6241 52.1184 24.0377 51.4378C24.1239 51.2921 24.2098 51.1463 24.2956 51.0004C24.4705 50.7036 24.6465 50.4076 24.8237 50.1121C25.1903 49.5004 25.5472 48.883 25.9054 48.2664C26.0377 48.0396 26.1702 47.8128 26.3027 47.5861C26.3694 47.472 26.4361 47.3578 26.5048 47.2402C26.6559 46.9816 26.8072 46.723 26.9584 46.4645C27.164 46.1131 27.3689 45.7614 27.5734 45.4095C27.69 45.2092 27.8071 45.0092 27.9244 44.8093C27.9948 44.6878 28.0653 44.5664 28.1379 44.4413C28.2005 44.334 28.263 44.2267 28.3275 44.1162C28.46 43.8591 28.5394 43.6416 28.5933 43.3591C28.4193 43.2739 28.4193 43.2739 28.2418 43.187C27.0566 42.5914 26.1033 41.9606 25.4293 40.781C25.4293 40.7037 25.4293 40.6263 25.4293 40.5466C25.3149 40.5471 25.2005 40.5475 25.0827 40.548C22.2981 40.5584 19.5135 40.5661 16.7289 40.5709C15.3822 40.5733 14.0356 40.5766 12.689 40.582C11.5151 40.5867 10.3413 40.5897 9.16742 40.5907C8.546 40.5914 7.9246 40.5928 7.30319 40.5962C6.71789 40.5994 6.13263 40.6004 5.54733 40.5997C5.33291 40.5998 5.11849 40.6007 4.90408 40.6025C3.43612 40.6143 2.36744 40.5112 1.25616 39.475C0.37528 38.5262 0.316465 37.4428 0.32061 36.2138C0.320162 36.0727 0.319713 35.9317 0.319251 35.7864C0.318253 35.3963 0.318302 35.0063 0.318804 34.6162C0.319093 34.195 0.318036 33.7738 0.317159 33.3526C0.315666 32.5278 0.315455 31.7031 0.315729 30.8784C0.315938 30.2078 0.315733 29.5373 0.315234 28.8667C0.315164 28.7713 0.315095 28.6758 0.315023 28.5774C0.314881 28.3834 0.314739 28.1893 0.314596 27.9953C0.313322 26.1764 0.313575 24.3574 0.31429 22.5385C0.314895 20.8756 0.313577 19.2127 0.311348 17.5498C0.309076 15.8412 0.30811 14.1327 0.30855 12.4241C0.308774 11.4653 0.308484 10.5065 0.306826 9.54775C0.305428 8.73143 0.305267 7.91512 0.306684 7.09879C0.307373 6.68258 0.307506 6.2664 0.306098 5.85019C0.304587 5.39827 0.30582 4.94639 0.307306 4.49447C0.306442 4.36393 0.305578 4.23339 0.304688 4.0989C0.313159 2.87257 0.541315 1.84422 1.40585 0.937269C2.07835 0.342017 2.75512 0.0881343 3.66041 0.0864801ZM2.84231 2.39067C2.46914 2.89638 2.32883 3.23286 2.32795 3.85489C2.3275 3.97395 2.32705 4.093 2.32658 4.21566C2.32668 4.34685 2.32679 4.47803 2.32689 4.61319C2.32654 4.75225 2.32619 4.89131 2.32583 5.03458C2.32499 5.42125 2.32468 5.8079 2.32459 6.19456C2.32438 6.61132 2.32349 7.02808 2.3227 7.44484C2.32111 8.35643 2.3204 9.26802 2.31989 10.1796C2.31956 10.7487 2.31907 11.3177 2.31854 11.8868C2.31711 13.462 2.3159 15.0372 2.31551 16.6123C2.31548 16.7132 2.31546 16.814 2.31543 16.9179C2.3154 17.019 2.31538 17.1201 2.31535 17.2242C2.3153 17.429 2.31525 17.6338 2.3152 17.8387C2.31517 17.9403 2.31514 18.0419 2.31512 18.1466C2.31465 19.7931 2.31261 21.4397 2.30988 23.0863C2.3071 24.7763 2.30564 26.4663 2.3055 28.1563C2.3054 29.1054 2.30472 30.0544 2.3026 31.0035C2.30079 31.8116 2.30019 32.6197 2.30116 33.4278C2.30162 33.8402 2.3015 34.2525 2.29986 34.6649C2.2981 35.1119 2.29906 35.5588 2.30028 36.0058C2.29934 36.1362 2.29839 36.2666 2.29742 36.4009C2.30136 37.2962 2.30136 37.2962 2.69491 38.0857C3.20983 38.5316 3.63498 38.6219 4.29674 38.6108C4.38491 38.6112 4.47308 38.6116 4.56393 38.612C4.85816 38.6128 5.15226 38.6102 5.44647 38.6077C5.65786 38.6075 5.86924 38.6076 6.08063 38.6079C6.65369 38.608 7.22671 38.6053 7.79976 38.602C8.39893 38.5991 8.9981 38.5988 9.59727 38.5982C10.7315 38.5968 11.8658 38.5929 13 38.5882C14.2915 38.583 15.583 38.5804 16.8744 38.578C19.5308 38.5731 22.187 38.5649 24.8433 38.5545C24.8486 38.4365 24.8538 38.3185 24.8592 38.197C24.8676 38.0392 24.876 37.8814 24.8845 37.7236C24.8922 37.5694 24.8998 37.4152 24.9077 37.2563C25.0029 36.4283 25.3537 35.7245 25.7662 35.0095C25.95 34.5602 25.9197 34.2111 25.7808 33.7498C25.6293 33.5123 25.4727 33.2781 25.3121 33.0466C24.7584 31.8401 24.7088 30.4448 25.0777 29.1795C25.7008 27.6377 26.4379 26.6824 27.927 25.9253C28.4198 25.6705 28.7715 25.4523 29.0621 24.9607C29.1328 24.659 29.1839 24.3795 29.2232 24.0745C29.4748 22.5189 30.1527 21.4035 31.4104 20.4421C32.3214 19.8306 33.3696 19.5527 34.46 19.5554C34.6397 19.555 34.6397 19.555 34.8231 19.5545C35.1136 19.5681 35.3463 19.6112 35.6246 19.6873C36.348 19.7456 36.683 19.6924 37.2652 19.2185C37.4805 19.0429 37.4805 19.0429 37.6168 18.867C37.6168 18.7896 37.6168 18.7123 37.6168 18.6326C37.6831 18.601 37.7494 18.5694 37.8177 18.5369C38.098 18.3917 38.3553 18.2255 38.6202 18.054C39.9262 17.2742 41.4004 17.1181 42.8756 17.49C43.4204 17.6593 43.9149 17.8895 44.4137 18.1638C44.5697 18.2423 44.726 18.3204 44.8824 18.3982C44.8934 16.4088 44.9016 14.4193 44.9067 12.4299C44.9091 11.5061 44.9124 10.5823 44.9178 9.65858C44.9224 8.85335 44.9255 8.04812 44.9265 7.24288C44.9271 6.81658 44.9286 6.39032 44.932 5.96403C44.9358 5.4879 44.9358 5.01184 44.9356 4.53569C44.9382 4.32416 44.9382 4.32416 44.9407 4.10836C44.9371 3.37037 44.9256 2.89618 44.4137 2.34352C43.7682 1.91318 43.0955 1.97568 42.3447 1.97865C42.2314 1.97864 42.1182 1.97862 42.0015 1.9786C41.628 1.97868 41.2546 1.97959 40.8811 1.98051C40.6218 1.98073 40.3626 1.9809 40.1033 1.98101C39.4215 1.98146 38.7397 1.98261 38.0579 1.98391C37.3619 1.98511 36.666 1.98564 35.97 1.98623C34.6049 1.98749 33.2397 1.98949 31.8746 1.99196C31.8739 2.10145 31.8732 2.21095 31.8725 2.32376C31.8658 3.35822 31.8573 4.39265 31.847 5.42707C31.8417 5.95882 31.8371 6.49056 31.834 7.02232C31.8309 7.53599 31.8262 8.04962 31.8203 8.56326C31.8184 8.75873 31.817 8.95421 31.8163 9.14968C31.8151 9.42457 31.8119 9.69935 31.8081 9.97421C31.8082 10.0541 31.8084 10.134 31.8086 10.2164C31.7963 10.8546 31.6794 11.5323 31.2399 12.0198C30.688 12.4961 30.2083 12.5958 29.5011 12.5855C28.5398 12.446 27.8105 11.686 27.128 11.0493C26.7555 10.7076 26.3634 10.3963 25.9667 10.0834C25.5309 9.73843 25.1021 9.3851 24.6726 9.03236C24.3796 8.79288 24.0846 8.55598 23.7887 8.32008C23.2192 8.49744 22.8547 8.8244 22.419 9.21364C22.2727 9.3418 22.1262 9.46983 21.9796 9.5977C21.9083 9.66007 21.837 9.72244 21.7635 9.7867C21.4098 10.0923 21.0432 10.3812 20.6763 10.6707C20.3528 10.9279 20.0348 11.1913 19.7164 11.4548C18.9282 12.1005 18.3288 12.588 17.2747 12.5709C16.8099 12.5182 16.4112 12.375 16.0543 12.0701C15.6538 11.4743 15.5165 11.0294 15.5216 10.3068C15.5204 10.2164 15.5191 10.126 15.5179 10.0328C15.5145 9.73669 15.5143 9.44066 15.5141 9.14451C15.5124 8.93812 15.5104 8.73173 15.5083 8.52534C15.5031 7.98419 15.5008 7.44305 15.499 6.90187C15.4967 6.34882 15.4918 5.7958 15.4871 5.24276C15.4783 4.15917 15.4724 3.07558 15.4683 1.99196C13.9699 1.98652 12.4714 1.98236 10.9729 1.97981C10.277 1.97859 9.58122 1.97693 8.88539 1.97427C8.2137 1.97173 7.54202 1.97033 6.87032 1.96972C6.61424 1.96929 6.35816 1.96844 6.10208 1.96718C5.74301 1.96547 5.38397 1.96524 5.0249 1.96535C4.91936 1.96451 4.81383 1.96366 4.7051 1.9628C3.71378 1.96591 3.71378 1.96591 2.84231 2.39067ZM17.4605 1.99196C17.4605 4.85367 17.4605 7.71539 17.4605 10.6638C17.9729 10.3222 18.4343 9.97996 18.8961 9.57985C19.4457 9.10912 20.0014 8.64889 20.5692 8.20015C20.892 7.9421 21.2083 7.67683 21.5255 7.41188C21.7321 7.24477 21.9395 7.07862 22.148 6.91383C22.2187 6.85749 22.2894 6.80114 22.3623 6.74309C22.9727 6.32377 23.6693 6.32815 24.3746 6.44508C24.7862 6.61283 25.092 6.86154 25.4293 7.14821C25.4906 7.19976 25.552 7.25131 25.6152 7.30442C25.9692 7.60241 26.3201 7.90385 26.6689 8.20793C27.0878 8.57208 27.5184 8.91954 27.9543 9.26307C28.3945 9.61351 28.8247 9.97588 29.2557 10.3374C29.5254 10.5658 29.5254 10.5658 29.8824 10.6638C29.8824 7.80211 29.8824 4.94039 29.8824 1.99196C25.7832 1.99196 21.684 1.99196 17.4605 1.99196ZM38.4884 20.7053C37.7876 21.3701 37.1024 21.5791 36.1519 21.5769C36.0202 21.5772 35.8885 21.5775 35.7528 21.5778C35.4484 21.5648 35.2117 21.5253 34.9215 21.4451C33.9726 21.3325 33.18 21.5701 32.4029 22.1207C31.4811 22.8884 31.1996 23.5528 31.003 24.719C30.8358 25.7055 30.6008 26.4583 29.8018 27.0994C29.4506 27.3413 29.0888 27.5262 28.7032 27.7073C27.7813 28.1548 27.2587 28.7322 26.9202 29.7022C26.5482 31.0092 26.8989 31.9656 27.5286 33.1373C27.8552 33.807 27.8805 34.5296 27.6847 35.2439C27.506 35.7483 27.3031 36.224 27.0479 36.6941C26.6694 37.4288 26.6432 38.1921 26.8538 38.9848C27.3224 40.2777 28.104 40.8058 29.2672 41.4329C30.1355 41.9122 30.6028 42.5508 30.9371 43.4763C31.0059 43.7918 31.0558 44.1095 31.1056 44.4285C31.2303 45.208 31.4179 45.7352 31.9918 46.2888C32.0561 46.3545 32.1205 46.4203 32.1868 46.488C32.9586 47.2157 33.6995 47.3852 34.7439 47.3673C35.0137 47.3455 35.246 47.2918 35.5074 47.2263C36.4853 47.1463 37.3621 47.1922 38.1524 47.8155C38.4492 48.0817 38.7375 48.3544 39.023 48.6326C39.8734 49.4376 40.6629 49.6397 41.8131 49.6117C42.6033 49.5237 43.2518 49.1765 43.8277 48.6326C43.9147 48.519 44.0017 48.4054 44.0914 48.2883C44.5353 47.7331 45.2385 47.3499 45.9371 47.2263C46.1713 47.2155 46.4058 47.2111 46.6402 47.2117C46.7611 47.2114 46.8819 47.2111 47.0064 47.2108C47.2994 47.2243 47.5314 47.2685 47.8121 47.3435C48.7755 47.4466 49.5905 47.2596 50.3953 46.7118C51.2856 45.9904 51.6496 45.1497 51.7745 44.0257C51.9216 43.0323 52.275 42.2797 53.0677 41.6467C53.3742 41.4492 53.6925 41.3011 54.023 41.1472C54.9451 40.7012 55.4457 40.1618 55.8321 39.2136C56.1398 38.2493 56.1252 37.4949 55.682 36.5847C55.5942 36.4183 55.5039 36.253 55.411 36.0894C54.9792 35.2645 54.9382 34.4289 55.0777 33.5154C55.2381 33.054 55.4654 32.6411 55.7071 32.2176C56.1115 31.4913 56.1242 30.7076 55.9392 29.9041C55.636 28.9724 55.225 28.2703 54.3412 27.8048C54.1269 27.7032 53.9115 27.604 53.6961 27.5048C52.8512 27.101 52.2561 26.5115 51.9283 25.6272C51.8121 25.2116 51.754 24.7943 51.6939 24.3674C51.5259 23.3071 51.013 22.6802 50.2021 21.9958C49.4937 21.493 48.7804 21.3874 47.9293 21.4451C47.8592 21.4643 47.7891 21.4834 47.7169 21.5032C46.8256 21.7085 45.818 21.6776 45.0023 21.2501C44.4523 20.8869 43.9849 20.4511 43.5494 19.9583C42.844 19.3369 42.019 19.1402 41.093 19.1819C39.9295 19.3184 39.2774 19.8779 38.4884 20.7053ZM53.2027 46.1716C53.1409 46.2843 53.1409 46.2843 53.0778 46.3992C52.3268 47.7148 51.3694 48.6193 49.8995 49.0867C48.886 49.3307 47.8277 49.2741 46.8014 49.138C46.424 49.0935 46.3064 49.0938 45.9444 49.2478C45.8647 49.3155 45.7849 49.3832 45.7027 49.4529C45.594 49.5327 45.594 49.5327 45.483 49.614C45.3209 49.8034 45.3209 49.8034 45.3825 50.0745C45.473 50.4076 45.5957 50.6517 45.7728 50.9475C45.8368 51.0558 45.9009 51.164 45.9669 51.2756C46.0368 51.3919 46.1068 51.5083 46.1788 51.6282C46.3277 51.8792 46.4765 52.1304 46.6251 52.3817C46.7037 52.5143 46.7822 52.6469 46.8631 52.7835C47.1195 53.2189 47.3695 53.6577 47.6185 54.0974C47.6604 54.1714 47.7024 54.2454 47.7456 54.3217C47.911 54.6136 48.0763 54.9055 48.2408 55.198C48.3553 55.4016 48.4705 55.6048 48.5857 55.808C48.6514 55.9245 48.717 56.041 48.7847 56.161C48.9855 56.4867 49.2076 56.7767 49.4527 57.0701C49.5703 56.7724 49.6875 56.4745 49.8043 56.1765C49.8588 56.0375 49.8588 56.0375 49.9145 55.8957C50.1258 55.3528 50.3293 54.808 50.5239 54.259C50.5651 54.143 50.6064 54.027 50.6489 53.9075C50.7294 53.6797 50.809 53.4517 50.8878 53.2234C50.9433 53.0667 50.9433 53.0667 51 52.9067C51.0322 52.814 51.0644 52.7212 51.0976 52.6257C51.2227 52.3564 51.3234 52.2081 51.5621 52.031C52.6243 51.8285 53.7984 52.1824 54.8433 52.3899C55.1068 52.4419 55.3703 52.4935 55.634 52.544C55.7969 52.5752 55.9595 52.6072 56.122 52.6402C56.4973 52.7124 56.7 52.7403 57.0699 52.617C57.0092 52.5131 57.0092 52.5131 56.9472 52.4071C56.7512 52.0719 56.5553 51.7365 56.3595 51.4011C56.2866 51.2765 56.2137 51.1518 56.1386 51.0233C55.7381 50.3371 55.3398 49.6497 54.9454 48.9599C54.8663 48.8218 54.7872 48.6837 54.7081 48.5456C54.5565 48.2806 54.4054 48.0155 54.2546 47.7501C54.1852 47.6287 54.1157 47.5074 54.0441 47.3824C53.9833 47.2758 53.9226 47.1691 53.86 47.0592C53.662 46.7425 53.4413 46.4586 53.2027 46.1716ZM29.4137 46.2888C29.369 46.3664 29.3243 46.444 29.2783 46.5239C29.1043 46.8262 28.9301 47.1284 28.7559 47.4306C28.6769 47.5677 28.5979 47.7048 28.5189 47.8419C28.076 48.6108 27.6316 49.3786 27.1821 50.1437C27.1078 50.2703 27.0335 50.3968 26.9569 50.5273C26.815 50.7687 26.6728 51.01 26.5301 51.251C26.4658 51.3605 26.4015 51.47 26.3352 51.5829C26.2789 51.6782 26.2226 51.7736 26.1645 51.8719C26.0127 52.1528 25.8935 52.4356 25.7808 52.7341C25.9019 52.7128 26.0229 52.6915 26.1477 52.6696C26.6024 52.5899 27.0574 52.5116 27.5125 52.4337C27.7084 52.4 27.9042 52.3659 28.0999 52.3314C30.6661 51.8798 30.6661 51.8798 31.2887 52.031C31.7071 52.422 31.8491 53.0176 32.0334 53.5453C32.0694 53.6461 32.1053 53.7469 32.1423 53.8507C32.2565 54.1716 32.3695 54.4929 32.4825 54.8142C32.5599 55.0323 32.6373 55.2503 32.7148 55.4684C32.9044 56.002 33.0929 56.5359 33.2808 57.0701C33.6311 56.7446 33.868 56.4327 34.0966 56.0136C34.1607 55.8972 34.2249 55.7809 34.291 55.6611C34.3928 55.4739 34.3928 55.4739 34.4967 55.283C35.1437 54.109 35.807 52.9469 36.4895 51.7931C36.8509 51.1792 37.1898 50.5633 37.4996 49.9216C37.1194 49.3949 37.1194 49.3949 36.5621 49.1013C36.0425 49.0728 36.0425 49.0728 35.533 49.159C34.0791 49.4918 32.68 49.1134 31.4278 48.3689C30.6236 47.827 30.0283 47.1835 29.648 46.2888C29.5707 46.2888 29.4933 46.2888 29.4137 46.2888Z" fill="#BD8318"/>
<path d="M40.9632 23.5361C44.0155 23.439 46.7413 24.55 48.9846 26.6018C49.7377 27.3452 50.333 28.1465 50.8596 29.0627C50.9211 29.167 50.9825 29.2712 51.0459 29.3786C52.3751 31.8069 52.5875 34.7583 51.8469 37.403C51.0223 40.1163 49.3002 42.4673 46.7891 43.8366C44.099 45.2559 41.1349 45.6792 38.1987 44.8125C35.4864 43.9534 33.1646 42.1249 31.8278 39.6009C30.4484 36.8627 30.1616 33.8751 31.0805 30.9396C31.6312 29.2906 32.5416 27.9658 33.7502 26.719C33.8132 26.6474 33.8762 26.5758 33.9411 26.502C35.6791 24.5941 38.4648 23.693 40.9632 23.5361ZM34.8804 28.3564C33.1636 30.4728 32.381 32.7783 32.5783 35.508C32.8086 37.3453 33.6824 39.0711 34.9221 40.4299C34.9827 40.5012 35.0432 40.5725 35.1056 40.646C36.5437 42.2318 38.7999 43.1248 40.8931 43.2758C43.2244 43.3548 45.5051 42.5582 47.3 41.0598C49.1181 39.3438 50.144 37.1467 50.2732 34.6447C50.2759 32.1237 49.3489 29.9046 47.5783 28.1252C47.4919 28.0347 47.4055 27.9443 47.3165 27.851C45.7625 26.3258 43.5344 25.5899 41.3894 25.5105C38.9522 25.5775 36.5531 26.5567 34.8804 28.3564Z" fill="#BD8318"/>
<path d="M47.1267 28.9329C47.7667 29.3145 48.2423 29.8425 48.4639 30.5584C48.6539 31.5273 48.5584 32.3176 48.0464 33.1636C47.5923 33.7027 47.095 34.1947 46.5939 34.6898C46.4493 34.8344 46.3048 34.9792 46.1604 35.1241C45.8586 35.4262 45.5558 35.7273 45.2523 36.0276C44.8643 36.4116 44.4788 36.7979 44.0939 37.1849C43.7963 37.4838 43.4975 37.7815 43.1984 38.0788C43.0558 38.2208 42.9136 38.3631 42.7716 38.5058C42.5729 38.7052 42.3727 38.903 42.172 39.1005C42.1143 39.1589 42.0566 39.2174 41.9972 39.2776C41.3872 39.8713 40.7649 40.1279 39.9092 40.1289C38.7375 40.0941 38.1974 39.6514 37.4066 38.8215C37.1801 38.5875 36.9497 38.3759 36.7012 38.166C34.3383 36.1217 34.3383 36.1217 34.1816 34.5552C34.2532 33.6672 34.5397 33.0155 35.1924 32.4019C35.8723 31.8499 36.5097 31.6821 37.3823 31.7573C38.4088 31.9615 39.0104 32.5607 39.7261 33.2808C40.079 33.123 40.3183 32.9497 40.5863 32.6722C40.6603 32.5963 40.7343 32.5204 40.8105 32.4422C40.8894 32.3603 40.9682 32.2784 41.0495 32.194C41.2193 32.0206 41.3892 31.8473 41.5592 31.674C41.8254 31.4013 42.0912 31.1281 42.356 30.8539C42.6125 30.5888 42.8709 30.3257 43.1295 30.0627C43.2072 29.9812 43.2849 29.8998 43.3649 29.8159C44.3917 28.7783 45.7277 28.3182 47.1267 28.9329ZM44.9536 31.1526C44.8559 31.2508 44.7582 31.3489 44.6575 31.4501C44.5016 31.611 44.5016 31.611 44.3426 31.7752C44.1779 31.9416 44.0131 32.1081 43.8483 32.2745C43.618 32.5079 43.3891 32.7427 43.1601 32.9774C42.7586 33.3883 42.3547 33.797 41.9512 34.2059C41.7364 34.4237 41.5221 34.642 41.3083 34.8608C41.2117 34.9593 41.1151 35.0579 41.0155 35.1594C40.9304 35.2466 40.8452 35.3337 40.7575 35.4236C40.4753 35.6922 40.3362 35.7378 39.9458 35.8003C39.2935 35.7161 39.0042 35.3783 38.5542 34.9214C38.4713 34.8372 38.3883 34.7531 38.3029 34.6664C38.1454 34.5066 37.9892 34.3456 37.8346 34.183C37.6131 33.9806 37.4262 33.8596 37.1479 33.7495C36.7762 33.7676 36.6156 33.8167 36.3423 34.0718C36.1891 34.3258 36.1891 34.3258 36.2189 34.5999C36.3707 35.0487 36.6647 35.3188 36.9973 35.641C37.0977 35.7408 37.0977 35.7408 37.2001 35.8426C37.3413 35.9826 37.4831 36.122 37.6254 36.2609C37.8436 36.474 38.0602 36.6886 38.2766 36.9035C38.414 37.0394 38.5516 37.1752 38.6892 37.3109C38.7543 37.3751 38.8194 37.4393 38.8864 37.5055C39.3402 37.9581 39.3402 37.9581 39.9384 38.1244C40.4215 38.0741 40.5604 37.923 40.8989 37.5803C40.9529 37.5265 41.0069 37.4728 41.0626 37.4174C41.2403 37.2398 41.4154 37.0598 41.5905 36.8797C41.7141 36.7551 41.8378 36.6307 41.9617 36.5064C42.2873 36.1788 42.6107 35.8491 42.9337 35.5189C43.1964 35.251 43.4607 34.9847 43.7251 34.7184C44.0419 34.3993 44.3581 34.0796 44.674 33.7596C44.7635 33.669 44.7635 33.669 44.8548 33.5765C45.9953 32.5915 45.9953 32.5915 46.5229 31.3179C46.4403 30.9065 46.4403 30.9065 46.0542 30.7026C45.5184 30.6216 45.3233 30.7758 44.9536 31.1526Z" fill="#BD8318"/>
<path d="M9.51694 25.1502C9.62467 25.1496 9.7324 25.1489 9.84339 25.1483C10.1988 25.1468 10.5542 25.1478 10.9097 25.149C11.157 25.1487 11.4044 25.1484 11.6518 25.1479C12.1699 25.1474 12.6881 25.1482 13.2062 25.1498C13.8702 25.1518 14.5342 25.1507 15.1982 25.1486C15.7089 25.1473 16.2196 25.1477 16.7303 25.1486C16.9751 25.1488 17.22 25.1486 17.4648 25.1477C17.807 25.1468 18.1492 25.1482 18.4914 25.1502C18.643 25.1491 18.643 25.1491 18.7977 25.148C19.3428 25.1538 19.7218 25.1811 20.1565 25.5472C20.4112 25.9098 20.4215 26.2261 20.4249 26.6623C20.4264 26.7918 20.4279 26.9212 20.4295 27.0546C20.4297 27.1939 20.43 27.3332 20.4303 27.4767C20.4314 27.6921 20.4314 27.6921 20.4326 27.9119C20.4338 28.2156 20.4344 28.5193 20.4343 28.8229C20.4348 29.2877 20.4391 29.7524 20.4435 30.2171C20.4442 30.5121 20.4447 30.8072 20.4449 31.1022C20.4466 31.2412 20.4483 31.3803 20.45 31.5236C20.4447 32.4874 20.4447 32.4874 20.1678 32.9564C19.6873 33.3633 19.2304 33.3005 18.627 33.3023C18.517 33.3031 18.4071 33.3039 18.2938 33.3047C17.9288 33.307 17.5639 33.3084 17.1989 33.3095C17.0744 33.31 16.95 33.3105 16.8217 33.311C16.1631 33.3134 15.5044 33.3151 14.8457 33.3162C14.1647 33.3175 13.4838 33.3215 12.8028 33.3262C12.2798 33.3292 11.7567 33.3302 11.2336 33.3306C10.9826 33.3312 10.7316 33.3326 10.4805 33.3347C10.1293 33.3376 9.77812 33.3375 9.42685 33.3367C9.32303 33.3382 9.21921 33.3397 9.11225 33.3412C8.63939 33.3372 8.38111 33.3172 7.96579 33.0731C7.58582 32.6453 7.60274 32.286 7.60043 31.73C7.59968 31.6076 7.59893 31.4852 7.59816 31.3591C7.59803 31.2275 7.5979 31.0959 7.59777 30.9603C7.59738 30.8245 7.59699 30.6887 7.59658 30.5487C7.59599 30.2616 7.59572 29.9745 7.59574 29.6873C7.59548 29.2481 7.59335 28.8088 7.59113 28.3696C7.59079 28.0906 7.59055 27.8115 7.59044 27.5325C7.5896 27.4012 7.58876 27.2698 7.58789 27.1345C7.58825 27.0117 7.58861 26.8889 7.58898 26.7624C7.58882 26.6548 7.58865 26.5471 7.58848 26.4363C7.63426 25.9573 7.72393 25.6588 8.09199 25.3377C8.57344 25.1399 9.00115 25.1465 9.51694 25.1502ZM9.60964 27.1878C9.60964 28.5414 9.60964 29.8949 9.60964 31.2894C12.51 31.2894 15.4104 31.2894 18.3987 31.2894C18.3987 29.9359 18.3987 28.5824 18.3987 27.1878C15.4983 27.1878 12.5979 27.1878 9.60964 27.1878Z" fill="#BD8318"/>
</g>
<defs>
<clipPath id="clip0_393_3739">
<rect width="60" height="60" fill="white"/>
</clipPath>
</defs>
</svg>
