<svg width="50" height="50" viewBox="0 0 50 50" fill="none" xmlns="http://www.w3.org/2000/svg">
<g clip-path="url(#clip0_348_127)">
<path d="M11.933 19.0269C12.176 19.0257 12.4191 19.0241 12.6622 19.0222C13.2528 19.0186 13.8434 19.0192 14.434 19.0217C14.9142 19.0237 15.3944 19.024 15.8746 19.023C15.9431 19.0229 16.0115 19.0227 16.0821 19.0226C16.2212 19.0223 16.3603 19.022 16.4994 19.0217C17.8025 19.0192 19.1054 19.0221 20.4084 19.0268C21.5254 19.0308 22.6422 19.0301 23.7591 19.026C25.0576 19.0213 26.3561 19.0195 27.6546 19.0222C27.7932 19.0225 27.9318 19.0227 28.0704 19.023C28.1385 19.0231 28.2067 19.0233 28.277 19.0234C28.7563 19.0242 29.2357 19.0229 29.715 19.0208C30.3608 19.0181 31.0065 19.0201 31.6522 19.0251C31.889 19.0263 32.1258 19.026 32.3626 19.024C34.3754 19.0091 34.3754 19.0091 34.9475 19.564C35.1219 19.795 35.1219 19.795 35.2537 20.0195C35.295 20.0831 35.3364 20.1467 35.3789 20.2122C35.4857 20.3907 35.4857 20.3907 35.6444 20.7336C35.7259 20.9053 35.7259 20.9053 35.8091 21.0804C35.9818 21.493 36.0472 21.8193 36.047 22.2662C36.0472 22.3653 36.0474 22.4644 36.0476 22.5665C36.0473 22.6752 36.047 22.7838 36.0467 22.8958C36.0468 23.0111 36.0469 23.1264 36.047 23.2452C36.0471 23.5659 36.0468 23.8867 36.0463 24.2075C36.0459 24.5584 36.046 24.9094 36.0461 25.2603C36.0462 25.9418 36.0457 26.6233 36.0451 27.3048C36.0444 28.0929 36.0443 28.8811 36.0442 29.6692C36.0437 31.7505 36.0423 33.8318 36.0411 35.9131C36.0391 40.5618 36.0371 45.2104 36.035 50C26.7215 50 17.408 50 7.81232 50C7.80829 45.4963 7.80426 40.9927 7.80011 36.3525C7.79834 34.9306 7.79656 33.5086 7.79472 32.0436C7.79384 30.307 7.79384 30.307 7.79368 29.4939C7.7935 28.9262 7.79278 28.3585 7.7917 27.7907C7.79045 27.1354 7.78989 26.4801 7.79016 25.8248C7.79028 25.4899 7.7901 25.1549 7.78904 24.8199C7.78806 24.4604 7.7883 24.1009 7.78883 23.7413C7.78826 23.638 7.7877 23.5346 7.78711 23.4282C7.79089 22.4765 7.87307 21.5429 8.30671 20.6848C8.35819 20.5787 8.40968 20.4726 8.46273 20.3632C8.53698 20.2474 8.61337 20.133 8.69123 20.0195C8.73462 19.9463 8.77802 19.8731 8.82273 19.7977C9.57424 18.7989 10.8067 19.0177 11.933 19.0269ZM14.9851 27.2667C14.8722 27.3751 14.7599 27.4842 14.6483 27.594C14.5979 27.6434 14.5475 27.6927 14.4956 27.7436C14.093 28.1556 13.7836 28.6156 13.4764 29.1016C13.8249 29.3497 14.1753 29.5952 14.5262 29.8401C14.6254 29.9108 14.7246 29.9815 14.8268 30.0543C14.9225 30.1207 15.0181 30.1871 15.1167 30.2555C15.2047 30.3174 15.2926 30.3793 15.3833 30.443C15.6122 30.5868 15.6122 30.5868 15.8425 30.5477C16.0812 30.4387 16.1677 30.2943 16.3145 30.0781C17.2875 28.7829 18.8873 27.9239 20.4615 27.5833C22.6225 27.3013 24.7267 27.6412 26.5066 28.9478C27.1048 29.4146 27.5982 29.941 28.0272 30.5664C28.3126 30.5078 28.5155 30.4232 28.7558 30.2593C28.818 30.2173 28.8801 30.1754 28.9442 30.1321C29.0082 30.0881 29.0721 30.0441 29.138 29.9988C29.2012 29.9559 29.2644 29.913 29.3295 29.8689C29.4542 29.7843 29.5788 29.6994 29.7032 29.6144C29.9571 29.4415 30.2127 29.2715 30.4686 29.1016C29.2695 26.9826 26.9558 25.538 24.6702 24.8596C21.194 24.0485 17.6322 24.8238 14.9851 27.2667ZM20.5076 30.4687C20.5076 31.4355 20.5076 32.4023 20.5076 33.3984C19.5731 33.3984 18.6385 33.3984 17.6756 33.3984C17.6756 34.333 17.6756 35.2676 17.6756 36.2305C18.6102 36.2305 19.5447 36.2305 20.5076 36.2305C20.5076 37.1973 20.5076 38.1641 20.5076 39.1602C21.4422 39.1602 22.3768 39.1602 23.3397 39.1602C23.3397 38.1934 23.3397 37.2266 23.3397 36.2305C24.3065 36.2305 25.2733 36.2305 26.2694 36.2305C26.2694 35.2959 26.2694 34.3613 26.2694 33.3984C25.3026 33.3984 24.3358 33.3984 23.3397 33.3984C23.3397 32.4316 23.3397 31.4648 23.3397 30.4687C22.4051 30.4687 21.4705 30.4687 20.5076 30.4687ZM15.1262 39.3829C15.0303 39.449 14.9343 39.5151 14.8354 39.5832C14.7354 39.6531 14.6353 39.7229 14.5323 39.7949C14.4311 39.8648 14.33 39.9347 14.2258 40.0066C13.9756 40.1796 13.7258 40.3532 13.4764 40.5273C13.8465 41.1029 14.2801 41.5888 14.7459 42.0898C14.8239 42.1792 14.8239 42.1792 14.9035 42.2703C16.6216 44.1482 19.3482 44.9906 21.811 45.1118C24.1399 45.1598 26.531 44.3732 28.3201 42.8711C28.4028 42.8019 28.4855 42.7326 28.5708 42.6613C29.2953 42.0308 29.9805 41.359 30.4686 40.5273C30.12 40.2792 29.7696 40.0337 29.4188 39.7888C29.3196 39.7181 29.2204 39.6474 29.1182 39.5746C29.0225 39.5082 28.9268 39.4418 28.8283 39.3734C28.7403 39.3115 28.6523 39.2496 28.5617 39.1859C28.3331 39.0427 28.3331 39.0427 28.1045 39.0788C27.8371 39.2031 27.7222 39.405 27.5511 39.6423C26.7954 40.5981 25.7542 41.2878 24.6092 41.6992C24.507 41.7374 24.4048 41.7755 24.2994 41.8148C22.4958 42.394 20.4324 42.2623 18.7376 41.4368C17.5993 40.8512 16.6354 40.1389 15.9178 39.0625C15.5481 39.0625 15.428 39.1736 15.1262 39.3829Z" fill="#BD8318"/>
<path d="M17.6758 -1.49012e-07C22.2816 -0.0157435 22.2816 -0.0157435 24.2142 -0.0190736C25.5477 -0.0213899 26.8812 -0.0241104 28.2146 -0.0294687C29.1859 -0.0333695 30.1571 -0.035884 31.1284 -0.0367535C31.6424 -0.0372615 32.1563 -0.0384503 32.6703 -0.041301C33.1548 -0.0439659 33.6392 -0.0447675 34.1237 -0.0441828C34.3008 -0.0442897 34.478 -0.0450585 34.6551 -0.0465648C36.2722 -0.0596333 37.5912 0.242743 38.8306 1.35498C39.7296 2.30029 40.2344 3.58556 40.2344 4.88281C39.2354 4.88281 38.2363 4.88281 37.207 4.88281C37.0137 4.39941 37.0137 4.39941 36.8164 3.90625C36.5513 3.49097 36.2966 3.30771 35.8398 3.125C35.4176 3.03791 35.0173 3.01544 34.5868 3.01626C34.5229 3.01624 34.459 3.01623 34.3931 3.01621C34.1839 3.01628 33.9746 3.01704 33.7654 3.01781C33.6196 3.01799 33.4737 3.01813 33.3278 3.01823C32.9454 3.0186 32.563 3.01956 32.1806 3.02064C31.7898 3.02164 31.399 3.02208 31.0081 3.02258C30.2424 3.02362 29.4767 3.02529 28.7109 3.02734C28.6881 3.09276 28.6653 3.15817 28.6418 3.22557C28.4267 3.84215 28.2112 4.45859 27.9953 5.07488C27.8843 5.39172 27.7734 5.70861 27.6629 6.02562C27.5359 6.39011 27.4082 6.75436 27.2804 7.11861C27.2408 7.23244 27.2013 7.34628 27.1605 7.46357C27.1234 7.56913 27.0862 7.67468 27.048 7.78344C27.0154 7.87647 26.9829 7.9695 26.9494 8.06535C26.8555 8.30078 26.8555 8.30078 26.6602 8.59375C26.4107 8.61983 26.1853 8.62778 25.9361 8.62236C25.8649 8.62195 25.7936 8.62153 25.7202 8.6211C25.4923 8.61946 25.2645 8.61578 25.0366 8.61206C24.8823 8.61059 24.7279 8.60925 24.5735 8.60806C24.1948 8.60507 23.8162 8.59934 23.4375 8.59375C23.4375 9.56055 23.4375 10.5273 23.4375 11.5234C25.7256 11.5234 28.0137 11.5234 30.3711 11.5234C30.3711 13.1025 30.3711 14.6816 30.3711 16.3086C24.8281 16.3086 19.2852 16.3086 13.5742 16.3086C13.5742 14.7295 13.5742 13.1504 13.5742 11.5234C15.8301 11.5234 18.0859 11.5234 20.4102 11.5234C20.4102 10.5566 20.4102 9.58984 20.4102 8.59375C19.5078 8.59375 18.6055 8.59375 17.6758 8.59375C17.6758 5.75781 17.6758 2.92187 17.6758 -1.49012e-07Z" fill="#BD8318"/>
<path d="M38.378 7.51953C39.1678 7.63059 39.7749 8.74133 40.2335 9.34448C42.2943 12.1045 42.2943 12.1045 42.1653 13.6318C42.0331 14.538 41.6655 15.4975 40.9167 16.0667C40.0254 16.6851 39.1793 16.9985 38.0851 16.8945C36.9825 16.6727 36.1239 16.1958 35.4762 15.263C34.9977 14.4093 34.8026 13.5331 35.036 12.5809C35.5186 11.0625 36.5003 9.80977 37.4991 8.59375C37.5869 8.48583 37.6746 8.37788 37.7623 8.26988C37.9667 8.01905 38.1719 7.76893 38.378 7.51953Z" fill="#BD8318"/>
</g>
<defs>
<clipPath id="clip0_348_127">
<rect width="50" height="50" fill="white"/>
</clipPath>
</defs>
</svg>
