<svg width="50" height="50" viewBox="0 0 50 50" fill="none" xmlns="http://www.w3.org/2000/svg">
<g clip-path="url(#clip0_348_63)">
<path d="M13.0895 29.4723C13.1747 29.4703 13.26 29.4684 13.3478 29.4664C13.4899 29.4639 13.4899 29.4639 13.6348 29.4614C13.7346 29.4593 13.8344 29.4572 13.9372 29.4551C14.2745 29.4482 14.6118 29.4422 14.949 29.4362C15.1898 29.4316 15.4305 29.4269 15.6712 29.4223C17.8014 29.3828 19.9318 29.3583 22.0623 29.3394C22.431 29.3361 22.7997 29.3327 23.1684 29.3292C23.2418 29.3286 23.3152 29.3279 23.3908 29.3272C24.5768 29.3158 25.7624 29.294 26.9481 29.2684C28.1668 29.2423 29.3852 29.227 30.6041 29.2218C31.2881 29.2185 31.9713 29.2103 32.6551 29.1898C36.9338 29.0649 36.9338 29.0649 37.7863 29.7621C38.3942 30.3755 38.6799 31.1438 38.9309 31.9534C39.1373 32.5823 39.522 33.1226 39.8813 33.6731C39.9591 33.7994 40.0364 33.9259 40.1128 34.053C40.2033 34.2012 40.2033 34.2012 40.2956 34.3525C40.7537 35.105 41.2027 35.8629 41.6513 36.6211C42.2039 37.5547 42.76 38.4858 43.3245 39.4122C43.5954 39.8569 43.8654 40.3021 44.1356 40.7473C44.2425 40.9233 44.3496 41.0993 44.4568 41.2752C44.6377 41.5727 44.8177 41.8707 44.9969 42.1692C45.0961 42.3339 45.1962 42.4979 45.2963 42.662C46.1296 44.0545 46.4997 45.3277 46.1012 46.9379C45.7406 48.0726 45.0644 48.9597 44.0065 49.5179C43.339 49.8527 42.8133 50.0119 42.0678 50.0131C41.8827 50.0138 41.8827 50.0138 41.6939 50.0144C41.5572 50.0144 41.4205 50.0144 41.2838 50.0144C41.1384 50.0147 40.993 50.0151 40.8476 50.0155C40.4479 50.0164 40.0482 50.0168 39.6485 50.0171C39.2175 50.0174 38.7864 50.0184 38.3554 50.0192C37.3143 50.0212 36.2733 50.0221 35.2322 50.023C34.7418 50.0234 34.2514 50.024 33.761 50.0245C32.1305 50.0261 30.5 50.0275 28.8695 50.0283C28.4465 50.0284 28.0235 50.0286 27.6005 50.0288C27.4953 50.0289 27.3902 50.0289 27.2818 50.029C25.5789 50.0298 23.8759 50.0322 22.173 50.0354C20.4241 50.0387 18.6752 50.0404 16.9263 50.0407C15.9446 50.0409 14.9628 50.0418 13.9811 50.0443C13.145 50.0464 12.3089 50.0472 11.4727 50.0462C11.0464 50.0458 10.62 50.046 10.1936 50.0479C9.80271 50.0496 9.41183 50.0495 9.02091 50.048C8.88007 50.0478 8.73923 50.0482 8.5984 50.0493C7.16562 50.0604 6.03885 49.7357 4.98142 48.7423C4.16717 47.8736 3.77496 46.8174 3.77292 45.636C3.76933 45.5296 3.76933 45.5296 3.76567 45.421C3.7591 44.16 4.41169 43.1292 5.04856 42.0898C5.13195 41.9518 5.21523 41.8137 5.29842 41.6756C5.50949 41.3257 5.72189 40.9766 5.9348 40.6278C6.11762 40.3281 6.29967 40.0279 6.48174 39.7278C6.68394 39.3946 6.88627 39.0615 7.08911 38.7287C7.61382 37.8673 8.12975 37.0008 8.64353 36.1328C9.43099 34.8027 10.2292 33.4796 11.0341 32.1599C11.2349 31.8302 11.4352 31.5001 11.6354 31.1699C11.6991 31.065 11.7627 30.9601 11.8283 30.852C11.9484 30.6539 12.0685 30.4559 12.1885 30.2578C12.2412 30.1709 12.294 30.0841 12.3484 29.9946C12.4177 29.8803 12.4177 29.8803 12.4884 29.7637C12.673 29.4725 12.7489 29.4791 13.0895 29.4723ZM28.0283 32.4219C28.0283 36.2891 28.0283 40.1562 28.0283 44.1406C29.9297 44.1406 31.831 44.1406 33.79 44.1406C33.79 43.1738 33.79 42.207 33.79 41.2109C32.8232 41.2109 31.8564 41.2109 30.8603 41.2109C30.8603 38.3105 30.8603 35.4102 30.8603 32.4219C29.9258 32.4219 28.9912 32.4219 28.0283 32.4219ZM17.7744 34.082C17.2612 34.7077 16.8951 35.3804 16.6025 36.1328C16.5555 36.2472 16.5555 36.2472 16.5075 36.364C15.9582 37.9635 16.2639 39.7208 16.9332 41.2216C17.5938 42.5319 18.6621 43.4629 20.0437 43.9568C21.4426 44.285 22.686 44.0555 23.9084 43.3289C24.359 43.0306 24.6762 42.7152 25.0009 42.2852C24.9359 42.2319 24.8708 42.1787 24.8037 42.1238C24.1533 41.5916 23.5029 41.0595 22.8525 40.5273C22.7836 40.5785 22.7836 40.5785 22.7133 40.6307C22.6525 40.6752 22.5917 40.7196 22.529 40.7654C22.469 40.8096 22.4089 40.8537 22.3471 40.8993C21.8814 41.2034 21.3357 41.1755 20.8017 41.1133C20.1411 40.8822 19.7377 40.3582 19.4345 39.7461C19.093 38.7565 19.093 37.6219 19.5063 36.6543C19.8106 36.0917 20.178 35.6493 20.8017 35.4492C21.5095 35.3634 21.9777 35.4277 22.5595 35.8398C22.7046 35.9365 22.7046 35.9365 22.8525 36.0352C22.934 35.9655 23.0154 35.8959 23.0993 35.8242C23.7222 35.2935 24.3483 34.7714 25.0009 34.2773C24.2768 33.3183 23.3319 32.8252 22.1811 32.55C20.5091 32.3828 18.9457 32.8287 17.7744 34.082Z" fill="#BD8318"/>
<path d="M16.2109 0C22.0439 0 27.877 0 33.8867 0C33.8867 2.90039 33.8867 5.80078 33.8867 8.78906C32.9199 8.78906 31.9531 8.78906 30.957 8.78906C30.9276 10.0594 30.9065 11.3291 30.8991 12.5998C30.8953 13.1902 30.8883 13.7801 30.873 14.3703C30.8012 17.2403 30.868 19.4241 32.6674 21.7445C33.0561 22.2527 33.3714 22.809 33.6951 23.3598C33.8609 23.6403 34.0312 23.9179 34.201 24.1959C34.5247 24.7285 34.8456 25.2628 35.1624 25.7996C35.2026 25.8675 35.2428 25.9354 35.2843 26.0053C35.5469 26.4528 35.5469 26.4528 35.5469 26.5625C28.5859 26.5625 21.625 26.5625 14.4531 26.5625C15.1131 25.3526 15.1131 25.3526 15.4438 24.7959C15.4797 24.7354 15.5156 24.675 15.5525 24.6127C15.668 24.4182 15.7838 24.2238 15.8997 24.0295C15.9811 23.8927 16.0625 23.7559 16.1438 23.6191C16.6951 22.6934 17.2508 21.7705 17.8101 20.8496C17.8444 20.793 17.8788 20.7364 17.9143 20.678C18.5391 19.6498 18.5391 19.6498 18.6767 19.4653C19.0623 18.9228 19.1134 18.4905 19.1074 17.8356C19.1089 17.6883 19.1089 17.6883 19.1105 17.538C19.1133 17.2156 19.1127 16.8934 19.112 16.571C19.1133 16.3466 19.1148 16.1222 19.1165 15.8978C19.1204 15.309 19.1214 14.7201 19.1218 14.1312C19.1227 13.5296 19.1263 12.928 19.1298 12.3264C19.1361 11.1473 19.1391 9.9682 19.1406 8.78906C18.1738 8.78906 17.207 8.78906 16.2109 8.78906C16.2109 5.88867 16.2109 2.98828 16.2109 0Z" fill="#BD8318"/>
</g>
<defs>
<clipPath id="clip0_348_63">
<rect width="50" height="50" fill="white"/>
</clipPath>
</defs>
</svg>
