<svg width="50" height="50" viewBox="0 0 50 50" fill="none" xmlns="http://www.w3.org/2000/svg">
<g clip-path="url(#clip0_348_134)">
<path d="M34.7648 6.15234C35.0157 6.40323 35.1543 6.58624 35.3271 6.88705C35.4054 7.02234 35.4054 7.02234 35.4852 7.16035C35.5416 7.25874 35.5979 7.35713 35.656 7.4585C35.7794 7.67201 35.9029 7.88551 36.0264 8.09898C36.092 8.21277 36.1577 8.32656 36.2233 8.44035C36.5628 9.02798 36.9059 9.61348 37.249 10.199C37.2839 10.2586 37.3187 10.3181 37.3547 10.3795C37.8995 11.3097 38.4526 12.2346 39.0093 13.1578C39.5193 14.006 40.0143 14.8625 40.5072 15.7207C40.8144 16.2552 41.1234 16.788 41.4421 17.3157C41.5454 17.4875 41.6487 17.6593 41.752 17.8311C41.8656 18.0197 41.9795 18.208 42.0934 18.3963C42.2861 18.7148 42.4773 19.0342 42.6678 19.3539C42.7455 19.4837 42.8236 19.6133 42.9021 19.7426C43.013 19.9252 43.1222 20.1086 43.2312 20.2923C43.2956 20.3996 43.3601 20.5068 43.4265 20.6174C43.5539 20.8984 43.5539 20.8984 43.5451 21.1185C43.3812 21.4331 43.0341 21.5581 42.7299 21.7163C42.5872 21.7931 42.4445 21.87 42.3019 21.9471C42.2321 21.9844 42.1624 22.0218 42.0905 22.0603C41.7532 22.2449 41.429 22.4505 41.1045 22.6566C40.9172 22.7539 40.9172 22.7539 40.6242 22.7539C40.4735 22.5442 40.3434 22.342 40.2153 22.1191C40.1793 22.0586 40.1434 21.998 40.1064 21.9357C40.0176 21.7858 39.9302 21.6352 39.843 21.4844C39.7217 21.5575 39.7217 21.5575 39.5981 21.632C38.195 22.4765 36.7849 23.309 35.371 24.1352C35.0707 24.3108 34.7707 24.4867 34.4711 24.6635C34.351 24.7343 34.2308 24.8052 34.1106 24.876C34.0513 24.911 33.992 24.946 33.9309 24.982C33.5275 25.2189 33.1208 25.4487 32.7122 25.6763C31.5921 26.3085 30.7137 26.8593 30.0073 27.9427C29.7655 28.2946 29.4849 28.6161 29.2106 28.9429C29.0942 29.0835 28.9778 29.2243 28.8616 29.3652C28.7752 29.4697 28.7752 29.4697 28.6871 29.5763C28.0136 30.3929 27.3467 31.2146 26.696 32.0496C26.3089 32.5462 25.9084 33.0289 25.499 33.5073C25.1361 33.9333 24.7902 34.3708 24.4467 34.8125C24.0217 35.3572 23.5824 35.8896 23.1421 36.422C22.784 36.8551 22.4298 37.2908 22.0802 37.7308C21.8083 38.0707 21.5328 38.4077 21.2578 38.7451C20.8982 39.1861 20.5416 39.6289 20.1925 40.0782C19.9736 40.3595 19.7521 40.6388 19.5305 40.918C19.4612 41.006 19.4612 41.006 19.3906 41.0959C18.21 42.5863 16.8327 43.5844 14.8865 43.8259C13.0841 43.9424 11.521 43.4428 10.1372 42.2607C9.34284 41.5625 8.83471 40.5922 8.31199 39.6873C8.16812 39.4383 8.0233 39.1898 7.87855 38.9413C7.80361 38.8126 7.72872 38.6839 7.65387 38.5551C7.28704 37.9245 6.91496 37.2971 6.54218 36.6699C5.96674 35.7008 5.3954 34.7293 4.82609 33.7565C4.32658 32.9032 3.82427 32.0515 3.31953 31.2012C3.09332 30.8197 2.86721 30.4381 2.64119 30.0565C2.57069 29.9375 2.50017 29.8185 2.42964 29.6995C2.20458 29.3198 1.97996 28.9398 1.75588 28.5595C1.68484 28.4391 1.61367 28.3188 1.54235 28.1985C0.386014 26.2482 -0.339005 24.5766 0.0667335 22.2729C0.400897 21.1054 1.00424 20.1909 1.85468 19.3359C1.90529 19.2819 1.95589 19.2279 2.00803 19.1723C3.01546 18.1939 4.43257 17.8361 5.77133 17.619C5.92905 17.5916 6.08672 17.5638 6.24436 17.5359C6.5714 17.4784 6.89863 17.4223 7.22612 17.3674C7.69508 17.2888 8.16331 17.2064 8.63143 17.123C9.48938 16.9705 10.3479 16.8217 11.2066 16.6733C11.6322 16.5997 12.0576 16.5257 12.4831 16.4517C13.9205 16.2017 15.3579 15.9522 16.7955 15.7036C17.597 15.565 18.3984 15.4258 19.1997 15.2862C19.7025 15.1986 20.2054 15.1116 20.7084 15.025C21.0201 14.9712 21.3317 14.9169 21.6432 14.8624C21.7867 14.8374 21.9303 14.8126 22.0739 14.7881C23.4072 14.5749 23.4072 14.5749 24.6315 14.0312C24.7021 13.9879 24.7728 13.9445 24.8456 13.8998C24.9205 13.8528 24.9953 13.8058 25.0725 13.7573C25.244 13.652 25.4157 13.5468 25.5874 13.4418C25.6803 13.3849 25.7732 13.328 25.8689 13.2693C26.3733 12.9633 26.8828 12.6661 27.3923 12.3686C27.6964 12.191 28.0003 12.013 28.3043 11.8351C28.3933 11.783 28.3933 11.783 28.4841 11.7298C29.8665 10.9206 31.2446 10.1043 32.6164 9.27734C32.5547 9.15555 32.5547 9.15555 32.4917 9.0313C32.4382 8.92517 32.3847 8.81905 32.3295 8.70972C32.2497 8.55167 32.2497 8.55167 32.1682 8.39043C32.0305 8.10547 32.0305 8.10547 31.9328 7.8125C32.8674 7.26465 33.8019 6.7168 34.7648 6.15234ZM33.7089 12.5427C33.0273 12.9584 32.34 13.3641 31.6507 13.7671C30.6279 14.3649 29.6069 14.9655 28.5881 15.5701C27.6209 16.144 26.6528 16.716 25.6828 17.2852C25.9552 17.4668 26.1768 17.564 26.4825 17.6739C26.6385 17.7303 26.6385 17.7303 26.7977 17.7878C26.9108 17.8283 27.0239 17.8687 27.1404 17.9104C27.3167 17.974 27.3167 17.974 27.4965 18.0389C28.0737 18.2474 28.6517 18.4541 29.2296 18.6607C29.5528 18.7762 29.8759 18.892 30.199 19.0079C30.2944 19.042 30.2944 19.042 30.3916 19.0769C31.1423 19.3462 31.888 19.6239 32.6259 19.9265C32.76 19.9803 32.894 20.0341 33.0281 20.0878C33.2576 20.1812 33.4858 20.278 33.7121 20.379C34.1454 20.5527 34.4203 20.6507 34.8761 20.5124C35.179 20.3651 35.4582 20.2016 35.7414 20.0195C35.8747 19.9429 36.0082 19.8666 36.1419 19.7906C36.2569 19.7209 36.3716 19.6507 36.486 19.5801C36.6095 19.5049 36.733 19.4298 36.8564 19.3546C36.9449 19.3005 36.9449 19.3005 37.0351 19.2452C37.2845 19.0928 37.5353 18.9428 37.7861 18.7927C37.8635 18.7463 37.9409 18.6998 38.0207 18.652C38.0742 18.6199 38.1277 18.5878 38.1828 18.5547C37.8195 17.7895 37.4141 17.0622 36.9735 16.3395C36.729 15.9381 36.4907 15.5332 36.2527 15.1279C35.8053 14.3665 35.3554 13.6065 34.893 12.854C34.853 12.7878 34.813 12.7216 34.7717 12.6534C34.6772 12.5011 34.5753 12.3534 34.4719 12.207C34.1629 12.207 33.9706 12.3816 33.7089 12.5427Z" fill="#BD8318"/>
<path d="M45.41 28.5156C45.8381 28.6759 46.0984 28.9979 46.3987 29.3274C46.4548 29.3886 46.5109 29.4498 46.5686 29.5128C48.403 31.5398 50.1274 34.0168 50.041 36.8473C49.9862 37.7023 49.6438 38.4855 49.1209 39.1602C49.0645 39.2407 49.0081 39.3213 48.95 39.4043C48.1437 40.3002 46.9973 40.8275 45.8006 40.918C44.6312 40.9409 43.6121 40.6495 42.6756 39.9414C42.597 39.889 42.5185 39.8367 42.4376 39.7827C41.5483 38.9585 41.0143 37.8417 40.9576 36.6332C40.9205 33.8703 42.7008 31.4141 44.5311 29.4922C44.7158 29.2838 44.8982 29.0737 45.0804 28.8631C45.186 28.7434 45.2971 28.6285 45.41 28.5156Z" fill="#BD8318"/>
</g>
<defs>
<clipPath id="clip0_348_134">
<rect width="50" height="50" fill="white"/>
</clipPath>
</defs>
</svg>
