<svg width="60" height="60" viewBox="0 0 60 60" fill="none" xmlns="http://www.w3.org/2000/svg">
<g clip-path="url(#clip0_393_3707)">
<path d="M21.5544 35.7278C21.7381 35.7786 21.9219 35.8292 22.1057 35.8796C22.5305 35.9964 22.9548 36.1147 23.3789 36.2337C24.1886 36.4601 25.0002 36.6798 25.8118 36.8992C31.502 38.4374 31.502 38.4374 33.221 38.9413C33.3106 38.9669 33.4002 38.9926 33.4925 39.0191C34.9612 39.4578 36.1355 40.2813 36.8918 41.6439C37.1234 42.1606 37.2572 42.692 37.382 43.2424C38.3297 42.7308 39.2675 42.2032 40.2019 41.6677C40.346 41.5852 40.4901 41.5028 40.6342 41.4203C42.2245 40.5098 43.8115 39.5933 45.3979 38.6759C45.531 38.599 45.6641 38.522 45.8012 38.4428C45.9332 38.3664 46.0652 38.2901 46.2012 38.2115C46.5858 37.9895 46.9707 37.7681 47.3558 37.5469C47.774 37.3065 48.1904 37.0636 48.6046 36.8163C50.0224 35.9775 51.3155 35.5242 52.9533 35.8743C54.1556 36.2013 55.0628 36.8296 55.7805 37.8518C56.5085 39.1721 56.7043 40.457 56.2932 41.9241C55.7005 43.6565 54.2696 44.5762 52.7263 45.425C52.5804 45.5066 52.4346 45.5883 52.2889 45.6701C52.0665 45.7951 51.8439 45.92 51.6212 46.0444C50.9272 46.4321 50.2404 46.8317 49.5549 47.2341C48.2069 48.023 46.8544 48.8037 45.501 49.5833C44.8649 49.9499 44.2289 50.3169 43.593 50.6838C43.3391 50.8303 43.0852 50.9768 42.8313 51.1233C42.7056 51.1958 42.5799 51.2683 42.4504 51.343C42.0695 51.5627 41.6887 51.7825 41.3078 52.0022C41.1821 52.0747 41.0563 52.1473 40.9267 52.222C40.6736 52.3681 40.4205 52.5141 40.1673 52.6601C39.5206 53.0331 38.8741 53.4065 38.228 53.7806C37.5926 54.1484 36.9566 54.5152 36.32 54.8807C36.0994 55.0074 35.8789 55.1342 35.6586 55.2613C32.6543 56.9908 30.3184 57.1828 26.9454 56.3758C26.7032 56.3179 26.4609 56.261 26.2184 56.2043C25.617 56.0633 25.0158 55.921 24.4147 55.7785C23.9041 55.6574 23.3934 55.537 22.8824 55.4176C22.6471 55.3623 22.4121 55.306 22.177 55.2497C19.9876 54.7373 18.1451 54.5316 16.0539 55.5471C15.9075 55.5999 15.9075 55.5999 15.7582 55.6538C15.4574 55.7841 15.3063 55.8634 15.1164 56.133C15.0658 56.5975 15.0791 57.0037 15.1178 57.4697C15.1158 58.0893 14.9004 58.3242 14.5003 58.7748C13.9465 59.2112 13.2293 59.3382 12.5581 59.5075C12.3194 59.5679 12.0817 59.6315 11.8439 59.6956C10.0615 60.1657 10.0615 60.1657 9.22774 59.8611C8.59701 59.4454 8.35162 58.9264 8.14942 58.2186C8.12498 58.1367 8.10054 58.0549 8.07536 57.9705C7.79523 57.0214 7.54236 56.0648 7.2914 55.1077C7.23921 54.91 7.18698 54.7123 7.13472 54.5146C6.99618 53.9903 6.85814 53.4659 6.72021 52.9415C6.49045 52.0681 6.25994 51.1949 6.02946 50.3217C5.97168 50.1028 5.91392 49.8839 5.85618 49.665C5.50102 48.3186 5.1427 46.9732 4.77741 45.6296C4.71346 45.3943 4.64964 45.159 4.58585 44.9237C4.35343 44.0666 4.35343 44.0666 4.1189 43.21C4.01464 42.831 3.91157 42.4517 3.80873 42.0724C3.77847 41.9639 3.7482 41.8555 3.71702 41.7438C3.52221 41.0193 3.35026 40.2932 3.69795 39.5876C3.73194 39.5135 3.76593 39.4393 3.80095 39.3629C4.40016 38.6345 5.42353 38.4637 6.29073 38.2326C6.42057 38.1956 6.5504 38.1586 6.68418 38.1205C7.65573 37.8582 8.71554 37.6101 9.66719 38.0349C10.1057 38.4625 10.3512 38.9077 10.5461 39.4924C10.6002 39.4501 10.6543 39.4077 10.71 39.3641C11.2611 38.9331 11.8135 38.5039 12.3669 38.0758C12.6306 37.8711 12.893 37.665 13.1554 37.4586C15.7742 35.4186 18.3487 34.8039 21.5544 35.7278ZM14.3206 39.1364C13.5722 39.752 12.7958 40.3276 12.0139 40.9C11.8699 41.0065 11.8699 41.0065 11.723 41.1152C11.5943 41.2095 11.5943 41.2095 11.4631 41.3056C11.221 41.4911 11.221 41.4911 11.0148 41.8362C11.0781 42.1871 11.1555 42.5139 11.2516 42.8561C11.2936 43.0125 11.2936 43.0125 11.3364 43.1721C11.4296 43.5182 11.525 43.8637 11.6205 44.2092C11.6858 44.4499 11.751 44.6907 11.816 44.9315C11.9881 45.5671 12.162 46.2022 12.3364 46.8373C12.5123 47.4794 12.6865 48.1219 12.8608 48.7644C13.1969 50.0024 13.5351 51.2397 13.874 52.4769C14.0151 52.9924 14.1557 53.508 14.2961 54.0237C14.7198 54.0237 14.9001 53.9037 15.2702 53.7014C17.9127 52.3754 20.5779 52.7664 23.3562 53.4524C23.6087 53.5121 23.8612 53.5715 24.1139 53.6306C24.7198 53.7728 25.325 53.9179 25.9299 54.0641C29.27 54.8674 31.6155 55.361 34.6867 53.5183C34.936 53.3708 35.1853 53.2234 35.4347 53.0761C35.5625 53.0003 35.6904 52.9245 35.8221 52.8464C36.4517 52.4749 37.0853 52.1104 37.7189 51.7458C37.975 51.5983 38.231 51.4507 38.4871 51.3032C38.6142 51.2299 38.7414 51.1567 38.8724 51.0812C39.5086 50.7147 40.1445 50.3477 40.7805 49.9807C41.0344 49.8342 41.2883 49.6877 41.5422 49.5412C41.6679 49.4687 41.7936 49.3962 41.923 49.3215C46.1125 46.9045 46.1125 46.9045 46.4936 46.6847C46.7467 46.5387 46.9997 46.3927 47.2528 46.2466C48.0331 45.7964 48.8136 45.3465 49.5944 44.897C49.9777 44.676 50.3607 44.4543 50.7437 44.2326C51.1788 43.9808 51.6152 43.7319 52.0538 43.4864C52.1907 43.4088 52.1907 43.4088 52.3303 43.3295C52.4934 43.237 52.6571 43.1456 52.8217 43.0557C53.5944 42.6134 54.1611 41.9927 54.436 41.1367C54.6074 40.4 54.5143 39.8315 54.1856 39.1615C53.7679 38.5079 53.1392 38.0106 52.3967 37.7785C50.9484 37.523 49.6999 38.4841 48.5148 39.1848C48.2656 39.3312 48.0162 39.4775 47.7669 39.6238C47.639 39.6989 47.5112 39.7739 47.3795 39.8512C46.7488 40.2203 46.1158 40.5852 45.4826 40.9499C45.3562 41.0228 45.2297 41.0957 45.0995 41.1707C44.8427 41.3187 44.5859 41.4666 44.3292 41.6146C43.693 41.9811 43.057 42.3481 42.4211 42.7151C42.1701 42.8599 41.9191 43.0047 41.6681 43.1495C41.2018 43.4185 40.7356 43.6875 40.2693 43.9566C40.0597 44.0776 39.8501 44.1986 39.6404 44.3195C39.3773 44.4713 39.1143 44.6232 38.8512 44.775C38.7321 44.8437 38.613 44.9125 38.4903 44.9833C38.3792 45.0479 38.2681 45.1125 38.1537 45.179C37.9694 45.2842 37.7834 45.3865 37.5948 45.4838C37.1159 45.7325 36.9061 45.944 36.6862 46.4358C36.0308 47.7277 35.0678 48.3357 33.7346 48.8454C32.677 49.1627 31.5343 49.0144 30.4899 48.7283C30.3781 48.6987 30.2663 48.6692 30.1511 48.6388C29.8805 48.5667 29.6102 48.4937 29.34 48.4201C28.8291 48.2811 28.3167 48.1476 27.8044 48.0138C27.3024 47.8822 26.8011 47.7483 26.2998 47.6139C26.0466 47.5463 25.7933 47.4795 25.5397 47.4134C25.1791 47.319 24.8194 47.2218 24.4598 47.1238C24.2952 47.0817 24.2952 47.0817 24.1273 47.0387C23.3812 46.8309 23.3812 46.8309 23.0716 46.4651C22.936 46.0816 22.9674 45.856 23.0852 45.469C23.2395 45.2752 23.2395 45.2752 23.4367 45.1174C24.3133 45.0207 25.0773 45.2429 25.9162 45.4864C26.1516 45.5546 26.3873 45.6211 26.6233 45.6872C27.2087 45.8516 27.7934 46.0189 28.378 46.1861C28.8736 46.3277 29.3695 46.4682 29.8658 46.6072C30.0965 46.6723 30.3266 46.739 30.5568 46.8059C31.8291 47.1633 32.783 47.2637 33.9836 46.6409C34.7183 46.1557 35.1153 45.4723 35.3898 44.6487C35.5033 43.6354 35.2495 42.8326 34.716 41.9753C33.8625 41.1455 32.8189 40.8936 31.7039 40.591C31.5228 40.5407 31.3417 40.4903 31.1607 40.4398C30.5788 40.278 29.9961 40.1195 29.4133 39.9612C29.2171 39.9077 29.021 39.8541 28.8248 39.8006C27.5316 39.448 26.2371 39.1 24.9422 38.7536C24.2247 38.5615 23.5073 38.3689 22.7899 38.1763C22.4113 38.0747 22.0327 37.9733 21.654 37.8719C21.4826 37.826 21.3112 37.7801 21.1398 37.7341C20.9916 37.6945 20.8434 37.6548 20.6907 37.614C20.404 37.536 20.1182 37.4547 19.8332 37.3706C17.7153 36.788 15.8983 37.8381 14.3206 39.1364ZM7.60405 39.9863C7.48887 40.0184 7.37368 40.0505 7.25501 40.0836C7.07498 40.1354 7.07498 40.1354 6.89131 40.1882C6.70925 40.2393 6.70925 40.2393 6.5235 40.2914C6.22348 40.3758 5.92375 40.461 5.62422 40.5471C5.69689 41.2573 5.83944 41.9205 6.02657 42.6087C6.05557 42.7173 6.08456 42.826 6.11443 42.9379C6.2103 43.2963 6.30704 43.6546 6.4038 44.0128C6.47181 44.2665 6.53978 44.5201 6.60769 44.7737C6.7872 45.4436 6.96747 46.1133 7.14789 46.7829C7.32688 47.4478 7.50514 48.1129 7.68347 48.7779C7.99313 49.9323 8.30357 51.0865 8.61456 52.2405C8.80307 52.9401 8.99126 53.6397 9.17907 54.3395C9.28936 54.7503 9.39986 55.1611 9.51041 55.5719C9.56105 55.7602 9.6116 55.9485 9.66207 56.1369C9.73031 56.3915 9.79886 56.6461 9.86749 56.9006C9.90549 57.042 9.94348 57.1834 9.98262 57.3291C10.0641 57.6476 10.0641 57.6476 10.1945 57.8909C10.8892 57.8222 11.5209 57.6793 12.1867 57.4734C12.349 57.4238 12.5113 57.3744 12.6736 57.325C12.8002 57.2864 12.8002 57.2864 12.9293 57.2471C13.0258 57.2177 13.0258 57.2177 13.1242 57.1877C12.8275 55.896 12.5077 54.6134 12.1588 53.3347C12.1117 53.1609 12.0645 52.987 12.0175 52.8132C11.8925 52.3521 11.7672 51.8911 11.6417 51.4302C11.4049 50.5602 11.1686 49.69 10.9325 48.8198C10.893 48.6747 10.893 48.6747 10.8528 48.5266C10.5103 47.2651 10.1726 46.0026 9.84163 44.738C9.77986 44.5022 9.71789 44.2664 9.65584 44.0307C9.63598 43.9552 9.61613 43.8797 9.59566 43.802C9.57611 43.7277 9.55656 43.6534 9.53642 43.5768C9.42271 43.1447 9.3095 42.7124 9.19791 42.2796C9.09668 41.8872 8.99372 41.4952 8.89037 41.1033C8.86117 40.9879 8.83198 40.8725 8.8019 40.7536C8.77421 40.6498 8.74652 40.5461 8.71799 40.4393C8.69461 40.3491 8.67124 40.2589 8.64715 40.166C8.601 40.0646 8.601 40.0646 8.55391 39.9612C8.14453 39.8247 8.01154 39.8709 7.60405 39.9863Z" fill="#BD8318"/>
<path d="M45.9826 0.078318C46.1731 0.114078 46.3633 0.150782 46.5534 0.188296C46.7057 0.217841 46.7057 0.217841 46.861 0.247984C47.0744 0.289735 47.2877 0.331912 47.5009 0.374491C47.8264 0.439048 48.1523 0.500941 48.4783 0.562746C48.6863 0.603783 48.8943 0.644976 49.1022 0.686343C49.1992 0.70443 49.2961 0.722517 49.396 0.741153C49.947 0.854393 50.3593 0.965309 50.742 1.40595C50.9652 2.11824 50.7662 2.66547 50.5282 3.34091C50.4927 3.44529 50.4572 3.54966 50.4207 3.65719C50.3456 3.87682 50.2696 4.09614 50.1928 4.31518C50.0757 4.64997 49.962 4.98579 49.8486 5.32189C49.7751 5.53566 49.7013 5.74936 49.6273 5.96298C49.5935 6.06309 49.5596 6.16319 49.5248 6.26633C49.3439 6.77597 49.1951 7.16235 48.7498 7.4997C48.3286 7.63411 48.1325 7.65395 47.7244 7.47772C47.4413 7.24968 47.3232 7.14534 47.2263 6.79657C47.2546 6.11722 47.489 5.50936 47.7139 4.87168C47.8244 4.58576 47.8244 4.58576 47.8123 4.33563C47.7359 4.37968 47.6596 4.42372 47.5809 4.4691C44.3573 6.32891 41.1336 8.18872 37.9099 10.0485C37.784 10.1212 37.6582 10.1938 37.5285 10.2686C37.2766 10.4139 37.0247 10.5592 36.7728 10.7044C36.1781 11.0472 35.5837 11.3905 34.9904 11.7355C34.7103 11.8984 34.4301 12.0609 34.1499 12.2235C33.9523 12.3382 33.755 12.4534 33.5577 12.5685C33.4379 12.638 33.318 12.7075 33.1945 12.7791C33.0367 12.8709 33.0367 12.8709 32.8758 12.9646C32.587 13.1198 32.2986 13.2439 31.992 13.3591C32.0282 13.492 32.0645 13.6249 32.1018 13.7619C32.4156 15.0347 32.7113 17.0766 32.1091 18.2809C32.2374 18.2779 32.3657 18.2748 32.4979 18.2716C32.975 18.261 33.4522 18.2543 33.9295 18.2488C34.1358 18.2458 34.3421 18.2418 34.5484 18.2367C34.8454 18.2296 35.1423 18.2263 35.4394 18.2237C35.5771 18.2192 35.5771 18.2192 35.7176 18.2146C35.8044 18.2145 35.8911 18.2145 35.9805 18.2144C36.0563 18.2131 36.132 18.2118 36.21 18.2105C36.6311 18.3367 36.7763 18.5068 37.031 18.8669C37.1177 19.3488 37.1074 19.8252 37.1013 20.3137C37.1017 20.4605 37.1022 20.6072 37.1027 20.7585C37.1033 21.1602 37.1014 21.5617 37.0982 21.9635C37.0954 22.3841 37.0957 22.8048 37.0957 23.2254C37.0951 23.9317 37.0923 24.6379 37.0881 25.3441C37.0832 26.1604 37.0811 26.9767 37.0808 27.793C37.0803 28.6625 37.0781 29.5321 37.0752 30.4016C37.0745 30.652 37.0741 30.9024 37.0737 31.1528C37.0729 31.6193 37.07 32.0859 37.0669 32.5524C37.0668 32.6912 37.0668 32.8299 37.0667 32.9729C37.0649 33.1634 37.0649 33.1634 37.0631 33.3577C37.0626 33.468 37.0621 33.5783 37.0615 33.6919C37.0292 34.0012 36.9614 34.1908 36.7966 34.4528C36.4425 34.6953 36.1456 34.7168 35.7227 34.7175C35.6023 34.7183 35.4818 34.719 35.3577 34.7198C35.2283 34.7193 35.0989 34.7188 34.9656 34.7183C34.8321 34.7186 34.6986 34.7188 34.5611 34.719C34.279 34.7192 33.9969 34.7187 33.7148 34.7178C33.2827 34.7165 32.8507 34.7177 32.4186 34.7192C32.1445 34.7191 31.8705 34.7188 31.5965 34.7183C31.467 34.7188 31.3376 34.7193 31.2043 34.7198C31.0839 34.719 30.9634 34.7183 30.8393 34.7175C30.6806 34.7172 30.6806 34.7172 30.5187 34.717C30.2095 34.6846 30.0254 34.6218 29.7654 34.4528C29.4742 34.016 29.4951 33.6745 29.4937 33.1685C29.4919 33.0261 29.4919 33.0261 29.4901 32.8808C29.4865 32.567 29.4845 32.2531 29.4825 31.9392C29.4803 31.7217 29.478 31.5041 29.4756 31.2865C29.4696 30.7138 29.465 30.141 29.4606 29.5683C29.4559 28.9838 29.4499 28.3994 29.444 27.815C29.4327 26.6683 29.4228 25.5215 29.4138 24.3747C29.3669 24.4315 29.3199 24.4883 29.2715 24.5468C28.8816 25.0065 28.51 25.3744 28.0219 25.7294C27.5503 26.1419 27.46 26.4354 27.4158 27.0568C27.4142 27.3766 27.4181 27.6932 27.4267 28.0125C27.4272 28.1832 27.4272 28.3539 27.4267 28.5245C27.4265 28.9716 27.4321 29.4183 27.4394 29.8653C27.4504 30.5817 27.4537 31.2981 27.4546 32.0145C27.456 32.2639 27.4606 32.5131 27.4656 32.7625C27.4667 32.9143 27.4678 33.0661 27.4689 33.2224C27.471 33.3557 27.4732 33.489 27.4754 33.6263C27.4095 34.0647 27.259 34.2557 26.9529 34.57C26.6618 34.7156 26.4656 34.7029 26.14 34.7042C25.9593 34.7053 25.9593 34.7053 25.7749 34.7065C25.579 34.7067 25.579 34.7067 25.3791 34.7069C25.1784 34.7075 25.1784 34.7075 24.9736 34.7081C24.6901 34.7087 24.4066 34.7089 24.1231 34.7089C23.6889 34.7092 23.2548 34.7113 22.8207 34.7135C22.5455 34.7139 22.2704 34.7141 21.9953 34.7142C21.8652 34.715 21.735 34.7159 21.601 34.7168C21.4797 34.7164 21.3585 34.716 21.2337 34.7157C21.0739 34.7159 21.0739 34.7159 20.9109 34.7162C20.6003 34.6847 20.4169 34.6227 20.156 34.4528C19.9128 34.088 19.8926 34.0118 19.895 33.5988C19.8951 33.4979 19.8951 33.3971 19.8951 33.2931C19.8963 33.1847 19.8975 33.0763 19.8988 32.9646C19.8991 32.8533 19.8994 32.7419 19.8998 32.6272C19.9011 32.2714 19.904 31.9156 19.907 31.5598C19.9082 31.3186 19.9092 31.0774 19.9102 30.8363C19.9128 30.2449 19.9168 29.6536 19.9216 29.0622C19.7802 29.0636 19.6387 29.0651 19.4929 29.0666C19.3036 29.0677 19.1144 29.0689 18.9251 29.07C18.8323 29.071 18.7395 29.0721 18.6438 29.0731C15.2894 29.0877 12.3698 27.426 10.0047 25.1657C7.60426 22.7039 6.41447 19.3296 6.42388 15.929C6.45519 13.6391 7.09413 11.5937 8.2029 9.60907C8.26664 9.49351 8.33039 9.37795 8.39607 9.25888C10.1204 6.3527 13.1158 4.4044 16.3347 3.57495C19.1845 2.87561 22.3192 3.16807 24.9607 4.45282C25.0368 4.48981 25.1129 4.5268 25.1912 4.56492C28.0704 6.00135 30.0598 8.36712 31.406 11.2497C31.8496 11.0838 32.2495 10.8801 32.6598 10.6441C32.7903 10.5693 32.9208 10.4945 33.0552 10.4175C33.1964 10.336 33.3376 10.2545 33.4788 10.173C33.6261 10.0884 33.7734 10.0038 33.9207 9.91924C34.299 9.70195 34.6769 9.48419 35.0548 9.26625C35.3898 9.07307 35.725 8.88013 36.0601 8.68714C36.688 8.32531 37.3155 7.96291 37.943 7.60035C38.5763 7.23447 39.2099 6.86906 39.8435 6.5036C40.6122 6.0602 41.3808 5.61672 42.1493 5.17288C43.7221 4.26465 45.2968 3.35995 46.8748 2.46063C46.8104 2.4495 46.746 2.43837 46.6797 2.4269C46.3853 2.37461 46.0918 2.31879 45.7981 2.26288C45.6968 2.24543 45.5955 2.22799 45.4912 2.21001C44.8515 2.08501 44.4699 1.95079 44.0623 1.40595C43.989 0.995791 43.989 0.995791 44.0623 0.585635C44.5852 -0.159126 45.1589 -0.0604409 45.9826 0.078318ZM11.1871 8.86566C9.33687 11.0237 8.31151 13.8026 8.40019 16.649C8.65534 19.8148 9.98387 22.5304 12.385 24.6384C14.9265 26.6577 17.9419 27.4 21.1581 27.0362C23.0471 26.7365 24.7492 25.8878 26.2498 24.7263C26.3433 24.6544 26.4368 24.5824 26.5331 24.5084C28.7427 22.6781 30.014 19.9678 30.3184 17.1521C30.3293 17.0219 30.3401 16.8917 30.3513 16.7575C30.3598 16.6611 30.3683 16.5648 30.377 16.4655C30.4815 13.9483 29.5521 11.157 27.8755 9.27081C27.6128 8.98698 27.3419 8.71227 27.0701 8.4372C27.0018 8.36046 26.9335 8.28372 26.8632 8.20465C26.2301 7.5076 25.4121 7.03877 24.6091 6.5622C24.5113 6.50389 24.4134 6.44558 24.3125 6.3855C19.9317 4.00006 14.5107 5.38329 11.1871 8.86566ZM31.6404 20.2731C31.5049 20.5441 31.5088 20.697 31.5091 20.9984C31.509 21.1012 31.5088 21.2041 31.5086 21.3101C31.5091 21.4232 31.5095 21.5363 31.5099 21.6529C31.5099 21.7718 31.5099 21.8907 31.5099 22.0132C31.5099 22.4076 31.5108 22.802 31.5118 23.1964C31.512 23.4693 31.5121 23.7422 31.5123 24.0151C31.5127 24.7345 31.5139 25.4539 31.5152 26.1733C31.5164 26.9069 31.5169 27.6405 31.5175 28.3742C31.5187 29.8145 31.5208 31.2547 31.5232 32.695C32.6834 32.695 33.8435 32.695 35.0388 32.695C35.0388 28.5958 35.0388 24.4966 35.0388 20.2731C33.9173 20.2731 32.7959 20.2731 31.6404 20.2731ZM24.6604 27.9123C23.7739 28.326 22.8544 28.5645 21.9138 28.8278C21.9138 30.104 21.9138 31.3802 21.9138 32.695C23.074 32.695 24.2341 32.695 25.4295 32.695C25.4295 31.0321 25.4295 29.3692 25.4295 27.6559C25.1181 27.6559 24.94 27.7736 24.6604 27.9123Z" fill="#BD8318"/>
<path d="M49.866 8.12767C50.0608 8.1249 50.0608 8.1249 50.2595 8.12207C50.469 8.12385 50.469 8.12385 50.6827 8.12566C50.8985 8.12482 50.8985 8.12482 51.1187 8.12397C51.4229 8.12357 51.7271 8.12465 52.0313 8.12709C52.4974 8.13023 52.9632 8.12713 53.4293 8.12338C53.7247 8.12376 54.0201 8.12451 54.3155 8.12566C54.525 8.12389 54.525 8.12389 54.7387 8.12207C54.8685 8.12392 54.9984 8.12576 55.1322 8.12767C55.3033 8.12837 55.3033 8.12837 55.478 8.12908C55.913 8.23612 56.014 8.4113 56.2491 8.78942C56.3164 9.13253 56.3124 9.4689 56.3086 9.81769C56.3094 9.92122 56.3101 10.0248 56.3108 10.1314C56.3127 10.4784 56.3112 10.8252 56.3098 11.1721C56.3104 11.4208 56.3112 11.6695 56.3122 11.9182C56.3144 12.5937 56.3135 13.2692 56.3121 13.9447C56.3109 14.6511 56.312 15.3575 56.3127 16.0639C56.3136 17.2501 56.3124 18.4363 56.3102 19.6225C56.3077 20.9948 56.3085 22.3671 56.3111 23.7394C56.3132 24.9168 56.3135 26.0943 56.3123 27.2718C56.3115 27.9753 56.3114 28.6789 56.313 29.3825C56.3143 30.0438 56.3134 30.705 56.3107 31.3663C56.3101 31.6093 56.3103 31.8524 56.3113 32.0954C56.3126 32.4265 56.311 32.7574 56.3086 33.0885C56.3097 33.1853 56.3107 33.282 56.3118 33.3816C56.3059 33.8067 56.2889 34.0502 56.0257 34.3923C55.645 34.6691 55.4334 34.7029 54.9674 34.7049C54.7867 34.706 54.7867 34.706 54.6024 34.7071C54.4064 34.7073 54.4064 34.7073 54.2066 34.7075C54.0727 34.7079 53.9389 34.7083 53.8011 34.7087C53.5175 34.7093 53.234 34.7096 52.9505 34.7096C52.5164 34.7098 52.0823 34.712 51.6481 34.7142C51.373 34.7145 51.0979 34.7148 50.8228 34.7149C50.6926 34.7157 50.5625 34.7166 50.4284 34.7174C50.3072 34.7171 50.186 34.7167 50.0611 34.7163C49.9013 34.7166 49.9013 34.7166 49.7384 34.7168C49.4245 34.6851 49.2434 34.6318 48.9835 34.4535C48.6654 34.0067 48.7158 33.501 48.7178 32.9758C48.7172 32.8729 48.7167 32.7701 48.7162 32.6641C48.7147 32.3187 48.7149 31.9733 48.7151 31.628C48.7144 31.3806 48.7136 31.1333 48.7127 30.8859C48.7106 30.2136 48.71 29.5412 48.7099 28.8688C48.7097 28.3079 48.7088 27.747 48.708 27.1861C48.7061 25.863 48.7055 24.54 48.7057 23.217C48.7058 21.8511 48.7033 20.4853 48.6996 19.1195C48.6966 17.9476 48.6953 16.7757 48.6955 15.6039C48.6955 14.9036 48.6949 14.2034 48.6924 13.5031C48.6901 12.8447 48.6901 12.1863 48.6918 11.5279C48.692 11.2861 48.6915 11.0443 48.6901 10.8025C48.6883 10.4727 48.6893 10.143 48.6912 9.81324C48.6899 9.71723 48.6887 9.62123 48.6875 9.52231C48.6929 9.07968 48.7322 8.81654 48.9682 8.43711C49.2836 8.14194 49.4383 8.12941 49.866 8.12767ZM50.7413 10.1957C50.7413 17.6207 50.7413 25.0457 50.7413 32.6957C51.9014 32.6957 53.0616 32.6957 54.2569 32.6957C54.2569 25.2707 54.2569 17.8457 54.2569 10.1957C53.0968 10.1957 51.9366 10.1957 50.7413 10.1957Z" fill="#BD8318"/>
<path d="M25.9346 8.95037C27.7545 10.681 29.0005 12.9805 29.0858 15.5312C29.1328 18.477 28.3275 20.975 26.2568 23.1301C24.2785 25.0111 21.7807 25.9547 19.064 25.9233C16.4654 25.7745 14.2861 24.7972 12.4214 22.9689C12.3321 22.8839 12.2428 22.7988 12.1508 22.7112C10.3303 20.8528 9.68945 18.3963 9.68945 15.8651C9.72392 13.2594 10.8415 11.0122 12.6118 9.12615C13.9813 7.80898 15.8045 6.84258 17.6948 6.56267C17.8199 6.54341 17.8199 6.54341 17.9475 6.52376C20.8844 6.13597 23.7022 7.02505 25.9346 8.95037ZM13.5933 11.0158C12.0444 12.9506 11.5678 14.9076 11.7183 17.3439C11.9557 19.2631 13.1179 21.0364 14.5688 22.2718C16.2196 23.4743 18.1095 24.058 20.1558 23.9064C22.2962 23.5515 24.1793 22.6048 25.5317 20.8669C26.8004 19.0713 27.3521 17.0629 27.035 14.8772C26.6759 12.9274 25.5807 11.1444 24.0033 9.94738C20.652 7.71937 16.4036 8.00547 13.5933 11.0158Z" fill="#BD8318"/>
<path d="M40.257 13.1667C40.4517 13.164 40.4517 13.164 40.6504 13.1611C40.8599 13.1629 40.8599 13.1629 41.0736 13.1647C41.2895 13.1639 41.2895 13.1639 41.5097 13.163C41.8138 13.1626 42.118 13.1637 42.4222 13.1662C42.8883 13.1693 43.3541 13.1662 43.8202 13.1624C44.1156 13.1628 44.411 13.1636 44.7064 13.1647C44.9159 13.1629 44.9159 13.1629 45.1296 13.1611C45.2595 13.163 45.3893 13.1648 45.5231 13.1667C45.6943 13.1674 45.6943 13.1674 45.8689 13.1681C46.2979 13.2737 46.4034 13.4609 46.64 13.8285C46.6984 14.2141 46.6984 14.2141 46.698 14.661C46.6985 14.7435 46.6991 14.826 46.6997 14.9109C46.701 15.1866 46.699 15.4622 46.697 15.7378C46.6972 15.9358 46.6977 16.1337 46.6983 16.3316C46.6995 16.8686 46.6977 17.4056 46.6953 17.9426C46.6932 18.5045 46.6936 19.0664 46.6937 19.6282C46.6935 20.5717 46.6915 21.5152 46.6883 22.4586C46.6846 23.5497 46.6834 24.6408 46.6835 25.7319C46.6837 26.7813 46.6825 27.8307 46.6805 28.88C46.6797 29.3268 46.6793 29.7735 46.6791 30.2202C46.6789 30.7461 46.6775 31.2719 46.6751 31.7978C46.6744 31.9909 46.6741 32.184 46.6743 32.3771C46.6744 32.6405 46.6731 32.9038 46.6714 33.1671C46.671 33.3145 46.6706 33.462 46.6702 33.6139C46.6415 33.9663 46.5999 34.1626 46.4057 34.4535C46.0515 34.6959 45.7546 34.7174 45.3317 34.7182C45.2113 34.7189 45.0908 34.7197 44.9667 34.7204C44.8373 34.7199 44.7079 34.7195 44.5746 34.719C44.4411 34.7192 44.3076 34.7194 44.1701 34.7197C43.888 34.7198 43.6059 34.7194 43.3238 34.7184C42.8917 34.7172 42.4597 34.7184 42.0276 34.7199C41.7536 34.7197 41.4795 34.7194 41.2055 34.719C41.0761 34.7195 40.9467 34.7199 40.8133 34.7204C40.6929 34.7197 40.5724 34.7189 40.4483 34.7182C40.3425 34.718 40.2367 34.7178 40.1277 34.7176C39.8152 34.6849 39.6335 34.6309 39.3744 34.4535C39.0961 34.0367 39.11 33.6591 39.1087 33.1671C39.1082 33.0848 39.1076 33.0025 39.1071 32.9177C39.1056 32.642 39.1058 32.3663 39.106 32.0905C39.1053 31.8928 39.1045 31.6951 39.1036 31.4974C39.1015 30.9604 39.101 30.4234 39.1008 29.8864C39.1006 29.4382 39.0998 28.99 39.0989 28.5418C39.097 27.4845 39.0964 26.4272 39.0966 25.3699C39.0967 24.2788 39.0943 23.1878 39.0906 22.0968C39.0875 21.1603 39.0863 20.2238 39.0864 19.2872C39.0865 18.7278 39.0858 18.1684 39.0833 17.609C39.081 17.0829 39.081 16.5569 39.0827 16.0308C39.083 15.8378 39.0824 15.6447 39.081 15.4516C39.0792 15.188 39.0803 14.9246 39.0821 14.661C39.082 14.5135 39.0818 14.366 39.0817 14.2141C39.1918 13.4864 39.5335 13.1697 40.257 13.1667ZM41.1322 15.2347C41.1322 20.9968 41.1322 26.759 41.1322 32.6957C42.2924 32.6957 43.4525 32.6957 44.6479 32.6957C44.6479 26.9336 44.6479 21.1715 44.6479 15.2347C43.4877 15.2347 42.3275 15.2347 41.1322 15.2347Z" fill="#BD8318"/>
<path d="M19.9213 9.72654C20.1985 9.94534 20.3503 10.1157 20.5073 10.4297C20.512 10.664 20.5124 10.8985 20.5073 11.1328C20.5895 11.1425 20.6716 11.1521 20.7563 11.1621C21.5057 11.3576 22.0898 11.8936 22.4995 12.539C22.5894 12.9885 22.5349 13.1712 22.331 13.5791C21.9504 13.8947 21.7159 13.9118 21.2319 13.8872C20.8328 13.795 20.6449 13.5494 20.3901 13.2422C20.0464 13.1276 19.818 13.1093 19.4599 13.1103C19.3598 13.11 19.2596 13.1097 19.1564 13.1094C18.883 13.1241 18.6559 13.1509 18.3979 13.2422C18.1757 13.602 18.1635 13.8283 18.1782 14.2529C18.2456 14.6504 18.2456 14.6504 18.5005 14.8681C18.9321 15.0966 19.2871 15.1323 19.7675 15.1538C20.7692 15.2346 21.41 15.5724 22.0925 16.3078C22.6362 16.987 22.7502 17.7853 22.7339 18.6328C22.6106 19.5218 22.2279 20.1487 21.562 20.7422C21.1312 21.0605 20.8233 21.2109 20.2729 21.2109C20.291 21.3958 20.291 21.3958 20.3095 21.5845C20.2729 22.0312 20.2729 22.0312 20.0312 22.3755C19.687 22.6172 19.687 22.6172 19.2768 22.6904C18.7543 22.5971 18.5845 22.4639 18.2807 22.0312C18.2441 21.5845 18.2441 21.5845 18.2807 21.2109C18.184 21.2061 18.0874 21.2013 17.9878 21.1963C17.3189 21.029 16.8333 20.6321 16.4057 20.0976C16.2586 19.7299 16.2312 19.4945 16.2885 19.1015C16.4643 18.7646 16.4643 18.7646 16.7573 18.5156C17.1462 18.4443 17.3272 18.4165 17.6948 18.5156C17.9186 18.6745 17.9186 18.6745 18.1416 18.8672C18.6247 19.2701 19.0099 19.3092 19.6288 19.2723C20.0379 19.1974 20.2457 19.0726 20.5073 18.75C20.6787 18.3428 20.6377 18.1968 20.4707 17.7832C20.3064 17.4519 20.3064 17.4519 20.0385 17.3437C19.7653 17.3123 19.4918 17.2834 19.2182 17.2558C18.2059 17.1322 17.3644 16.8941 16.706 16.0766C16.1234 15.1953 15.9066 14.3727 16.105 13.3255C16.326 12.5265 16.7776 11.8937 17.4755 11.439C17.8486 11.2432 18.0885 11.1328 18.5151 11.1328C18.503 10.9878 18.4909 10.8428 18.4785 10.6933C18.4799 10.2974 18.4925 10.2226 18.7568 9.90233C19.1866 9.68286 19.4446 9.6572 19.9213 9.72654Z" fill="#BD8318"/>
</g>
<defs>
<clipPath id="clip0_393_3707">
<rect width="60" height="60" fill="white"/>
</clipPath>
</defs>
</svg>
