<svg width="41" height="30" viewBox="0 0 41 30" fill="none" xmlns="http://www.w3.org/2000/svg">
<path d="M36.644 0.865398L30.7739 11.0818C30.9181 11.0016 31.0864 10.9455 31.2787 10.9135C31.471 10.8814 31.6633 10.8654 31.8557 10.8654C34.3973 10.8654 36.5552 11.7604 38.3292 13.5505C40.1032 15.3405 40.9902 17.4904 40.9902 20C40.9902 22.5416 40.1032 24.6995 38.3292 26.4735C36.5552 28.2475 34.3973 29.1345 31.8557 29.1345C29.3461 29.1345 27.1963 28.2475 25.4062 26.4735C23.6161 24.6995 22.7211 22.5416 22.7211 20C22.7211 19.1218 22.8277 18.3044 23.0409 17.548C23.254 16.7916 23.5657 16.0705 23.9759 15.3846L32.3365 0.865398H36.644ZM14.4325 0.865398L8.56236 11.0818C8.7066 11.0016 8.87487 10.9455 9.06716 10.9135C9.2595 10.8814 9.45183 10.8654 9.64416 10.8654C12.1858 10.8654 14.3436 11.7604 16.1177 13.5505C17.8917 15.3405 18.7787 17.4904 18.7787 20C18.7787 22.5576 17.8917 24.7195 16.1177 26.4855C14.3436 28.2515 12.1858 29.1345 9.64416 29.1345C7.13458 29.1345 4.98475 28.2475 3.19466 26.4735C1.40462 24.6995 0.509602 22.5416 0.509602 20C0.509602 19.1218 0.616165 18.3044 0.829288 17.548C1.04246 16.7916 1.35416 16.0705 1.76441 15.3846L10.125 0.865398H14.4325Z" fill="#BD8318"/>
</svg>
